<svg id="svg" version="1.1" xmlns="http://www.w3.org/2000/svg" xmlns:xlink="http://www.w3.org/1999/xlink" width="400" height="384" viewBox="0, 0, 400,384"><g id="svgg"><path id="path0" d="M168.817 111.549 C 167.210 113.283,168.086 115.432,170.565 115.837 C 173.266 116.278,173.151 116.498,169.781 117.344 L 166.500 118.167 170.083 118.261 C 174.173 118.369,174.190 118.389,172.167 120.667 C 170.222 122.856,170.128 124.194,171.800 125.867 C 172.423 126.490,173.173 127.000,173.467 127.000 C 174.230 127.000,174.134 126.726,173.000 125.667 C 171.636 124.392,171.731 123.777,173.667 121.366 C 174.583 120.224,175.333 119.074,175.333 118.811 C 175.333 118.411,176.521 118.333,182.667 118.333 C 186.700 118.333,190.000 118.217,190.000 118.074 C 190.000 117.931,189.029 116.852,187.843 115.677 L 185.687 113.539 180.479 114.770 C 175.292 115.995,175.269 115.998,174.454 115.356 C 174.004 115.002,173.192 114.627,172.651 114.523 C 172.110 114.419,171.217 114.246,170.667 114.140 C 169.560 113.926,169.315 113.040,170.167 112.333 C 170.821 111.790,170.810 110.667,170.151 110.667 C 169.867 110.667,169.267 111.064,168.817 111.549 M189.462 113.146 C 189.079 114.144,189.826 114.491,191.364 114.030 C 192.947 113.556,192.770 113.083,190.894 112.779 C 189.940 112.624,189.632 112.703,189.462 113.146 M196.481 142.202 C 197.741 149.024,201.848 155.214,208.078 159.684 C 210.694 161.559,212.983 163.263,213.167 163.469 C 213.350 163.675,214.608 164.658,215.961 165.653 L 218.423 167.463 219.195 166.565 C 220.156 165.448,220.016 165.435,222.096 166.839 C 224.249 168.292,224.306 168.141,223.332 163.566 C 221.834 156.528,217.358 145.227,215.731 144.374 C 215.421 144.211,213.605 143.818,211.697 143.500 L 208.228 142.923 207.693 143.632 C 207.235 144.239,206.937 144.312,205.649 144.135 C 204.488 143.976,204.038 144.052,203.696 144.464 C 203.064 145.226,202.959 145.192,199.914 143.233 C 198.403 142.261,196.958 141.339,196.704 141.185 C 196.326 140.955,196.285 141.142,196.481 142.202 M172.500 153.905 C 171.249 154.070,169.508 156.309,169.834 157.334 C 170.136 158.288,170.512 158.162,171.334 156.833 C 171.995 155.762,173.428 154.984,173.889 155.445 C 173.994 155.550,173.601 156.241,173.016 156.980 C 172.011 158.249,171.829 159.667,172.671 159.667 C 173.344 159.667,175.667 155.877,175.667 154.779 C 175.667 153.581,175.439 153.518,172.500 153.905 M199.333 161.167 C 199.333 164.164,199.681 164.128,194.473 161.667 C 190.409 159.746,188.992 159.365,188.077 159.945 C 187.802 160.120,189.378 161.024,192.573 162.524 C 195.278 163.794,197.976 165.257,198.569 165.776 C 200.255 167.250,202.350 165.938,201.124 164.176 C 200.859 163.794,200.667 162.667,200.667 161.492 C 200.667 159.637,200.300 158.667,199.600 158.667 C 199.453 158.667,199.333 159.792,199.333 161.167 M203.528 163.917 C 203.280 166.276,203.268 165.162,203.696 179.274 C 204.119 193.245,204.441 191.845,200.742 192.108 C 197.297 192.352,196.777 192.504,196.296 193.402 C 195.925 194.096,198.626 194.150,201.083 193.499 C 202.459 193.134,202.217 193.835,200.667 194.707 C 199.711 195.244,199.333 195.675,199.333 196.228 C 199.333 197.270,199.384 197.256,203.000 195.167 C 205.476 193.737,206.476 193.337,207.583 193.335 C 208.362 193.334,209.000 193.213,209.000 193.067 C 209.000 192.427,208.093 192.000,206.732 192.000 L 205.264 192.000 205.487 180.250 C 205.612 173.684,205.860 168.109,206.050 167.614 C 206.285 167.000,206.278 166.520,206.028 166.052 C 205.829 165.681,205.667 164.943,205.667 164.413 C 205.667 163.567,204.536 162.000,203.926 162.000 C 203.817 162.000,203.638 162.862,203.528 163.917 M156.863 206.372 C 149.577 206.668,137.800 207.665,129.500 208.689 C 121.857 209.632,122.667 209.176,122.667 212.541 L 122.667 215.403 133.417 215.328 C 139.329 215.287,149.529 215.271,156.083 215.293 L 168.000 215.333 168.000 224.442 L 168.000 233.550 198.833 233.557 L 229.667 233.564 229.667 224.449 L 229.667 215.333 252.500 215.333 L 275.333 215.333 275.333 212.506 C 275.333 209.846,275.289 209.669,274.583 209.512 C 271.386 208.799,257.818 207.365,247.667 206.667 C 244.825 206.471,235.600 206.221,227.167 206.110 L 211.833 205.909 207.500 207.266 C 198.472 210.094,199.844 210.076,191.286 207.480 L 186.406 206.000 174.953 206.051 C 168.654 206.079,160.513 206.223,156.863 206.372 M196.000 216.000 C 196.000 217.556,195.944 217.667,195.167 217.667 C 194.500 217.667,194.333 217.500,194.333 216.833 C 194.333 216.056,194.222 216.000,192.667 216.000 L 191.000 216.000 191.000 217.667 L 191.000 219.333 192.667 219.333 C 194.222 219.333,194.333 219.389,194.333 220.167 C 194.333 220.944,194.222 221.000,192.667 221.000 L 191.000 221.000 191.000 222.833 L 191.000 224.667 192.667 224.667 C 194.222 224.667,194.333 224.611,194.333 223.833 C 194.333 223.130,194.489 223.000,195.333 223.000 C 196.394 223.000,196.618 223.735,196.123 225.583 C 195.820 226.717,187.333 226.767,187.333 225.635 C 187.333 225.218,187.601 224.868,188.000 224.763 C 188.623 224.600,188.667 224.309,188.667 220.333 C 188.667 216.358,188.623 216.066,188.000 215.903 C 187.601 215.799,187.333 215.449,187.333 215.031 C 187.333 214.359,187.491 214.333,191.667 214.333 L 196.000 214.333 196.000 216.000 M204.642 218.720 C 206.397 221.041,207.866 222.908,207.907 222.869 C 208.357 222.432,207.480 216.029,206.951 215.891 C 205.118 215.411,206.305 214.333,208.667 214.333 C 211.067 214.333,212.212 215.412,210.333 215.903 C 209.703 216.068,209.667 216.358,209.667 221.206 L 209.667 226.333 208.703 226.333 C 207.859 226.333,207.334 225.798,204.463 222.018 C 202.660 219.645,201.129 217.760,201.059 217.830 C 200.548 218.341,201.463 224.956,202.067 225.114 C 203.729 225.549,202.566 226.497,200.247 226.599 C 197.901 226.701,196.680 225.283,198.667 224.763 C 199.290 224.600,199.333 224.309,199.333 220.294 C 199.333 216.222,199.299 216.000,198.667 216.000 C 198.174 216.000,198.000 215.778,198.000 215.149 C 198.000 214.334,198.071 214.303,199.725 214.399 L 201.451 214.500 204.642 218.720 M66.333 230.291 C 66.333 238.014,66.382 244.333,66.442 244.333 C 66.502 244.333,68.114 244.551,70.025 244.817 C 81.806 246.456,97.664 246.995,134.250 246.998 L 164.000 247.000 164.000 233.167 L 164.000 219.333 136.417 219.330 C 97.261 219.326,81.041 218.652,67.750 216.480 L 66.333 216.248 66.333 230.291 M328.833 216.682 C 326.779 217.101,314.836 218.270,308.333 218.688 C 305.000 218.902,287.750 219.137,268.083 219.235 L 233.667 219.407 233.667 233.204 L 233.667 247.000 263.583 246.998 C 302.328 246.995,318.814 246.375,330.583 244.478 L 331.667 244.303 331.667 230.318 L 331.667 216.333 330.917 216.372 C 330.504 216.393,329.567 216.532,328.833 216.682 M283.444 226.046 L 285.333 226.425 285.333 228.379 L 285.333 230.333 284.167 230.333 C 283.063 230.333,283.000 230.273,283.000 229.202 C 283.000 226.797,278.220 227.196,276.675 229.730 C 274.364 233.521,276.869 238.460,281.000 238.257 L 282.833 238.167 282.938 236.897 C 283.038 235.689,283.094 235.633,284.105 235.730 C 284.689 235.787,285.129 235.946,285.083 236.083 C 285.037 236.221,285.000 237.067,285.000 237.964 C 285.000 239.872,284.869 239.960,281.635 240.235 C 276.460 240.674,273.333 238.012,273.333 233.167 C 273.333 227.700,277.405 224.833,283.444 226.046 M88.000 226.865 C 88.000 227.457,87.784 227.786,87.314 227.908 C 86.843 228.032,86.697 228.256,86.845 228.627 C 86.964 228.924,87.746 231.095,88.583 233.452 L 90.105 237.738 91.719 233.119 C 93.588 227.770,93.523 228.127,92.667 227.903 C 92.216 227.786,92.000 227.449,92.000 226.865 C 92.000 226.006,92.019 226.000,94.667 226.000 C 97.489 226.000,98.679 227.190,96.618 227.953 C 96.068 228.156,95.385 229.557,93.657 234.025 L 91.411 239.833 89.994 239.833 L 88.577 239.833 86.268 233.950 C 84.544 229.559,83.795 228.024,83.313 227.898 C 82.883 227.786,82.667 227.440,82.667 226.865 C 82.667 226.006,82.685 226.000,85.333 226.000 C 87.981 226.000,88.000 226.006,88.000 226.865 M107.863 227.044 C 109.627 228.810,109.015 232.649,106.885 233.184 L 106.082 233.385 106.791 234.127 C 107.181 234.535,107.918 235.589,108.429 236.469 C 108.940 237.349,109.653 238.146,110.013 238.240 C 111.531 238.637,110.854 240.449,109.282 240.197 C 107.453 239.905,107.585 240.025,105.764 236.987 C 104.391 234.696,104.048 234.333,103.254 234.333 C 101.953 234.333,101.791 238.210,103.083 238.393 C 103.633 238.472,103.833 238.723,103.833 239.333 C 103.833 240.147,103.769 240.169,101.083 240.263 L 98.333 240.360 98.333 239.347 C 98.333 238.556,98.480 238.333,99.000 238.333 C 99.639 238.333,99.667 238.111,99.667 233.000 C 99.667 227.889,99.639 227.667,99.000 227.667 C 98.506 227.667,98.333 227.444,98.333 226.807 L 98.333 225.947 102.660 226.057 C 106.820 226.162,107.020 226.200,107.863 227.044 M122.000 227.833 C 122.000 229.648,121.990 229.667,121.000 229.667 C 120.111 229.667,120.000 229.556,120.000 228.667 C 120.000 227.070,116.528 227.108,116.208 228.708 C 115.660 231.452,115.790 231.667,118.000 231.667 L 120.000 231.667 120.000 232.667 L 120.000 233.667 118.000 233.667 L 116.000 233.667 116.000 236.000 L 116.000 238.333 117.964 238.333 C 120.006 238.333,120.333 238.099,120.333 236.639 C 120.333 236.151,120.570 236.000,121.333 236.000 L 122.333 236.000 122.333 238.000 L 122.333 240.000 117.333 240.000 L 112.333 240.000 112.333 239.167 C 112.333 238.556,112.511 238.333,113.000 238.333 C 113.639 238.333,113.667 238.111,113.667 233.000 L 113.667 227.667 112.833 227.667 C 112.167 227.667,112.000 227.500,112.000 226.833 L 112.000 226.000 117.000 226.000 L 122.000 226.000 122.000 227.833 M134.514 226.627 C 139.805 229.030,139.433 237.187,133.927 239.483 C 133.032 239.857,131.530 240.000,128.511 240.000 L 124.333 240.000 124.333 239.167 C 124.333 238.556,124.511 238.333,125.000 238.333 C 125.551 238.333,125.667 238.111,125.667 237.052 C 125.667 236.348,125.765 233.948,125.885 231.719 L 126.102 227.667 125.218 227.667 C 124.497 227.667,124.333 227.513,124.333 226.833 L 124.333 226.000 128.750 226.007 C 132.312 226.013,133.427 226.133,134.514 226.627 M149.667 227.833 L 149.667 229.667 148.500 229.667 C 147.426 229.667,147.333 229.587,147.333 228.667 C 147.333 227.677,147.315 227.667,145.500 227.667 L 143.667 227.667 143.667 229.667 L 143.667 231.667 145.500 231.667 C 148.438 231.667,148.361 233.580,145.417 233.733 L 143.500 233.833 143.401 236.100 L 143.302 238.366 145.401 238.266 L 147.500 238.167 147.604 237.083 C 147.829 234.750,149.667 235.567,149.667 238.000 L 149.667 240.000 144.667 240.000 L 139.667 240.000 139.667 239.167 C 139.667 238.556,139.844 238.333,140.333 238.333 C 140.972 238.333,141.000 238.111,141.000 233.000 C 141.000 227.889,140.972 227.667,140.333 227.667 C 139.844 227.667,139.667 227.444,139.667 226.833 L 139.667 226.000 144.667 226.000 L 149.667 226.000 149.667 227.833 M257.200 227.133 C 259.045 228.979,258.561 232.460,256.362 233.158 C 255.510 233.428,258.653 238.333,259.679 238.333 C 260.495 238.333,260.603 239.917,259.808 240.222 C 258.340 240.786,256.876 239.758,255.232 237.010 C 253.044 233.355,251.667 233.093,251.667 236.333 C 251.667 238.244,251.704 238.333,252.500 238.333 C 253.206 238.333,253.333 238.488,253.333 239.347 L 253.333 240.360 250.583 240.263 C 247.858 240.168,247.832 240.158,247.728 239.250 C 247.637 238.461,247.741 238.333,248.478 238.333 L 249.333 238.333 249.333 233.000 L 249.333 227.667 248.500 227.667 C 247.833 227.667,247.667 227.500,247.667 226.833 L 247.667 226.000 251.867 226.000 L 256.067 226.000 257.200 227.133 M271.667 227.833 C 271.667 229.994,269.842 230.806,269.605 228.750 C 269.506 227.882,269.398 227.828,267.583 227.733 L 265.667 227.633 265.667 229.633 L 265.667 231.633 267.583 231.733 C 269.398 231.828,269.506 231.882,269.605 232.750 C 269.710 233.661,269.698 233.667,267.689 233.667 L 265.667 233.667 265.667 236.000 L 265.667 238.333 267.667 238.333 L 269.667 238.333 269.667 237.167 C 269.667 236.049,269.717 236.000,270.869 236.000 C 271.828 236.000,272.030 236.107,271.869 236.527 C 271.758 236.817,271.667 237.717,271.667 238.527 L 271.667 240.000 266.667 240.000 L 261.667 240.000 261.667 239.167 C 261.667 238.556,261.844 238.333,262.333 238.333 C 262.972 238.333,263.000 238.111,263.000 233.000 C 263.000 227.889,262.972 227.667,262.333 227.667 C 261.844 227.667,261.667 227.444,261.667 226.833 L 261.667 226.000 266.667 226.000 L 271.667 226.000 271.667 227.833 M292.667 226.833 C 292.667 227.500,292.500 227.667,291.833 227.667 C 291.030 227.667,291.000 227.744,291.000 229.833 L 291.000 232.000 294.167 232.000 L 297.333 232.000 297.333 229.833 C 297.333 227.889,297.265 227.667,296.667 227.667 C 296.178 227.667,296.000 227.444,296.000 226.833 C 296.000 226.014,296.044 226.000,298.667 226.000 C 301.289 226.000,301.333 226.014,301.333 226.833 C 301.333 227.422,301.152 227.667,300.717 227.667 C 300.055 227.667,299.667 230.767,299.667 236.051 C 299.667 238.263,299.692 238.333,300.500 238.333 C 301.167 238.333,301.333 238.500,301.333 239.167 C 301.333 239.986,301.289 240.000,298.667 240.000 C 296.044 240.000,296.000 239.986,296.000 239.167 C 296.000 238.556,296.178 238.333,296.667 238.333 C 297.265 238.333,297.333 238.111,297.333 236.167 L 297.333 234.000 294.167 234.000 L 291.000 234.000 291.000 236.167 C 291.000 238.256,291.030 238.333,291.833 238.333 C 292.500 238.333,292.667 238.500,292.667 239.167 C 292.667 239.986,292.622 240.000,290.000 240.000 C 287.378 240.000,287.333 239.986,287.333 239.167 C 287.333 238.556,287.511 238.333,288.000 238.333 C 288.639 238.333,288.667 238.111,288.667 233.000 C 288.667 227.889,288.639 227.667,288.000 227.667 C 287.511 227.667,287.333 227.444,287.333 226.833 C 287.333 226.014,287.378 226.000,290.000 226.000 C 292.622 226.000,292.667 226.014,292.667 226.833 M315.601 227.917 L 315.702 229.667 314.517 229.667 C 313.424 229.667,313.333 229.590,313.333 228.667 C 313.333 227.704,313.278 227.667,311.833 227.667 L 310.333 227.667 310.333 233.000 L 310.333 238.333 311.167 238.333 C 311.833 238.333,312.000 238.500,312.000 239.167 C 312.000 239.990,311.967 240.000,309.167 240.000 C 306.367 240.000,306.333 239.990,306.333 239.167 C 306.333 238.556,306.511 238.333,307.000 238.333 C 307.639 238.333,307.667 238.111,307.667 233.000 L 307.667 227.667 306.167 227.667 C 304.722 227.667,304.667 227.704,304.667 228.667 C 304.667 229.556,304.556 229.667,303.667 229.667 C 302.676 229.667,302.667 229.649,302.667 227.826 L 302.667 225.986 309.083 226.076 L 315.500 226.167 315.601 227.917 M102.333 229.790 L 102.333 232.000 103.810 232.000 C 107.389 232.000,107.410 228.152,103.833 227.749 L 102.333 227.580 102.333 229.790 M128.333 232.953 L 128.333 238.333 129.917 238.326 C 137.429 238.291,137.821 228.563,130.342 227.782 L 128.333 227.572 128.333 232.953 M251.667 229.790 L 251.667 232.000 253.314 232.000 C 256.986 232.000,256.916 228.172,253.237 227.757 L 251.667 227.580 251.667 229.790 M74.333 276.111 L 74.333 278.608 75.750 278.826 C 76.529 278.946,77.654 279.126,78.250 279.226 L 79.333 279.408 79.333 293.180 L 79.333 306.952 76.833 307.355 L 74.333 307.758 74.333 310.212 L 74.333 312.667 84.014 312.667 C 97.804 312.667,101.674 311.660,106.268 306.875 C 114.484 298.319,112.884 281.090,103.408 276.073 C 99.398 273.951,98.954 273.891,86.083 273.747 L 74.333 273.614 74.333 276.111 M191.333 276.131 L 191.333 278.608 192.750 278.826 C 193.529 278.946,194.654 279.126,195.250 279.226 L 196.333 279.408 196.333 293.180 L 196.333 306.952 193.833 307.355 L 191.333 307.758 191.333 310.212 L 191.333 312.667 199.500 312.667 L 207.667 312.667 207.667 310.182 L 207.667 307.697 206.417 307.493 C 205.729 307.380,204.754 307.212,204.250 307.118 L 203.333 306.947 203.333 301.307 L 203.333 295.667 211.500 295.667 L 219.667 295.667 219.667 301.296 L 219.667 306.926 218.417 307.141 C 215.037 307.723,215.333 307.429,215.333 310.193 L 215.333 312.667 223.333 312.667 L 231.333 312.667 231.333 310.197 L 231.333 307.727 229.000 307.333 L 226.667 306.940 226.667 293.167 L 226.667 279.394 229.000 279.000 L 231.333 278.606 231.333 276.137 L 231.333 273.667 223.333 273.667 L 215.333 273.667 215.333 276.144 C 215.333 278.899,215.215 278.769,218.083 279.159 L 219.667 279.374 219.667 284.354 L 219.667 289.333 211.500 289.333 L 203.333 289.333 203.333 284.348 L 203.333 279.364 204.583 279.159 C 208.012 278.599,207.706 278.897,207.597 276.220 L 207.500 273.833 199.417 273.744 L 191.333 273.655 191.333 276.131 M96.786 280.872 C 101.469 282.688,103.609 287.117,103.265 294.274 C 102.888 302.098,98.292 306.333,90.178 306.333 C 86.675 306.333,87.000 307.703,87.000 292.924 L 87.000 279.920 91.083 280.082 C 93.968 280.196,95.642 280.428,96.786 280.872 M125.077 283.850 C 113.933 286.850,111.499 306.366,121.631 311.479 C 125.065 313.212,132.433 313.503,137.333 312.099 L 139.500 311.478 139.472 310.156 C 139.457 309.428,139.338 308.140,139.208 307.292 L 138.972 305.750 136.641 306.362 C 128.444 308.514,123.000 306.381,123.000 301.016 L 123.000 300.011 131.750 299.922 L 140.500 299.833 140.492 296.000 C 140.474 286.349,134.190 281.397,125.077 283.850 M160.984 283.787 C 158.994 284.324,157.244 285.430,156.004 286.934 L 155.000 288.152 155.000 286.076 L 155.000 284.000 150.750 284.003 C 148.412 284.004,145.712 284.100,144.750 284.216 L 143.000 284.426 143.000 286.674 C 143.000 289.137,143.165 289.312,145.500 289.333 C 146.050 289.338,146.837 289.433,147.250 289.543 L 148.000 289.744 148.000 301.206 L 148.000 312.667 151.833 312.667 L 155.667 312.667 155.667 304.727 C 155.667 295.235,155.885 294.139,158.269 291.674 C 160.643 289.219,163.225 288.995,164.799 291.107 C 165.470 292.007,165.505 292.491,165.609 302.357 L 165.718 312.667 169.382 312.667 L 173.046 312.667 172.940 301.083 L 172.833 289.500 171.959 287.636 C 170.257 284.006,165.873 282.469,160.984 283.787 M242.833 283.681 C 240.232 284.085,236.333 285.268,236.333 285.654 C 236.333 286.121,237.337 290.781,237.465 290.909 C 237.527 290.972,238.909 290.637,240.536 290.166 C 247.363 288.187,250.980 289.369,250.995 293.583 L 251.000 295.000 249.544 295.000 C 239.359 295.000,233.040 300.567,235.116 307.710 C 236.841 313.643,245.901 315.041,250.583 310.096 L 251.667 308.953 251.667 310.862 L 251.667 312.772 257.358 312.557 C 264.132 312.301,263.667 312.516,263.667 309.647 L 263.667 307.333 262.713 307.333 C 262.189 307.333,261.077 307.240,260.242 307.125 L 258.725 306.917 258.612 298.542 C 258.486 289.100,258.106 287.453,255.624 285.582 C 253.207 283.761,247.645 282.934,242.833 283.681 M274.167 283.681 C 271.622 284.076,267.667 285.265,267.667 285.635 C 267.667 285.985,268.729 290.797,268.835 290.928 C 268.877 290.980,270.178 290.656,271.726 290.207 C 278.585 288.220,282.333 289.313,282.333 293.300 L 282.333 295.000 280.877 295.000 C 270.188 295.000,263.264 301.875,266.915 308.865 C 269.553 313.918,277.667 314.584,281.917 310.096 L 283.000 308.953 283.000 310.862 L 283.000 312.772 288.692 312.557 C 295.465 312.301,295.000 312.516,295.000 309.647 L 295.000 307.333 294.047 307.333 C 293.522 307.333,292.408 307.239,291.571 307.125 L 290.050 306.916 289.942 298.541 C 289.819 289.039,289.452 287.475,286.889 285.520 C 284.575 283.755,278.938 282.940,274.167 283.681 M309.333 283.714 C 305.572 284.335,302.009 286.572,300.037 289.549 C 296.513 294.869,296.472 304.745,299.953 309.548 C 302.969 313.709,310.669 314.222,314.534 310.519 L 316.000 309.114 315.998 311.974 C 315.993 319.563,310.831 322.284,301.717 319.499 C 299.555 318.839,299.807 318.540,299.352 322.305 C 298.916 325.919,298.866 325.834,301.664 326.236 C 310.607 327.522,318.142 325.699,320.933 321.574 C 323.234 318.174,323.156 318.871,323.267 300.761 L 323.368 284.355 322.601 284.177 C 319.551 283.473,312.322 283.220,309.333 283.714 M131.190 289.818 C 132.128 290.432,133.314 292.709,133.326 293.917 C 133.333 294.663,133.305 294.667,128.167 294.667 C 122.581 294.667,122.693 294.713,123.516 292.744 C 124.904 289.422,128.495 288.052,131.190 289.818 M315.786 290.003 C 316.455 290.632,315.847 300.734,315.028 302.581 C 313.492 306.046,310.588 307.668,308.098 306.451 C 303.912 304.406,304.098 293.747,308.374 290.581 C 309.916 289.439,314.783 289.060,315.786 290.003 M251.000 301.101 C 251.000 305.491,245.626 309.011,242.974 306.359 C 240.014 303.398,243.295 300.178,249.417 300.037 C 250.993 300.000,251.000 300.005,251.000 301.101 M282.333 301.151 C 282.333 305.643,277.032 309.083,274.308 306.359 C 271.347 303.398,274.628 300.178,280.750 300.037 L 282.333 300.000 282.333 301.151 " stroke="none" fill="#135e2d" fillRule="evenodd"></path><path id="path1" d="M196.641 66.641 C 195.877 67.405,195.667 67.914,195.667 69.000 C 195.667 72.037,199.212 73.506,201.359 71.359 C 203.506 69.212,202.037 65.667,199.000 65.667 C 197.914 65.667,197.405 65.877,196.641 66.641 M163.110 68.140 C 160.561 69.280,160.636 73.131,163.228 74.214 C 164.764 74.855,166.101 74.539,167.158 73.283 C 169.466 70.540,166.414 66.662,163.110 68.140 M232.404 68.068 C 230.950 68.454,229.907 70.093,230.138 71.631 C 230.637 74.969,234.934 75.671,236.410 72.655 C 237.763 69.889,235.463 67.254,232.404 68.068 M192.863 74.026 C 190.679 76.621,192.934 80.341,196.195 79.523 C 200.003 78.567,199.267 73.000,195.333 73.000 C 193.948 73.000,193.607 73.141,192.863 74.026 M200.308 73.974 C 197.859 76.423,200.344 80.368,203.703 79.362 C 205.303 78.883,206.000 77.904,206.000 76.138 C 206.000 73.162,202.464 71.818,200.308 73.974 M186.452 73.664 C 184.530 74.440,184.007 77.583,185.545 79.121 C 186.833 80.408,189.020 80.365,190.359 79.026 C 192.934 76.451,189.892 72.276,186.452 73.664 M207.800 74.467 C 206.540 75.727,206.368 76.788,207.170 78.340 C 208.494 80.901,212.551 80.514,213.313 77.754 C 214.283 74.239,210.364 71.903,207.800 74.467 M178.583 74.360 C 177.172 75.182,176.709 77.119,177.516 78.820 C 179.284 82.547,184.962 80.091,183.665 76.160 C 183.047 74.290,180.346 73.333,178.583 74.360 M215.768 74.399 C 214.738 74.896,213.955 76.693,214.211 77.971 C 214.809 80.963,219.353 81.583,220.602 78.843 C 222.026 75.717,218.930 72.871,215.768 74.399 M171.796 74.660 C 169.723 75.497,169.059 78.227,170.509 79.950 C 172.614 82.451,176.333 81.099,176.333 77.833 C 176.333 75.250,174.137 73.714,171.796 74.660 M223.258 74.836 C 219.988 76.671,222.046 81.962,225.716 81.156 C 227.035 80.866,228.333 79.208,228.333 77.813 C 228.333 75.396,225.365 73.655,223.258 74.836 M163.925 75.502 C 160.984 77.156,162.259 81.667,165.667 81.667 C 169.808 81.667,170.272 75.606,166.166 75.141 C 165.331 75.047,164.494 75.181,163.925 75.502 M230.568 75.532 C 228.752 76.516,228.448 79.166,229.974 80.692 C 232.177 82.894,235.667 81.417,235.667 78.282 C 235.667 75.650,233.002 74.213,230.568 75.532 M191.000 81.677 C 183.316 81.955,166.960 83.299,166.539 83.686 C 166.369 83.841,166.574 86.533,167.021 90.019 L 167.798 96.081 170.649 95.847 C 172.217 95.718,175.150 95.471,177.167 95.299 C 187.677 94.398,215.414 94.597,226.853 95.654 C 228.492 95.806,229.858 95.908,229.887 95.881 C 230.035 95.749,231.427 83.650,231.307 83.536 C 230.807 83.063,201.475 81.168,198.167 81.395 C 197.800 81.420,194.575 81.547,191.000 81.677 M122.385 82.671 C 122.053 83.421,121.358 83.949,119.643 84.755 C 116.916 86.035,116.979 85.635,118.814 90.069 C 122.644 99.324,124.409 107.298,124.050 113.720 L 124.000 114.606 122.250 114.140 C 115.937 112.460,110.667 115.886,110.667 121.670 C 110.667 122.444,110.518 122.667,110.000 122.667 C 108.402 122.667,108.000 123.709,108.000 127.855 C 108.000 129.976,107.842 132.006,107.648 132.367 C 107.309 133.001,107.338 133.007,108.451 132.542 C 114.409 130.052,122.078 121.938,123.692 116.417 C 123.919 115.638,124.218 115.000,124.356 115.000 C 124.991 115.000,128.235 117.990,132.585 122.582 C 137.940 128.237,139.592 129.458,142.952 130.247 L 145.301 130.798 141.282 133.002 C 139.072 134.213,137.241 135.293,137.215 135.401 C 137.108 135.835,152.072 152.328,152.393 152.130 C 152.631 151.983,152.631 151.850,152.393 151.703 C 152.203 151.586,150.254 148.553,148.062 144.962 L 144.076 138.435 144.902 134.801 C 145.760 131.026,145.756 131.032,148.325 129.058 C 149.612 128.068,149.594 127.790,148.225 127.533 C 147.029 127.308,145.706 126.097,144.913 124.500 L 144.417 123.500 149.709 118.543 L 155.000 113.586 155.000 106.475 L 155.000 99.364 156.083 99.184 C 156.679 99.086,158.488 98.870,160.102 98.706 C 163.678 98.341,163.574 98.443,162.408 96.458 L 161.454 94.833 156.245 94.742 L 151.035 94.650 149.958 96.595 C 148.967 98.384,148.544 98.752,144.690 101.187 C 139.606 104.398,140.134 104.416,139.032 101.000 C 137.551 96.409,134.802 91.433,132.695 89.526 C 132.085 88.974,132.000 88.516,132.000 85.782 C 132.000 84.068,131.887 82.676,131.750 82.687 C 131.612 82.698,130.225 83.280,128.667 83.979 L 125.833 85.250 125.584 84.332 C 125.388 83.610,123.458 81.667,122.937 81.667 C 122.878 81.667,122.629 82.119,122.385 82.671 M278.707 90.773 C 272.668 106.086,272.138 114.429,276.760 121.412 C 279.405 125.409,285.782 131.003,289.373 132.477 L 290.579 132.972 290.163 131.763 C 289.896 130.986,289.809 129.568,289.920 127.791 C 290.131 124.414,289.687 123.054,288.285 122.774 C 287.504 122.617,287.333 122.412,287.333 121.629 C 287.333 119.402,285.631 116.282,283.597 114.782 C 282.673 114.100,282.627 114.000,283.239 114.000 C 284.354 114.000,288.998 114.946,290.764 115.532 C 292.850 116.225,292.907 116.121,291.882 113.468 L 291.019 111.236 292.374 109.618 C 293.134 108.711,293.532 107.999,293.281 107.998 C 293.035 107.997,291.285 108.175,289.392 108.394 C 286.455 108.734,285.906 108.722,285.647 108.313 C 284.376 106.305,288.493 105.706,293.532 107.167 C 299.253 108.824,302.181 108.100,304.738 104.393 C 306.019 102.535,305.858 102.447,303.504 103.721 C 300.705 105.237,297.798 105.387,294.060 104.206 C 290.208 102.989,287.472 103.199,285.645 104.853 C 285.028 105.411,285.000 105.408,285.000 104.792 C 285.000 102.311,289.564 100.779,292.859 102.156 C 294.157 102.698,294.035 102.817,294.792 100.269 C 295.193 98.920,295.191 98.611,294.776 98.019 C 294.340 97.397,294.356 97.333,294.945 97.333 C 295.582 97.333,296.000 96.734,296.000 95.821 C 296.000 95.569,294.811 94.458,293.358 93.352 C 290.842 91.437,290.697 91.254,290.305 89.504 C 290.079 88.493,289.862 87.667,289.824 87.667 C 289.246 87.667,283.430 86.519,282.268 86.176 L 280.702 85.713 278.707 90.773 M201.350 86.509 C 202.408 87.056,202.689 88.290,201.904 88.942 C 200.408 90.183,196.365 89.867,195.427 88.436 C 194.179 86.530,198.606 85.089,201.350 86.509 M187.824 87.066 C 189.718 87.987,189.708 88.132,187.676 89.162 L 186.019 90.002 184.190 89.105 L 182.362 88.209 183.931 87.288 C 185.851 86.161,185.949 86.155,187.824 87.066 M213.604 87.269 L 215.314 88.204 213.481 89.103 L 211.649 90.002 209.741 89.028 L 207.833 88.054 209.667 87.213 C 211.943 86.169,211.583 86.164,213.604 87.269 M174.824 87.667 C 175.867 87.667,176.777 88.838,176.351 89.634 C 175.322 91.556,170.543 91.896,169.853 90.097 C 169.371 88.842,172.237 87.051,173.944 87.540 C 174.188 87.609,174.584 87.667,174.824 87.667 M227.162 88.662 C 228.174 89.613,228.190 89.810,227.333 90.667 C 226.051 91.949,222.214 91.312,221.336 89.671 C 220.282 87.703,225.229 86.846,227.162 88.662 M286.322 90.545 C 286.658 90.883,284.926 92.000,284.068 92.000 C 283.221 92.000,281.667 90.854,281.667 90.229 C 281.667 89.903,285.974 90.196,286.322 90.545 M236.174 95.500 C 235.895 95.958,235.430 96.721,235.140 97.196 C 234.429 98.359,234.431 98.360,238.905 98.863 C 241.066 99.106,242.871 99.311,242.917 99.319 C 242.963 99.327,243.000 102.536,243.000 106.449 L 243.000 113.565 248.220 118.449 C 251.091 121.136,253.562 123.333,253.711 123.333 C 254.168 123.333,258.000 106.368,258.000 104.344 C 258.000 104.217,256.004 102.865,253.566 101.337 C 249.442 98.755,249.056 98.424,248.052 96.614 L 246.974 94.667 241.828 94.667 C 236.697 94.667,236.681 94.669,236.174 95.500 M177.000 100.835 C 170.387 101.298,166.223 101.714,161.575 102.376 L 158.984 102.746 159.077 140.956 L 159.169 179.167 159.961 181.286 C 163.531 190.847,175.378 198.988,193.333 204.219 C 198.547 205.738,199.489 205.737,204.833 204.199 C 221.004 199.547,232.775 192.036,236.993 183.680 C 238.717 180.265,239.000 178.435,239.000 170.702 L 239.000 163.667 241.000 163.667 L 243.000 163.667 243.000 166.293 C 243.000 169.070,243.189 169.467,244.669 169.800 C 245.387 169.962,266.293 141.107,266.895 139.123 C 267.042 138.637,252.768 130.454,252.406 130.817 C 252.303 130.919,252.607 132.684,253.081 134.739 L 253.942 138.475 250.987 143.321 C 245.189 152.828,245.782 152.027,244.815 151.660 C 243.071 150.997,243.000 151.101,243.000 154.306 L 243.000 157.278 241.754 157.889 C 241.069 158.225,240.169 159.010,239.754 159.633 L 239.000 160.765 239.000 131.716 C 239.000 115.739,238.876 102.667,238.725 102.667 C 238.573 102.667,236.861 102.444,234.919 102.171 C 223.218 100.529,191.756 99.803,177.000 100.835 M92.333 102.997 C 92.333 103.149,92.948 104.051,93.699 105.001 C 96.156 108.109,99.142 108.710,104.468 107.167 C 107.712 106.227,110.150 106.108,111.829 106.810 C 113.341 107.442,113.845 106.421,112.650 105.149 C 110.846 103.229,106.944 102.904,103.257 104.369 C 100.682 105.392,97.194 105.149,94.399 103.752 C 93.263 103.184,92.333 102.844,92.333 102.997 M193.229 109.885 C 196.929 111.641,196.936 114.019,193.274 124.500 L 190.478 132.500 197.322 132.710 C 205.315 132.955,207.289 133.283,210.636 134.922 C 218.837 138.938,224.908 146.577,227.578 156.239 C 228.460 159.434,228.980 170.131,228.286 170.825 C 228.168 170.943,226.293 169.830,224.119 168.352 L 220.167 165.664 219.333 166.649 L 218.500 167.634 215.833 165.677 C 209.620 161.116,203.734 161.295,206.152 165.972 C 206.573 166.786,206.575 166.995,206.163 167.539 C 205.773 168.054,205.686 170.274,205.677 179.917 L 205.667 191.667 206.890 191.667 C 208.146 191.667,209.333 192.421,209.333 193.218 C 209.333 193.535,208.838 193.667,207.648 193.667 C 206.203 193.667,205.514 193.931,202.815 195.520 C 201.083 196.539,199.516 197.280,199.333 197.167 C 198.600 196.713,199.054 195.632,200.383 194.669 C 201.485 193.871,201.625 193.667,201.070 193.667 C 200.686 193.667,200.280 193.817,200.167 194.000 C 199.752 194.671,196.000 194.408,196.000 193.707 C 196.000 192.537,197.125 192.149,201.583 191.782 L 203.667 191.610 203.667 180.122 C 203.667 170.433,203.586 168.478,203.154 167.642 C 202.692 166.749,202.692 166.577,203.154 165.917 C 204.227 164.384,203.839 161.917,202.333 160.707 L 201.000 159.635 201.000 161.655 C 201.000 162.767,201.179 163.963,201.398 164.313 C 202.436 165.975,199.915 167.678,198.701 166.135 C 198.216 165.518,181.000 157.000,180.238 157.000 C 180.142 157.000,180.141 157.301,180.237 157.668 C 180.402 158.300,179.855 159.333,179.355 159.333 C 179.228 159.333,178.619 158.433,178.000 157.333 C 176.611 154.863,176.756 154.848,174.656 157.681 C 172.875 160.084,172.424 160.322,171.972 159.100 C 171.780 158.582,171.973 158.048,172.719 157.034 C 173.627 155.800,173.661 155.667,173.074 155.667 C 172.691 155.667,172.042 156.218,171.495 157.007 C 170.614 158.278,170.535 158.318,169.950 157.788 C 168.553 156.524,170.709 153.844,173.325 153.592 C 174.250 153.503,175.280 153.184,175.613 152.882 C 176.450 152.125,177.026 152.194,177.821 153.149 C 178.201 153.606,180.919 155.091,184.000 156.525 C 187.025 157.934,191.632 160.103,194.237 161.346 L 198.974 163.606 199.070 160.890 L 199.167 158.174 197.333 156.699 C 182.078 144.430,180.772 140.939,186.463 127.639 C 187.829 124.446,189.256 121.046,189.635 120.083 L 190.324 118.333 182.987 118.333 L 175.650 118.333 175.354 119.114 C 175.190 119.543,174.444 120.602,173.695 121.467 C 172.085 123.328,171.936 124.510,173.167 125.667 C 174.574 126.989,173.687 127.610,172.039 126.456 C 169.979 125.013,170.083 122.975,172.355 120.274 C 173.076 119.416,173.667 118.633,173.667 118.534 C 173.667 118.435,171.904 118.312,169.750 118.261 L 165.833 118.167 169.333 117.304 L 172.833 116.441 170.923 116.031 C 167.797 115.361,166.881 113.418,168.749 111.417 C 169.135 111.004,169.728 110.667,170.069 110.667 C 171.031 110.667,171.171 111.608,170.341 112.492 C 169.353 113.543,169.614 113.837,171.935 114.294 C 173.008 114.505,174.180 114.951,174.538 115.285 C 175.170 115.874,175.345 115.855,180.345 114.661 C 185.119 113.520,185.547 113.468,186.131 113.964 C 186.732 114.475,186.740 114.466,186.310 113.765 C 184.923 111.507,190.297 108.494,193.229 109.885 M71.312 114.039 C 70.755 115.081,71.142 117.215,72.145 118.621 L 73.009 119.833 70.421 120.093 C 65.620 120.575,63.619 122.191,63.408 125.754 C 63.121 130.623,68.667 136.118,70.002 132.286 C 70.965 129.519,73.177 128.799,79.507 129.188 C 84.915 129.521,86.358 128.677,86.879 124.877 L 87.091 123.333 88.467 123.333 C 91.334 123.333,93.667 125.533,93.667 128.238 C 93.667 130.400,93.600 130.485,85.169 139.000 C 78.240 145.999,76.350 148.128,76.729 148.507 C 76.819 148.596,93.338 136.056,98.842 131.719 C 100.283 130.584,100.313 126.477,98.902 123.603 C 96.817 119.357,93.344 117.333,88.143 117.333 C 80.607 117.333,74.533 116.148,72.706 114.322 L 71.700 113.315 71.312 114.039 M311.121 124.877 C 311.655 128.772,312.787 129.351,319.667 129.246 C 326.082 129.148,327.543 129.735,328.179 132.667 L 328.431 133.833 328.857 132.667 C 331.153 126.374,327.217 123.333,316.776 123.333 L 310.909 123.333 311.121 124.877 M298.506 131.705 C 299.115 133.677,300.222 134.979,307.684 142.500 C 312.049 146.900,315.781 150.922,315.977 151.438 C 317.232 154.743,315.153 158.000,311.788 158.000 C 309.421 158.000,308.010 156.896,298.580 147.661 L 289.397 138.668 287.615 139.495 C 285.149 140.640,281.963 141.293,276.540 141.764 L 271.914 142.167 273.868 143.500 C 280.976 148.349,285.303 155.031,285.592 161.604 L 285.744 165.041 281.640 162.048 L 277.536 159.054 276.685 159.724 C 271.096 164.116,254.333 178.247,254.333 178.564 C 254.333 179.031,256.013 180.000,256.823 180.000 C 257.220 180.000,257.297 180.220,257.143 180.917 C 255.752 187.211,254.410 189.920,250.927 193.463 L 248.341 196.093 246.207 195.874 C 243.758 195.623,242.887 195.873,241.534 197.211 C 240.494 198.240,238.797 201.575,239.140 201.918 C 239.452 202.230,253.819 203.037,253.924 202.749 C 253.974 202.612,256.847 196.950,260.309 190.167 L 266.603 177.833 275.218 175.814 C 279.956 174.703,284.246 173.688,284.750 173.557 L 285.667 173.321 285.667 183.994 C 285.667 189.864,285.796 194.667,285.955 194.667 C 286.114 194.667,288.757 191.742,291.829 188.167 C 294.901 184.592,297.537 181.667,297.686 181.667 C 298.146 181.667,301.552 187.049,302.444 189.184 C 305.247 195.896,304.868 203.884,301.479 209.511 C 300.551 211.052,300.333 211.755,300.333 213.207 L 300.333 215.000 304.667 215.000 C 307.050 215.000,309.000 214.916,309.000 214.814 C 309.000 214.712,308.838 213.986,308.641 213.202 C 308.292 211.815,308.330 211.693,310.014 208.841 L 311.747 205.907 311.815 197.370 C 311.889 188.047,312.301 184.843,313.802 181.943 C 314.732 180.144,314.669 180.000,312.951 180.000 C 311.090 180.000,307.582 178.746,306.157 177.572 C 304.176 175.939,304.000 175.161,304.000 168.018 L 304.000 161.681 305.495 162.629 C 312.851 167.294,322.333 162.121,322.333 153.443 C 322.333 149.117,322.856 149.701,310.565 140.277 C 296.870 129.777,298.202 130.724,298.506 131.705 M102.307 144.863 C 97.116 150.063,96.321 150.986,97.167 150.836 C 98.448 150.609,111.766 148.479,114.833 148.011 C 116.117 147.815,117.608 147.564,118.147 147.454 L 119.128 147.252 117.715 148.857 C 112.861 154.372,112.210 156.313,112.072 165.667 L 111.962 173.167 121.396 175.331 C 127.665 176.770,131.025 177.692,131.413 178.080 C 131.734 178.400,134.714 184.101,138.035 190.748 C 141.356 197.395,144.106 202.870,144.145 202.914 C 144.295 203.083,158.662 202.116,158.854 201.924 C 159.160 201.618,157.893 198.976,156.846 197.738 C 155.378 196.001,154.277 195.584,151.847 195.844 L 149.752 196.069 147.459 193.906 C 143.565 190.232,138.948 180.000,141.183 180.000 C 141.911 180.000,143.667 178.947,143.665 178.511 C 143.664 178.322,138.506 173.899,132.204 168.684 C 120.962 159.381,120.758 159.191,121.456 158.645 C 125.225 155.698,132.782 150.365,132.999 150.500 C 133.151 150.593,135.849 153.820,138.995 157.671 C 144.461 164.360,150.589 170.000,152.390 170.000 C 152.856 170.000,131.450 139.033,130.968 139.010 C 130.859 139.004,129.809 139.624,128.635 140.386 C 125.024 142.730,115.276 142.195,109.690 139.345 L 108.448 138.712 102.307 144.863 M94.479 152.417 L 93.500 153.500 94.583 152.521 C 95.593 151.608,95.820 151.333,95.562 151.333 C 95.505 151.333,95.017 151.821,94.479 152.417 M99.005 183.034 C 92.944 190.701,91.780 202.267,96.345 209.464 C 97.149 210.733,97.333 211.385,97.333 212.966 L 97.333 214.909 98.880 215.121 C 99.730 215.238,103.708 215.333,107.720 215.333 L 115.013 215.333 114.799 214.417 C 113.772 210.000,111.535 207.910,107.973 208.038 C 101.440 208.274,99.134 197.196,104.236 190.085 L 106.015 187.605 103.611 184.886 C 102.288 183.390,101.026 181.963,100.806 181.714 C 100.478 181.345,100.149 181.586,99.005 183.034 " stroke="none" fill="#dbb91d" fillRule="evenodd"></path><path id="path2" d="M190.167 109.671 C 188.719 109.981,187.765 110.663,186.766 112.101 L 185.885 113.368 188.109 115.609 C 190.832 118.353,190.887 117.452,187.512 125.467 C 183.723 134.467,183.667 134.647,183.667 137.823 C 183.667 144.405,185.763 147.242,197.773 156.912 C 205.816 163.388,205.545 163.213,206.257 162.389 C 206.832 161.724,206.838 161.724,209.491 162.509 C 213.025 163.554,213.038 163.575,207.762 159.802 C 189.650 146.852,189.996 147.164,190.003 143.763 C 190.007 141.999,191.308 138.783,192.149 138.461 C 192.458 138.342,194.596 139.522,197.598 141.466 C 202.833 144.858,203.023 144.943,203.658 144.177 C 203.955 143.819,204.456 143.742,205.526 143.889 C 206.738 144.055,207.088 143.972,207.577 143.405 C 208.166 142.722,208.170 142.722,211.500 143.346 C 213.333 143.690,215.030 143.978,215.271 143.986 C 215.964 144.008,213.071 140.115,210.537 137.614 C 208.664 135.765,208.313 135.259,208.636 134.870 C 209.538 133.783,205.463 133.045,197.083 132.778 C 193.371 132.659,190.333 132.537,190.333 132.506 C 190.333 132.476,191.608 128.816,193.167 124.372 C 194.891 119.456,196.000 115.775,196.000 114.969 C 196.000 111.485,193.271 109.006,190.167 109.671 M192.333 113.086 L 193.167 113.415 192.042 113.892 C 190.624 114.493,189.542 114.350,189.387 113.540 C 189.159 112.344,190.096 112.200,192.333 113.086 M187.667 215.000 C 187.667 215.444,187.889 215.667,188.333 215.667 C 188.968 215.667,189.000 215.889,189.000 220.333 C 189.000 224.778,188.968 225.000,188.333 225.000 C 187.889 225.000,187.667 225.222,187.667 225.667 C 187.667 226.298,187.889 226.333,191.833 226.333 L 196.000 226.333 196.000 224.667 C 196.000 222.729,194.815 222.092,194.605 223.917 C 194.506 224.784,194.398 224.839,192.583 224.933 L 190.667 225.033 190.667 223.034 L 190.667 221.035 192.417 220.934 C 193.911 220.848,194.167 220.736,194.167 220.167 C 194.167 219.597,193.911 219.485,192.417 219.399 L 190.667 219.298 190.667 217.483 L 190.667 215.667 192.500 215.667 C 194.233 215.667,194.333 215.712,194.333 216.500 C 194.333 217.167,194.500 217.333,195.167 217.333 C 195.932 217.333,196.000 217.211,196.000 215.833 L 196.000 214.333 191.833 214.333 C 187.889 214.333,187.667 214.369,187.667 215.000 M198.000 215.000 C 198.000 215.489,198.222 215.667,198.833 215.667 L 199.667 215.667 199.667 220.198 C 199.667 224.449,199.625 224.740,199.000 224.903 C 197.333 225.339,198.260 226.333,200.333 226.333 C 202.111 226.333,202.333 226.259,202.333 225.667 C 202.333 225.222,202.111 225.000,201.667 225.000 C 201.038 225.000,201.000 224.778,201.000 221.124 L 201.000 217.249 203.391 220.374 C 209.451 228.296,209.333 228.281,209.333 221.135 C 209.333 216.218,209.369 215.928,210.000 215.763 C 211.667 215.327,210.740 214.333,208.667 214.333 C 206.889 214.333,206.667 214.407,206.667 215.000 C 206.667 215.444,206.889 215.667,207.333 215.667 C 207.962 215.667,208.000 215.889,208.000 219.567 C 208.000 221.712,207.882 223.324,207.737 223.150 C 207.592 222.976,206.054 220.926,204.320 218.595 L 201.167 214.356 199.583 214.345 C 198.218 214.335,198.000 214.425,198.000 215.000 M82.889 226.222 C 82.410 226.701,82.695 227.625,83.352 227.727 C 83.906 227.813,84.501 229.007,86.436 233.915 L 88.833 239.998 90.000 239.997 L 91.167 239.997 93.487 233.949 C 95.132 229.661,95.980 227.856,96.403 227.745 C 98.281 227.254,97.033 226.000,94.667 226.000 C 92.400 226.000,92.333 226.024,92.333 226.833 C 92.333 227.454,92.509 227.667,93.024 227.667 C 93.843 227.667,93.921 227.299,91.852 233.257 C 90.946 235.868,90.107 237.891,89.988 237.752 C 89.069 236.681,86.410 227.667,87.013 227.667 C 87.488 227.667,87.667 227.439,87.667 226.833 C 87.667 226.008,83.621 225.491,82.889 226.222 M98.667 226.833 C 98.667 227.444,98.844 227.667,99.333 227.667 C 99.972 227.667,100.000 227.889,100.000 233.000 C 100.000 238.111,99.972 238.333,99.333 238.333 C 98.844 238.333,98.667 238.556,98.667 239.167 C 98.667 239.981,98.722 240.000,101.167 240.000 C 103.444 240.000,103.667 239.941,103.667 239.333 C 103.667 238.841,103.444 238.667,102.818 238.667 C 101.983 238.667,101.971 238.631,102.068 236.417 L 102.167 234.167 103.162 234.167 C 103.993 234.167,104.332 234.442,105.217 235.833 C 107.832 239.944,107.888 240.000,109.330 240.000 C 110.534 240.000,110.667 239.917,110.667 239.167 C 110.667 238.552,110.489 238.333,109.992 238.333 C 109.538 238.333,109.019 237.818,108.408 236.761 C 107.909 235.896,107.099 234.771,106.609 234.261 L 105.718 233.333 106.531 233.129 C 108.599 232.610,109.500 228.897,107.917 227.414 C 106.084 225.696,98.667 225.231,98.667 226.833 M112.333 226.833 C 112.333 227.500,112.500 227.667,113.167 227.667 L 114.000 227.667 114.000 233.000 L 114.000 238.333 113.167 238.333 C 112.500 238.333,112.333 238.500,112.333 239.167 L 112.333 240.000 117.167 240.000 L 122.000 240.000 122.000 238.527 C 122.000 237.717,122.091 236.817,122.202 236.527 C 122.360 236.116,122.176 236.000,121.369 236.000 C 120.408 236.000,120.333 236.084,120.333 237.167 L 120.333 238.333 118.167 238.333 L 116.000 238.333 116.000 236.000 L 116.000 233.667 118.000 233.667 C 119.911 233.667,120.000 233.630,120.000 232.833 C 120.000 232.037,119.911 232.000,118.000 232.000 L 116.000 232.000 116.000 229.833 L 116.000 227.667 118.008 227.667 C 119.973 227.667,120.021 227.688,120.217 228.667 C 120.620 230.681,122.000 230.036,122.000 227.833 L 122.000 226.000 117.167 226.000 L 112.333 226.000 112.333 226.833 M124.667 226.795 C 124.667 227.444,124.837 227.667,125.333 227.667 C 125.972 227.667,126.000 227.889,126.000 233.000 C 126.000 238.111,125.972 238.333,125.333 238.333 C 124.836 238.333,124.667 238.556,124.667 239.206 L 124.667 240.079 128.929 239.946 C 135.415 239.744,138.000 237.681,138.000 232.706 C 138.000 227.954,135.713 226.246,129.091 226.052 L 124.667 225.923 124.667 226.795 M139.667 226.833 C 139.667 227.500,139.833 227.667,140.500 227.667 L 141.333 227.667 141.333 233.000 L 141.333 238.333 140.500 238.333 C 139.833 238.333,139.667 238.500,139.667 239.167 L 139.667 240.000 144.500 240.000 C 149.289 240.000,149.333 239.993,149.337 239.250 C 149.339 238.838,149.436 237.925,149.552 237.223 C 149.758 235.972,149.743 235.949,148.798 236.057 C 147.981 236.150,147.817 236.333,147.729 237.250 L 147.624 238.333 145.479 238.333 L 143.333 238.333 143.333 236.000 L 143.333 233.667 145.333 233.667 C 147.244 233.667,147.333 233.630,147.333 232.833 C 147.333 232.037,147.244 232.000,145.333 232.000 L 143.333 232.000 143.333 229.833 L 143.333 227.667 145.500 227.667 L 147.667 227.667 147.667 228.667 C 147.667 229.511,147.796 229.667,148.500 229.667 C 149.288 229.667,149.333 229.567,149.333 227.833 L 149.333 226.000 144.500 226.000 L 139.667 226.000 139.667 226.833 M248.000 226.833 C 248.000 227.444,248.178 227.667,248.667 227.667 C 249.306 227.667,249.333 227.889,249.333 233.000 C 249.333 238.111,249.306 238.333,248.667 238.333 C 248.178 238.333,248.000 238.556,248.000 239.167 C 248.000 239.981,248.056 240.000,250.500 240.000 C 252.778 240.000,253.000 239.941,253.000 239.333 C 253.000 238.896,252.778 238.667,252.353 238.667 C 251.420 238.667,251.311 238.309,251.549 236.034 C 251.893 232.746,253.200 233.214,255.785 237.549 C 257.073 239.709,257.458 240.000,259.027 240.000 C 259.843 240.000,260.000 239.865,260.000 239.167 C 260.000 238.566,259.821 238.333,259.357 238.333 C 258.929 238.333,258.310 237.667,257.502 236.337 C 256.835 235.239,255.966 234.114,255.570 233.837 C 255.002 233.438,254.966 233.333,255.400 233.333 C 257.423 233.333,258.831 230.241,257.784 228.098 C 256.974 226.439,255.761 226.043,251.417 226.019 L 248.000 226.000 248.000 226.833 M261.667 226.833 C 261.667 227.500,261.833 227.667,262.500 227.667 L 263.333 227.667 263.333 233.000 C 263.333 238.111,263.306 238.333,262.667 238.333 C 262.176 238.333,262.000 238.556,262.000 239.176 L 262.000 240.018 266.750 239.926 L 271.500 239.833 271.600 237.917 C 271.697 236.058,271.674 236.000,270.850 236.000 C 270.234 236.000,270.000 236.176,270.000 236.639 C 270.000 238.123,269.685 238.333,267.464 238.333 L 265.333 238.333 265.333 236.000 L 265.333 233.667 267.333 233.667 C 269.244 233.667,269.333 233.630,269.333 232.833 C 269.333 232.037,269.244 232.000,267.333 232.000 L 265.333 232.000 265.333 229.833 L 265.333 227.667 267.500 227.667 L 269.667 227.667 269.667 228.667 C 269.667 229.511,269.796 229.667,270.500 229.667 C 271.288 229.667,271.333 229.567,271.333 227.833 L 271.333 226.000 266.500 226.000 L 261.667 226.000 261.667 226.833 M277.061 226.866 C 270.354 230.208,273.003 240.000,280.614 240.000 C 284.831 240.000,285.000 239.908,285.000 237.603 C 285.000 235.095,283.268 234.614,283.064 237.066 C 282.840 239.760,277.801 238.866,276.353 235.875 C 274.338 231.711,276.569 227.619,280.856 227.619 C 283.057 227.619,283.333 227.775,283.333 229.020 C 283.333 229.848,283.465 230.000,284.184 230.000 C 285.467 230.000,285.301 226.656,284.000 226.297 C 281.939 225.727,278.834 225.982,277.061 226.866 M287.333 226.833 C 287.333 227.500,287.500 227.667,288.167 227.667 L 289.000 227.667 289.000 233.000 L 289.000 238.333 288.167 238.333 C 287.500 238.333,287.333 238.500,287.333 239.167 C 287.333 239.981,287.389 240.000,289.833 240.000 C 292.278 240.000,292.333 239.981,292.333 239.167 C 292.333 238.556,292.156 238.333,291.667 238.333 C 291.063 238.333,291.000 238.111,291.000 235.988 L 291.000 233.643 294.250 233.738 L 297.500 233.833 297.599 236.083 C 297.696 238.298,297.684 238.333,296.849 238.333 C 296.166 238.333,296.000 238.496,296.000 239.167 C 296.000 239.981,296.056 240.000,298.500 240.000 C 300.944 240.000,301.000 239.981,301.000 239.167 C 301.000 238.556,300.822 238.333,300.333 238.333 C 299.694 238.333,299.667 238.111,299.667 233.000 C 299.667 227.889,299.694 227.667,300.333 227.667 C 300.822 227.667,301.000 227.444,301.000 226.833 C 301.000 226.019,300.944 226.000,298.500 226.000 C 296.056 226.000,296.000 226.019,296.000 226.833 C 296.000 227.504,296.166 227.667,296.849 227.667 C 297.684 227.667,297.696 227.702,297.599 229.917 L 297.500 232.167 294.250 232.262 L 291.000 232.357 291.000 230.012 C 291.000 227.889,291.063 227.667,291.667 227.667 C 292.156 227.667,292.333 227.444,292.333 226.833 C 292.333 226.019,292.278 226.000,289.833 226.000 C 287.389 226.000,287.333 226.019,287.333 226.833 M302.889 226.222 C 302.089 227.022,302.686 229.667,303.667 229.667 C 304.556 229.667,304.667 229.556,304.667 228.667 C 304.667 227.689,304.704 227.667,306.333 227.667 L 308.000 227.667 308.000 233.000 C 308.000 238.111,307.972 238.333,307.333 238.333 C 306.844 238.333,306.667 238.556,306.667 239.167 C 306.667 239.981,306.722 240.000,309.167 240.000 C 311.611 240.000,311.667 239.981,311.667 239.167 C 311.667 238.487,311.503 238.333,310.782 238.333 L 309.898 238.333 310.115 234.281 C 310.235 232.052,310.333 229.652,310.333 228.948 L 310.333 227.667 312.000 227.667 C 313.630 227.667,313.667 227.689,313.667 228.667 C 313.667 229.511,313.796 229.667,314.500 229.667 C 315.288 229.667,315.333 229.567,315.333 227.833 L 315.333 226.000 309.222 226.000 C 305.861 226.000,303.011 226.100,302.889 226.222 M106.000 228.333 C 107.614 229.947,106.131 232.333,103.515 232.333 L 102.000 232.333 102.000 230.000 L 102.000 227.667 103.667 227.667 C 104.889 227.667,105.511 227.844,106.000 228.333 M133.313 228.276 C 137.980 230.779,135.933 238.006,130.479 238.281 L 128.000 238.406 128.000 233.036 L 128.000 227.667 130.089 227.667 C 131.475 227.667,132.559 227.872,133.313 228.276 M255.259 228.186 C 257.166 229.521,255.748 232.333,253.167 232.333 L 251.667 232.333 251.667 230.000 L 251.667 227.667 253.092 227.667 C 253.877 227.667,254.852 227.900,255.259 228.186 " stroke="none" fill="#f6f8f5" fillRule="evenodd"></path><path id="path3" d="M274.298 82.179 C 273.333 82.688,272.333 84.033,272.333 84.822 C 272.333 85.421,272.194 85.449,271.412 85.005 C 270.659 84.578,266.364 82.667,266.158 82.667 C 266.071 82.667,266.000 83.946,266.000 85.511 L 266.000 88.354 264.187 90.763 C 260.314 95.909,258.730 100.355,256.323 112.833 C 254.251 123.578,252.384 127.667,249.552 127.667 C 249.065 127.667,248.667 127.817,248.667 128.001 C 248.667 128.395,252.033 130.871,252.406 130.751 C 253.041 130.546,267.037 138.694,266.868 139.171 C 266.802 139.356,261.990 146.304,256.174 154.609 C 250.358 162.915,245.665 169.777,245.747 169.858 C 245.828 169.939,246.855 169.289,248.030 168.414 C 249.205 167.539,250.787 166.405,251.545 165.893 C 252.973 164.929,253.586 164.298,255.822 161.492 C 256.549 160.580,257.224 159.758,257.322 159.667 C 257.420 159.575,258.095 158.750,258.822 157.833 C 259.549 156.917,260.224 156.092,260.322 156.000 C 260.420 155.908,261.098 155.083,261.828 154.167 C 262.558 153.250,263.496 152.127,263.911 151.670 C 264.327 151.214,264.667 150.710,264.667 150.551 C 264.667 149.870,265.486 150.418,273.723 156.615 C 275.025 157.594,276.633 158.699,277.295 159.069 C 277.958 159.439,280.130 160.937,282.122 162.398 L 285.744 165.054 285.593 161.610 C 285.303 155.030,280.979 148.352,273.868 143.500 L 271.914 142.167 276.540 141.766 C 286.939 140.864,292.667 138.178,292.667 134.203 C 292.667 133.214,292.550 133.127,290.867 132.860 C 286.803 132.217,278.539 125.028,275.701 119.667 C 272.297 113.236,273.204 104.494,278.701 90.761 C 279.639 88.417,280.476 86.328,280.560 86.117 C 280.645 85.902,280.151 85.549,279.440 85.315 C 277.621 84.716,275.744 83.395,275.433 82.494 C 275.186 81.777,275.104 81.754,274.298 82.179 M115.524 86.203 C 114.620 86.437,112.561 86.883,110.948 87.195 L 108.015 87.762 107.645 89.640 C 107.288 91.454,107.195 91.577,104.947 93.176 C 103.666 94.088,102.472 95.006,102.294 95.218 C 101.857 95.739,102.291 97.333,102.869 97.333 C 103.378 97.333,103.508 98.186,103.043 98.474 C 102.393 98.875,103.745 102.399,104.479 102.217 C 104.857 102.123,105.809 101.884,106.593 101.686 C 110.868 100.606,114.453 103.995,112.752 107.506 L 112.167 108.714 110.167 108.506 C 109.067 108.391,107.379 108.209,106.417 108.102 C 104.367 107.873,104.295 108.071,105.817 109.760 L 106.952 111.020 106.127 113.383 C 105.161 116.149,105.161 116.149,106.908 115.532 C 111.113 114.049,119.062 113.297,122.083 114.096 L 124.000 114.603 124.050 113.718 C 124.407 107.348,122.827 100.082,119.000 90.500 C 118.122 88.300,117.350 86.338,117.285 86.139 C 117.202 85.885,116.679 85.904,115.524 86.203 M115.919 90.750 C 115.162 91.896,113.827 92.252,112.745 91.595 C 111.006 90.540,111.528 90.202,115.124 90.053 C 116.390 90.001,116.405 90.014,115.919 90.750 M325.716 113.907 C 324.730 115.751,319.990 116.878,311.527 117.282 C 302.353 117.721,298.526 120.731,298.081 127.860 L 297.911 130.579 309.153 139.206 C 324.374 150.888,324.553 150.868,312.613 138.825 C 303.408 129.540,303.092 129.016,304.864 125.988 C 306.274 123.581,306.540 123.512,314.882 123.394 C 327.405 123.216,331.055 125.715,328.818 132.934 C 328.599 133.641,328.655 133.684,329.540 133.479 C 333.128 132.648,335.727 127.135,334.210 123.573 C 333.219 121.248,331.505 120.431,326.905 120.091 C 325.138 119.960,324.749 119.841,325.126 119.545 C 326.629 118.365,327.447 115.072,326.544 113.837 C 326.102 113.232,326.076 113.234,325.716 113.907 M188.333 116.167 C 189.329 117.175,190.219 118.000,190.311 118.000 C 190.402 118.000,189.662 117.175,188.667 116.167 C 187.671 115.158,186.781 114.333,186.689 114.333 C 186.598 114.333,187.338 115.158,188.333 116.167 M123.692 116.417 C 122.025 122.121,110.684 133.640,107.818 132.540 C 107.520 132.426,107.385 132.481,107.502 132.670 C 107.614 132.852,107.409 133.000,107.047 133.000 C 105.131 133.000,104.816 134.226,106.148 136.497 C 108.870 141.143,123.557 143.683,128.635 140.386 C 129.809 139.624,130.859 139.004,130.968 139.010 C 131.077 139.015,136.034 145.990,141.984 154.510 C 147.933 163.029,152.853 170.000,152.917 170.000 C 154.386 170.000,155.000 168.917,155.000 166.325 L 155.000 163.667 157.000 163.667 L 159.000 163.667 159.000 162.216 C 159.000 160.389,157.937 158.718,156.246 157.889 L 155.000 157.278 155.000 154.306 C 155.000 151.051,154.567 150.573,152.763 151.837 C 152.086 152.311,136.923 136.228,137.250 135.382 C 137.296 135.264,139.126 134.184,141.317 132.982 L 145.301 130.798 142.952 130.247 C 139.592 129.458,137.940 128.237,132.585 122.582 C 128.235 117.990,124.991 115.000,124.356 115.000 C 124.218 115.000,123.919 115.638,123.692 116.417 M88.000 140.023 C 81.858 144.770,76.745 148.658,76.637 148.661 C 76.529 148.664,76.272 149.229,76.067 149.917 C 72.959 160.331,83.934 168.233,93.103 162.182 L 94.039 161.564 93.936 168.393 L 93.833 175.221 92.873 176.478 C 91.682 178.038,88.603 179.553,86.037 179.839 C 83.213 180.155,83.239 180.132,84.027 181.643 C 85.699 184.851,86.523 191.698,86.252 200.123 L 86.079 205.500 87.896 208.649 C 89.659 211.707,89.702 211.840,89.356 213.214 C 89.160 213.992,89.000 214.712,89.000 214.814 C 89.000 214.916,90.875 215.000,93.167 215.000 L 97.333 215.000 97.333 213.012 C 97.333 211.380,97.156 210.743,96.345 209.464 C 91.751 202.220,93.110 189.704,99.246 182.744 L 100.500 181.321 103.250 184.479 C 104.763 186.216,106.004 187.756,106.009 187.902 C 106.014 188.047,106.576 188.777,107.259 189.523 C 107.942 190.269,109.234 191.731,110.132 192.773 C 111.030 193.814,111.892 194.667,112.049 194.667 C 112.205 194.667,112.333 190.695,112.333 185.842 L 112.333 177.017 113.417 177.233 C 114.013 177.351,115.609 177.685,116.964 177.974 L 119.428 178.500 127.190 189.562 L 134.952 200.625 134.311 202.312 C 133.847 203.533,133.784 203.996,134.085 203.986 C 135.672 203.934,143.731 203.047,143.868 202.910 C 144.106 202.672,132.129 178.796,131.413 178.080 C 131.025 177.692,127.665 176.770,121.396 175.331 L 111.962 173.167 112.072 165.667 C 112.210 156.313,112.861 154.372,117.715 148.857 L 119.128 147.252 118.147 147.454 C 117.608 147.564,116.117 147.815,114.833 148.011 C 113.550 148.207,109.350 148.878,105.500 149.503 C 101.650 150.127,97.975 150.699,97.333 150.773 C 96.408 150.879,95.546 151.502,93.167 153.782 C 88.079 158.658,84.435 159.370,82.320 155.900 C 80.405 152.761,81.058 151.686,90.656 142.167 C 97.073 135.803,100.803 131.206,99.421 131.362 C 99.281 131.378,94.142 135.275,88.000 140.023 M200.587 132.902 C 201.002 132.982,201.602 132.979,201.921 132.896 C 202.239 132.812,201.900 132.747,201.167 132.751 C 200.433 132.754,200.173 132.823,200.587 132.902 M183.437 137.833 C 183.438 138.933,183.501 139.343,183.575 138.744 C 183.649 138.145,183.648 137.245,183.572 136.744 C 183.495 136.243,183.435 136.733,183.437 137.833 M187.667 148.438 C 187.667 148.495,188.154 148.983,188.750 149.521 L 189.833 150.500 188.854 149.417 C 187.942 148.407,187.667 148.180,187.667 148.438 M301.319 150.417 C 302.137 151.287,302.849 152.000,302.903 152.000 C 303.153 152.000,302.888 151.701,301.417 150.319 L 299.833 148.833 301.319 150.417 M275.884 175.623 L 266.602 177.833 260.265 190.270 C 256.780 197.110,253.994 202.772,254.075 202.852 C 254.295 203.073,263.794 203.983,263.977 203.801 C 264.064 203.714,263.878 202.949,263.564 202.102 C 263.061 200.745,263.050 200.478,263.476 199.864 C 263.741 199.480,264.980 197.720,266.229 195.953 C 267.478 194.185,269.699 191.035,271.164 188.953 C 272.629 186.870,274.314 184.492,274.909 183.667 C 275.504 182.842,276.236 181.727,276.535 181.189 C 277.721 179.061,278.725 178.340,281.007 177.979 C 282.195 177.790,283.729 177.487,284.417 177.305 L 285.667 176.974 285.667 175.154 C 285.667 174.153,285.554 173.351,285.417 173.373 C 285.279 173.394,280.990 174.407,275.884 175.623 M294.659 184.862 C 293.135 186.620,292.030 188.158,292.203 188.279 C 298.753 192.880,297.163 208.871,290.233 208.090 C 286.784 207.701,284.008 210.141,283.223 214.250 L 283.017 215.333 291.758 215.334 L 300.500 215.335 300.391 213.417 C 300.295 211.713,300.414 211.281,301.454 209.553 C 305.860 202.236,305.220 192.630,299.779 184.417 C 297.555 181.059,297.989 181.021,294.659 184.862 M209.450 218.667 C 209.450 220.225,209.507 220.862,209.577 220.083 C 209.648 219.304,209.648 218.029,209.577 217.250 C 209.507 216.471,209.450 217.108,209.450 218.667 M199.455 221.500 C 199.456 223.333,199.512 224.041,199.579 223.072 C 199.647 222.104,199.646 220.604,199.578 219.739 C 199.509 218.874,199.454 219.667,199.455 221.500 M113.802 233.000 C 113.802 236.025,113.853 237.262,113.915 235.750 C 113.976 234.237,113.976 231.762,113.915 230.250 C 113.853 228.737,113.802 229.975,113.802 233.000 M288.795 234.333 C 288.795 236.625,288.848 237.563,288.913 236.417 C 288.979 235.271,288.979 233.396,288.913 232.250 C 288.848 231.104,288.795 232.042,288.795 234.333 M294.167 232.000 L 290.833 232.204 294.064 232.269 C 295.931 232.306,297.381 232.193,297.500 232.000 C 297.613 231.817,297.660 231.696,297.603 231.731 C 297.546 231.767,296.000 231.888,294.167 232.000 M310.116 235.667 C 310.116 237.225,310.174 237.862,310.244 237.083 C 310.314 236.304,310.314 235.029,310.244 234.250 C 310.174 233.471,310.116 234.108,310.116 235.667 M292.595 233.913 C 293.563 233.980,295.063 233.980,295.928 233.911 C 296.793 233.843,296.000 233.788,294.167 233.788 C 292.333 233.789,291.626 233.845,292.595 233.913 M280.083 238.563 C 280.404 238.647,280.929 238.647,281.250 238.563 C 281.571 238.479,281.308 238.411,280.667 238.411 C 280.025 238.411,279.762 238.479,280.083 238.563 M280.083 240.230 C 280.404 240.314,280.929 240.314,281.250 240.230 C 281.571 240.146,281.308 240.077,280.667 240.077 C 280.025 240.077,279.762 240.146,280.083 240.230 " stroke="none" fill="#f3e37b" fillRule="evenodd"></path><path id="path4" d="M170.693 111.307 C 170.679 111.568,170.410 112.093,170.096 112.474 C 169.557 113.127,169.569 113.126,170.302 112.451 C 170.729 112.058,170.998 111.533,170.899 111.285 C 170.753 110.919,170.714 110.923,170.693 111.307 M208.688 134.808 C 208.368 135.193,208.755 135.739,210.756 137.724 C 213.089 140.040,215.186 142.727,215.402 143.677 C 215.456 143.916,215.761 144.385,216.081 144.720 C 218.946 147.721,225.907 169.137,223.583 167.800 C 222.639 167.256,223.641 168.024,225.784 169.485 C 228.642 171.434,228.502 171.663,228.489 165.056 C 228.465 152.299,222.727 141.914,212.333 135.813 C 209.584 134.199,209.266 134.111,208.688 134.808 M191.445 139.419 C 189.931 141.687,189.638 144.375,190.672 146.511 C 191.250 147.704,199.495 154.228,203.201 156.425 C 203.441 156.567,202.677 155.248,201.505 153.495 C 199.341 150.258,196.894 144.707,196.474 142.081 C 196.283 140.887,196.023 140.555,194.466 139.521 C 192.293 138.079,192.339 138.080,191.445 139.419 M175.819 152.690 C 175.698 152.886,175.276 153.177,174.883 153.336 L 174.167 153.624 174.917 153.646 C 175.845 153.672,175.969 155.380,175.137 156.676 C 174.846 157.129,175.069 156.975,175.633 156.333 C 176.781 155.027,176.685 154.975,178.226 157.750 C 178.710 158.621,179.214 159.333,179.345 159.333 C 179.854 159.333,180.404 158.306,180.237 157.668 C 180.000 156.762,179.989 156.759,184.287 158.836 C 187.779 160.524,189.207 161.104,188.017 160.351 C 187.533 160.045,187.881 159.896,189.777 159.596 C 190.112 159.543,187.654 158.225,184.315 156.667 C 180.555 154.912,178.055 153.548,177.750 153.083 C 177.232 152.296,176.193 152.084,175.819 152.690 M170.184 155.448 C 169.273 156.642,169.138 157.173,169.663 157.498 C 169.852 157.615,169.907 157.480,169.793 157.181 C 169.678 156.881,169.970 156.165,170.480 155.497 C 170.968 154.857,171.292 154.333,171.201 154.333 C 171.109 154.333,170.651 154.835,170.184 155.448 M173.101 155.567 C 173.610 155.699,173.636 155.807,173.268 156.278 C 172.879 156.775,172.894 156.785,173.417 156.376 C 174.218 155.748,174.148 155.326,173.250 155.372 C 172.659 155.402,172.627 155.444,173.101 155.567 M199.050 161.083 C 199.102 163.922,199.241 163.594,199.406 160.250 C 199.458 159.195,199.387 158.333,199.250 158.333 C 199.112 158.333,199.022 159.571,199.050 161.083 M172.005 159.230 C 171.996 159.951,172.721 160.089,173.282 159.474 C 173.801 158.905,173.797 158.897,173.225 159.330 C 172.705 159.723,172.572 159.720,172.313 159.312 C 172.123 159.012,172.008 158.981,172.005 159.230 M200.663 161.432 L 200.826 163.833 200.930 161.701 C 200.987 160.527,200.914 159.447,200.767 159.299 C 200.620 159.151,200.573 160.111,200.663 161.432 M193.333 161.167 C 194.158 161.608,194.983 161.970,195.167 161.970 C 195.350 161.970,194.825 161.608,194.000 161.167 C 193.175 160.725,192.350 160.363,192.167 160.363 C 191.983 160.363,192.508 160.725,193.333 161.167 M193.000 163.000 C 193.642 163.351,194.317 163.639,194.500 163.639 C 194.683 163.639,194.308 163.351,193.667 163.000 C 193.025 162.649,192.350 162.361,192.167 162.361 C 191.983 162.361,192.358 162.649,193.000 163.000 M205.408 186.417 L 205.333 192.000 206.767 192.000 C 208.083 192.000,209.000 192.431,209.000 193.048 C 209.000 193.185,208.287 193.353,207.417 193.422 L 205.833 193.547 207.583 193.607 C 208.857 193.650,209.333 193.545,209.333 193.218 C 209.333 192.423,208.147 191.667,206.899 191.667 L 205.683 191.667 205.583 186.250 L 205.482 180.833 205.408 186.417 M203.740 186.583 L 203.667 191.667 201.750 191.672 C 200.696 191.675,199.649 191.794,199.424 191.937 C 199.198 192.080,200.023 192.137,201.257 192.064 C 204.180 191.890,204.034 192.197,203.916 186.474 L 203.814 181.500 203.740 186.583 M201.107 193.568 C 201.695 193.720,201.695 193.741,201.107 194.214 C 200.545 194.667,200.556 194.676,201.250 194.340 C 201.662 194.140,202.000 193.832,202.000 193.655 C 202.000 193.478,201.662 193.351,201.250 193.372 C 200.649 193.403,200.621 193.442,201.107 193.568 M198.000 194.000 L 195.833 194.218 197.897 194.276 C 199.032 194.307,200.053 194.183,200.167 194.000 C 200.280 193.817,200.326 193.693,200.270 193.724 C 200.213 193.756,199.192 193.880,198.000 194.000 M199.112 196.307 C 199.180 197.317,199.669 197.496,200.513 196.819 C 201.148 196.312,201.146 196.307,200.439 196.648 C 199.452 197.125,199.403 197.109,199.219 196.250 C 199.070 195.556,199.062 195.561,199.112 196.307 M187.379 214.948 C 187.348 215.472,187.553 215.787,188.000 215.903 C 188.623 216.066,188.667 216.358,188.667 220.333 C 188.667 224.309,188.623 224.600,188.000 224.763 C 187.553 224.880,187.348 225.195,187.379 225.719 C 187.424 226.499,187.424 226.499,187.569 225.750 C 187.659 225.281,187.954 225.000,188.357 225.000 C 188.962 225.000,189.000 224.722,189.000 220.333 C 189.000 215.945,188.962 215.667,188.357 215.667 C 187.954 215.667,187.659 215.386,187.569 214.917 C 187.424 214.167,187.424 214.168,187.379 214.948 M206.379 214.948 C 206.349 215.467,206.553 215.786,206.986 215.900 C 207.543 216.045,207.656 216.421,207.753 218.452 L 207.868 220.833 207.934 218.250 C 207.994 215.897,207.943 215.667,207.357 215.667 C 206.954 215.667,206.659 215.386,206.569 214.917 C 206.424 214.167,206.424 214.168,206.379 214.948 M210.693 214.892 C 210.679 215.291,210.404 215.686,210.083 215.770 C 209.537 215.913,209.537 215.925,210.094 215.961 C 210.740 216.003,211.165 215.276,210.891 214.594 C 210.797 214.359,210.707 214.493,210.693 214.892 M190.802 216.129 C 190.704 216.383,190.683 217.245,190.754 218.045 C 190.883 219.498,190.884 219.498,190.942 217.767 L 191.000 216.035 192.750 215.912 L 194.500 215.790 192.740 215.728 C 191.502 215.685,190.926 215.804,190.802 216.129 M198.564 215.883 C 199.091 215.997,199.332 216.338,199.428 217.104 C 199.554 218.123,199.558 218.119,199.530 217.000 C 199.504 216.001,199.380 215.825,198.667 215.779 C 197.969 215.733,197.953 215.750,198.564 215.883 M190.730 222.917 L 190.667 225.000 192.583 224.938 L 194.500 224.877 192.766 224.755 L 191.032 224.633 190.912 222.733 L 190.793 220.833 190.730 222.917 M201.103 223.167 C 201.105 224.267,201.167 224.676,201.242 224.077 C 201.316 223.478,201.314 222.578,201.238 222.077 C 201.162 221.576,201.101 222.067,201.103 223.167 M209.448 223.833 C 209.449 225.300,209.507 225.859,209.578 225.075 C 209.648 224.291,209.647 223.091,209.576 222.408 C 209.504 221.725,209.446 222.367,209.448 223.833 M196.084 224.167 C 196.088 224.900,196.156 225.161,196.236 224.746 C 196.315 224.331,196.312 223.731,196.229 223.413 C 196.146 223.094,196.080 223.433,196.084 224.167 M198.222 224.889 C 198.100 225.011,198.000 225.468,198.000 225.904 C 198.000 226.964,202.451 226.970,202.546 225.910 C 202.583 225.497,202.552 225.472,202.442 225.827 C 202.179 226.672,198.333 226.545,198.333 225.691 C 198.333 225.338,198.596 224.980,198.917 224.896 C 199.384 224.774,199.395 224.736,198.972 224.705 C 198.682 224.684,198.344 224.767,198.222 224.889 M280.088 225.906 C 280.595 225.982,281.345 225.980,281.755 225.901 C 282.165 225.822,281.750 225.760,280.833 225.762 C 279.917 225.765,279.581 225.829,280.088 225.906 M87.705 226.727 C 87.677 227.372,87.459 227.660,86.917 227.765 L 86.167 227.909 86.927 227.955 C 87.753 228.004,88.147 227.389,87.900 226.436 C 87.795 226.032,87.731 226.127,87.705 226.727 M149.437 227.833 C 149.438 228.933,149.501 229.343,149.575 228.744 C 149.649 228.145,149.648 227.245,149.572 226.744 C 149.495 226.243,149.435 226.733,149.437 227.833 M271.437 227.833 C 271.438 228.933,271.501 229.343,271.575 228.744 C 271.649 228.145,271.648 227.245,271.572 226.744 C 271.495 226.243,271.435 226.733,271.437 227.833 M284.948 228.166 C 285.087 230.402,283.488 231.142,283.271 228.942 C 283.214 228.361,282.975 227.847,282.742 227.801 C 282.508 227.754,282.470 227.793,282.658 227.886 C 282.846 227.979,283.000 228.568,283.000 229.194 C 283.000 230.274,283.061 230.333,284.167 230.333 L 285.333 230.333 285.333 228.333 C 285.333 227.233,285.221 226.333,285.083 226.333 C 284.946 226.333,284.885 227.158,284.948 228.166 M315.433 228.000 C 315.433 229.008,315.496 229.421,315.572 228.917 C 315.648 228.412,315.648 227.588,315.572 227.083 C 315.496 226.579,315.433 226.992,315.433 228.000 M99.802 233.000 C 99.802 236.025,99.853 237.262,99.915 235.750 C 99.976 234.237,99.976 231.762,99.915 230.250 C 99.853 228.737,99.802 229.975,99.802 233.000 M102.065 229.917 L 102.000 232.333 103.583 232.275 L 105.167 232.217 103.765 232.090 L 102.363 231.963 102.247 229.732 L 102.131 227.500 102.065 229.917 M128.136 233.000 C 128.136 236.025,128.186 237.262,128.248 235.750 C 128.310 234.237,128.310 231.762,128.248 230.250 C 128.186 228.737,128.136 229.975,128.136 233.000 M141.136 233.000 C 141.136 236.025,141.186 237.262,141.248 235.750 C 141.310 234.237,141.310 231.762,141.248 230.250 C 141.186 228.737,141.136 229.975,141.136 233.000 M143.398 229.750 L 143.333 232.000 145.417 231.937 L 147.500 231.874 145.599 231.754 L 143.698 231.634 143.580 229.567 L 143.462 227.500 143.398 229.750 M147.411 228.667 C 147.411 229.308,147.479 229.571,147.563 229.250 C 147.647 228.929,147.647 228.404,147.563 228.083 C 147.479 227.762,147.411 228.025,147.411 228.667 M263.136 233.000 C 263.136 236.025,263.186 237.262,263.248 235.750 C 263.310 234.237,263.310 231.762,263.248 230.250 C 263.186 228.737,263.136 229.975,263.136 233.000 M288.757 229.000 C 288.757 229.825,288.822 230.162,288.902 229.750 C 288.981 229.338,288.981 228.662,288.902 228.250 C 288.822 227.838,288.757 228.175,288.757 229.000 M297.440 229.667 C 297.440 230.858,297.501 231.346,297.574 230.750 C 297.648 230.154,297.648 229.179,297.574 228.583 C 297.501 227.987,297.440 228.475,297.440 229.667 M299.773 229.667 C 299.773 230.858,299.834 231.346,299.908 230.750 C 299.982 230.154,299.982 229.179,299.908 228.583 C 299.834 227.987,299.773 228.475,299.773 229.667 M307.802 233.000 C 307.802 236.025,307.853 237.262,307.915 235.750 C 307.976 234.237,307.976 231.762,307.915 230.250 C 307.853 228.737,307.802 229.975,307.802 233.000 M265.392 230.417 L 265.333 232.000 267.311 232.000 C 269.163 232.000,269.298 232.054,269.435 232.837 C 269.569 233.604,269.578 233.597,269.541 232.754 C 269.502 231.874,269.417 231.829,267.602 231.734 L 265.703 231.634 265.577 230.234 L 265.450 228.833 265.392 230.417 M138.091 232.667 C 138.091 233.492,138.156 233.829,138.235 233.417 C 138.315 233.004,138.315 232.329,138.235 231.917 C 138.156 231.504,138.091 231.842,138.091 232.667 M116.917 231.908 C 117.513 231.982,118.487 231.982,119.083 231.908 C 119.679 231.834,119.192 231.773,118.000 231.773 C 116.808 231.773,116.321 231.834,116.917 231.908 M275.757 233.000 C 275.757 233.825,275.822 234.162,275.902 233.750 C 275.981 233.338,275.981 232.662,275.902 232.250 C 275.822 231.838,275.757 232.175,275.757 233.000 M252.250 232.235 C 252.662 232.315,253.338 232.315,253.750 232.235 C 254.162 232.156,253.825 232.091,253.000 232.091 C 252.175 232.091,251.838 232.156,252.250 232.235 M125.783 235.667 C 125.783 237.225,125.841 237.862,125.911 237.083 C 125.981 236.304,125.981 235.029,125.911 234.250 C 125.841 233.471,125.783 234.108,125.783 235.667 M265.445 236.000 C 265.445 237.375,265.504 237.938,265.576 237.250 C 265.648 236.563,265.648 235.438,265.576 234.750 C 265.504 234.063,265.445 234.625,265.445 236.000 M102.137 234.456 C 101.643 235.744,102.161 238.499,102.917 238.607 C 103.399 238.675,103.667 238.943,103.667 239.357 C 103.667 240.564,98.757 240.301,98.572 239.083 C 98.444 238.241,98.429 238.255,98.383 239.263 L 98.333 240.360 101.083 240.263 C 103.769 240.169,103.833 240.147,103.833 239.333 C 103.833 238.723,103.633 238.472,103.083 238.393 C 102.403 238.297,102.333 238.106,102.333 236.333 C 102.333 234.572,102.407 234.365,103.083 234.235 L 103.833 234.091 103.073 234.045 C 102.655 234.020,102.234 234.205,102.137 234.456 M297.440 236.000 C 297.440 237.192,297.501 237.679,297.574 237.083 C 297.648 236.487,297.648 235.512,297.574 234.917 C 297.501 234.321,297.440 234.808,297.440 236.000 M122.077 239.000 C 122.077 239.642,122.146 239.904,122.230 239.583 C 122.314 239.262,122.314 238.737,122.230 238.417 C 122.146 238.096,122.077 238.358,122.077 239.000 M247.801 239.333 C 247.832 240.144,247.908 240.169,250.583 240.263 L 253.333 240.360 253.333 239.347 C 253.333 238.452,253.226 238.339,252.417 238.379 C 251.631 238.418,251.607 238.445,252.250 238.569 C 252.719 238.659,253.000 238.954,253.000 239.357 C 253.000 240.425,248.103 240.323,247.907 239.250 C 247.787 238.597,247.773 238.608,247.801 239.333 M260.039 239.061 C 260.008 239.769,259.808 239.985,259.083 240.095 L 258.167 240.233 259.094 240.283 C 260.080 240.337,260.496 239.784,260.234 238.769 C 260.129 238.366,260.065 238.462,260.039 239.061 " stroke="none" fill="#7f8055" fillRule="evenodd"></path></g></svg>