<svg viewBox="0 0 147 40" fill="none" xmlns="http://www.w3.org/2000/svg" class="_2nkF2">
  <g clip-path="url(#a)">
    <path fill-rule="evenodd" clip-rule="evenodd" d="M47.771 33.71H37.106v6.004h10.665c7.757 0 10.616-.594 10.616-.594v-6.075s-2.887.664-10.616.664Z" fill="#1D6B35" />
    <path fill-rule="evenodd" clip-rule="evenodd" d="m23.278 32.19 1.939 4.582a390.803 390.803 0 0 1 10.965.031v-4.188l8.947-1.168s-1.243-.216-4.623-.466c-3.38-.249-8.233-.158-8.233-.158s-1.948.66-2.699.792c-.75-.132-2.697-.792-2.697-.792s-4.818-.09-8.197.158c-3.375.249-5.623.607-5.636.61l10.234.599Z" fill="#1D6B35" />
    <path fill-rule="evenodd" clip-rule="evenodd" d="m22.844 32.767.016 4.039c.778-.014 1.564-.025 2.356-.034l-1.938-4.582-10.234-.6v1.156c6.91-.017 9.8.021 9.8.021Z" fill="#155429" />
    <path fill-rule="evenodd" clip-rule="evenodd" d="M21.919 33.71H11.376c-7.728 0-10.615-.665-10.615-.665v6.075s2.86.594 10.616.594h10.542v-6.005Z" fill="#1D6B35" />
    <path fill-rule="evenodd" clip-rule="evenodd" d="M1.706 33.205c-.651-.092-.945-.16-.945-.16v6.075s1.03.214 3.531.385c-1.659-1.888-2.46-4.228-2.586-6.3Z" fill="#155429" />
    <path fill-rule="evenodd" clip-rule="evenodd" d="M4.3 35.16h1.133v.358h-.307l.723 2.02c.03.083.047.179.069.266h.008c.022-.087.04-.183.07-.266l.709-2.02h-.35v-.357h1.107v.357H7.19L6.15 38.214h-.536l-1.051-2.696H4.3v-.357ZM8.922 36.53c.342 0 .58-.183.58-.51 0-.319-.195-.502-.545-.502h-.402l-.009 1.012h.376ZM7.75 37.856h.298l.018-2.338H7.75v-.357h1.345c.623 0 .917.362.917.806 0 .528-.337.768-.722.808v.008c.169.013.281.157.385.331l.329.559c.086.144.168.183.268.183h.113v.358h-.282c-.255 0-.372-.026-.549-.323l-.415-.711c-.126-.218-.19-.266-.333-.266h-.26l-.009.942h.35v.358H7.75v-.358ZM10.756 37.856h.303l.017-2.338h-.35v-.357h2.128l.018.802h-.403l-.026-.445h-.878l-.008.942h.865v.384h-.865l-.01 1.012h.922l.035-.497h.407l-.035.855h-2.12v-.358ZM14.675 37.856c.74 0 1.155-.454 1.155-1.217 0-.685-.39-1.12-1.133-1.12h-.49l-.017 2.337h.485Zm-1.276 0h.307l.017-2.338H13.4v-.357h1.436c.973 0 1.531.571 1.531 1.456 0 .903-.566 1.597-1.535 1.597h-1.432v-.358ZM16.708 37.856h.303l.017-2.338h-.35v-.357h2.128l.017.802h-.402l-.026-.445h-.878l-.009.942h.866v.384h-.866l-.008 1.012h.921l.035-.497h.406l-.034.855h-2.12v-.358ZM41.38 36.53c.342 0 .58-.183.58-.51 0-.319-.194-.502-.545-.502h-.402l-.009 1.012h.377Zm-1.172 1.326h.299l.017-2.338h-.316v-.357h1.346c.623 0 .917.362.917.806 0 .528-.338.768-.722.808v.008c.168.013.28.157.384.331l.33.559c.086.144.168.183.267.183h.113v.358h-.281c-.255 0-.372-.026-.55-.323l-.415-.711c-.126-.218-.19-.266-.333-.266h-.26l-.008.942h.35v.358H40.21v-.358ZM43.215 37.856h.303l.017-2.338h-.35v-.357h2.128l.017.802h-.402l-.026-.445h-.878l-.009.942h.865v.384h-.865l-.009 1.012h.922l.035-.497h.406l-.035.855h-2.12v-.358ZM47.865 36.055v-.489a1.88 1.88 0 0 0-.515-.074c-.723 0-1.099.445-1.099 1.208 0 .694.415 1.182 1.034 1.182.208 0 .428-.022.54-.043l.018-.55h.433l-.018.833a3.361 3.361 0 0 1-.943.144c-1.085 0-1.6-.68-1.6-1.548 0-.951.631-1.61 1.64-1.61.38 0 .739.083.942.166v.78h-.432ZM50.659 37.856h.303l.008-.981h-1.405l-.01.981h.325v.358h-1.116v-.358h.303l.017-2.338h-.32v-.357h1.116v.357h-.307l-.008.973h1.405l.009-.973h-.32v-.357h1.116v.357h-.307l-.018 2.338h.325v.358h-1.116v-.358ZM52.922 37.856h.312l.017-2.338h-.705l-.018.445h-.432l.017-.802h2.747l.017.802h-.432l-.018-.445h-.692l-.017 2.338h.35v.358h-1.146v-.358Z" fill="#fff" />
    <path fill-rule="evenodd" clip-rule="evenodd" d="M23.405 4.963c.131-.088.31-.149.504-.173.058-.007.115-.01.173-.01.365 0 .629.146.656.364.031.256-.279.49-.72.545a1.41 1.41 0 0 1-.173.011c-.366 0-.63-.146-.656-.365-.016-.135.06-.267.216-.372Zm3.334-.48.91.442-.886.49-.91-.442.886-.49Zm2.8-.085c.478 0 .838.208.838.483 0 .276-.36.483-.838.483-.479 0-.84-.207-.84-.483 0-.275.361-.483.84-.483Zm2.8.085.886.49-.91.443-.887-.49.91-.443Zm2 .66c.027-.217.291-.364.657-.364.057 0 .115.004.173.01.194.025.372.086.503.174.156.105.233.237.216.372-.026.218-.29.365-.655.365-.057 0-.116-.004-.174-.01-.441-.055-.75-.29-.72-.546Zm-4.612 1.193c2.892 0 5.073.143 6.523.284l.329-2.656c-1.418-.126-4.085-.442-6.985-.442-2.927 0-5.675.32-7.119.446l.343 2.692c1.437-.154 3.747-.324 6.909-.324ZM30.389 1.631c-.387 0-.701.317-.701.707 0 .306.193.566.463.665l.69-1.205a.695.695 0 0 0-.452-.167Zm-8.046.478c-.387 0-.7.317-.7.707 0 .39.313.706.7.706a.704.704 0 0 0 .7-.706.704.704 0 0 0-.7-.707Zm1.61-.12a.704.704 0 0 0-.701.707c0 .39.314.707.7.707.388 0 .701-.317.701-.707a.704.704 0 0 0-.7-.706Zm1.608-.119c-.386 0-.7.317-.7.707 0 .39.314.707.7.707a.704.704 0 0 0 .702-.707.704.704 0 0 0-.702-.707Zm1.61-.119c-.388 0-.701.316-.701.707 0 .39.313.706.7.706.388 0 .701-.316.701-.706a.704.704 0 0 0-.7-.707Zm1.608-.12c-.386 0-.7.317-.7.707 0 .39.314.706.7.706a.704.704 0 0 0 .701-.706.704.704 0 0 0-.7-.707Zm-5.972-.39a.704.704 0 0 0-.701-.707c-.387 0-.7.317-.7.707 0 .39.313.707.7.707a.704.704 0 0 0 .701-.707Zm7.478-.478a.704.704 0 0 0-.701-.707c-.387 0-.701.317-.701.707 0 .39.314.707.7.707.388 0 .702-.316.702-.707Z" fill="#E2C029" />
    <path fill-rule="evenodd" clip-rule="evenodd" d="m30.84 1.798-.69 1.205a.704.704 0 0 0 .939-.665.707.707 0 0 0-.248-.54Zm1.158-.047c-.387 0-.701.316-.701.707 0 .39.314.706.7.706a.703.703 0 0 0 .702-.706.704.704 0 0 0-.701-.707Zm1.609.12c-.387 0-.701.316-.701.706 0 .39.314.707.7.707.388 0 .702-.317.702-.707a.703.703 0 0 0-.701-.707Zm1.61.119c-.388 0-.701.316-.701.706 0 .39.313.707.7.707.387 0 .7-.317.7-.707a.704.704 0 0 0-.7-.706Zm1.608.12c-.387 0-.7.316-.7.706 0 .39.313.706.7.706.388 0 .7-.316.7-.706a.703.703 0 0 0-.7-.707Zm.237-1.576c-.387 0-.7.317-.7.707 0 .39.313.707.7.707a.704.704 0 0 0 .701-.707.704.704 0 0 0-.701-.707ZM32.338 4.483l.886.49-.91.442-.886-.49.91-.442Zm2.002.661c.026-.218.29-.365.656-.365.057 0 .115.004.173.01.194.025.372.086.503.174.156.105.233.237.216.372-.026.218-.29.365-.655.365a1.43 1.43 0 0 1-.174-.01c-.441-.055-.75-.29-.72-.546Zm-4.801.22c-.284 0-.526-.073-.676-.19L28.17 6.35a84.69 84.69 0 0 1 1.557-.014c2.893 0 5.073.143 6.523.284l.33-2.656c-1.38-.123-3.939-.424-6.745-.44l-.526.891a1.55 1.55 0 0 1 .23-.017c.478 0 .839.208.839.483s-.361.483-.84.483Z" fill="#D2AD15" />
    <path fill-rule="evenodd" clip-rule="evenodd" d="M36.181 32.615v.152h9.96V31.59s-.365-.058-1.013-.143l-8.947 1.168ZM57.742 39.224c.443-.07.646-.104.646-.104v-6.075s-.712.164-2.373.329c1.128 1.385 1.578 3.642 1.727 5.85Z" fill="#155429" />
    <path fill-rule="evenodd" clip-rule="evenodd" d="M27.108 34.922h.262l.015-2.024h-.303v-.31h1.842l.015.695h-.348l-.023-.385h-.76l-.007.816h.749v.332h-.75l-.007.876h.798l.03-.43h.352l-.03.739h-1.835v-.31ZM29.411 34.922h.255l.015-2.024h-.33v-.31h.689l1.213 1.597c.079.106.19.28.262.397h.008l-.015-1.684h-.292v-.31h.913v.31h-.254l-.015 2.333h-.341l-1.31-1.714a1.956 1.956 0 0 1-.184-.279l-.008.008.015 1.675h.289v.31h-.91v-.31Z" fill="#fff" />
    <path fill-rule="evenodd" clip-rule="evenodd" d="M48.53 27.51v-.004.003Z" fill="url(#b)" />
    <path fill-rule="evenodd" clip-rule="evenodd" d="M57.665 14.759c0-1.364-1.822-.933-2.822-.933s-.928-1.29-.928-1.29h1.902c1.52 0 2.49.935 1.848 2.223Z" fill="#D2AD15" />
    <path fill-rule="evenodd" clip-rule="evenodd" d="M51.76 11.967c.444-.444.905-.688 1.56-.688 1.454 0 3.557-.093 3.85-.856.256.268.232.808-.39 1.428 1.638 0 1.926.372 2.091.72.427.9-.314 2.188-1.206 2.188.642-1.288-.33-2.224-1.848-2.224H53.32c-.223 0-.467.117-.67.32a1.107 1.107 0 0 0 0 1.564l3.014 3.012c.19.19.328.406.44.636l-4.96-3.8a2.366 2.366 0 0 1 .616-2.3Z" fill="#EFD544" />
    <path fill-rule="evenodd" clip-rule="evenodd" d="M48.207 9.017a1.652 1.652 0 0 1-.048-.256c.437-.513 1.167-.715 2.153-.299 1.242.523 2.373-.383 2.373-.383-.854 1.634-2.04 1.104-3.067.782-.561-.176-1.088-.003-1.411.156ZM42.982 15.164a58.496 58.496 0 0 0-1.904-1.042l.4 1.735s-1.19 1.937-1.828 2.988c.014.007.028.012.042.02l3.296-3.697a.422.422 0 0 1-.006-.004Z" fill="#B98F16" />
    <path fill-rule="evenodd" clip-rule="evenodd" d="M48.687 12.424c0-1.27-.858-1.792-1.242-1.962-.57-.023-1.156.03-1.66.235.165 1.503 2.325 3.511 3.622 3.955l.03.01c-.619-.479.412-2.238-.75-2.238Z" fill="#D2AD15" />
    <path fill-rule="evenodd" clip-rule="evenodd" d="M44.299 15.944a46.274 46.274 0 0 0-1.31-.776h-.001l-3.297 3.696a1.289 1.289 0 0 0-.609-.158V20h.002c-.556.122-.927.583-.927 1.293h.928v1.155a.73.73 0 0 0 .512.23l4.707-6.732c-.002 0-.006-.002-.005-.003Z" fill="#E2C029" />
    <path fill-rule="evenodd" clip-rule="evenodd" d="M49.148 15.9c-1.285.804-3.845.69-3.848.688a.1.1 0 0 0-.004-.003c-.003.001.723.445 1.474 1.168l5.042.803-2.664-2.657ZM54.654 24.972c-.583 0-2.344-.233-2.344-1.525v-2.676l-1.345 2.192-.017 2.22c2.172 2.49 1.628 5.33.637 6.474v.859a105.8 105.8 0 0 0 1.802-.048l-.151-.645.805-1.395s-.352-4.492.614-5.456Z" fill="#D2AD15" />
    <path fill-rule="evenodd" clip-rule="evenodd" d="m44.305 15.947-4.708 6.732h.02c.079 0 1.665-1.177 1.665-1.177l4.019-4.914c-.316-.214-.654-.43-.996-.64Z" fill="#EFD544" />
    <path fill-rule="evenodd" clip-rule="evenodd" d="M45.785 10.697c-1.74.9-2.537 3.497-4.708 3.425.003.001 2.468 1.277 4.224 2.466.003.002 4.564.206 4.564-1.846-1.158 0-3.894-2.346-4.08-4.045Z" fill="#F6E477" />
    <path fill-rule="evenodd" clip-rule="evenodd" d="M41.407 12.575c.378-.975.516-2.56.929-4.135l-1.974-1.255-.474-.82h-2.216l-.412.713c.856.082 1.403.144 1.42.146l.387.049v3.093l2.34 2.209Z" fill="#E2C029" />
    <path fill-rule="evenodd" clip-rule="evenodd" d="M44.082 5.04V3.712l1.366.601c-.012-.07-.04-.442.603-.8-.028.4.555.695 1.23.901-.7 1.624-1.733 4.11-1.495 6.283-1.74.9-2.538 3.497-4.709 3.425 0 0-.554-.264-.74-.586 2.06 0 .944-5.696 3.745-8.496ZM49.732 26.575c.67.672 1.072 1.45 1.072 2.202 0 1.695-1.15 2.312-1.15 2.312-1.362-.436-1.744.946-1.839 1.449h1.506c.745 0 1.557-.007 2.264-.02v-.861c.99-1.144 1.535-3.984-.637-6.474l-1.216 1.392ZM48.401 24.208v-1.002.191l-4.224.983-2.797 5.503a85.58 85.58 0 0 1 2.245.211l-.269-.712 3.41-4.86 1.635-.314Z" fill="#EFD544" />
    <path fill-rule="evenodd" clip-rule="evenodd" d="M42.205 24.838c-.315 2.749-2.12 3.62-2.12 3.62s-.344-.085-.7-.085c-.794 0-1.182 1.311-1.182 1.311.418.02.857.044 1.296.072a57.256 57.256 0 0 1 1.88.13l2.798-5.506-1.972.459Z" fill="#E2C029" />
    <path fill-rule="evenodd" clip-rule="evenodd" d="m48.398 21.683-1.816-1.33-5.064 4.19s.263.366.687.296l6.195-1.442-.002-1.714Z" fill="#D2AD15" />
    <path fill-rule="evenodd" clip-rule="evenodd" d="m45.3 16.588-1.444 1.767 4.542 3.328v-.86c0-.286-.049-.567-.134-.838-.264-.875-.886-1.646-1.494-2.232-.727-.7-1.428-1.137-1.47-1.165Z" fill="#EFD544" />
    <path fill-rule="evenodd" clip-rule="evenodd" d="M48.022 5.756c-.306.01-.561-.188-.57-.442a.402.402 0 0 1 .008-.085c.377.024.766.075 1.091.126-.037.218-.257.391-.53.4Zm2.578.752-1.17-.87-.199-.833s-1.055-.117-1.95-.39c-.7 1.623-1.733 4.108-1.495 6.282 1.609-.655 4.07.239 4.07.239l-.387-1.04.565-.654-1.677.194c-.495-1.112-.081-1.66.997-1.66.45 0 .799.218.799.218l.233-.759-.202-.376.285.026.13-.377Z" fill="#E2C029" />
    <path fill-rule="evenodd" clip-rule="evenodd" d="M10.738 27.505v-.003.003Z" fill="url(#c)" />
    <path fill-rule="evenodd" clip-rule="evenodd" d="M1.4 14.756c0-1.364 1.813-.933 2.807-.933.995 0 .924-1.29.924-1.29H3.238c-1.511 0-2.478.935-1.839 2.223Z" fill="#D2AD15" />
    <path fill-rule="evenodd" clip-rule="evenodd" d="M7.275 11.964c-.442-.444-.9-.688-1.552-.688-1.447 0-3.54-.093-3.832-.856-.254.268-.23.808.388 1.428-1.629 0-1.916.373-2.08.72-.425.9.312 2.188 1.2 2.188-.639-1.288.328-2.223 1.839-2.223h2.485c.222 0 .465.116.667.32a1.11 1.11 0 0 1 0 1.563l-3 3.012c-.189.19-.326.406-.437.636l4.934-3.8a2.374 2.374 0 0 0-.612-2.3Z" fill="#E2C029" />
    <path fill-rule="evenodd" clip-rule="evenodd" d="M10.81 9.014c.024-.09.04-.175.048-.256-.435-.513-1.161-.715-2.143-.299-1.235.524-2.36-.383-2.36-.383.849 1.635 2.028 1.105 3.051.782.559-.176 1.083-.003 1.404.156Z" fill="#B98F16" />
    <path fill-rule="evenodd" clip-rule="evenodd" d="M16.01 15.162a57.698 57.698 0 0 1 1.895-1.043l-.4 1.735s1.186 1.937 1.82 2.988c-.013.007-.028.012-.041.02l-3.28-3.697.005-.003Z" fill="#E2C029" />
    <path fill-rule="evenodd" clip-rule="evenodd" d="M11.569 10.46c-.382.17-1.236.69-1.236 1.961-1.157 0-.13 1.76-.748 2.238l.03-.01c1.292-.444 3.441-2.452 3.604-3.954-.5-.206-1.084-.259-1.65-.236Z" fill="#D2AD15" />
    <path fill-rule="evenodd" clip-rule="evenodd" d="M14.699 15.941c.44-.273.888-.537 1.304-.776l3.28 3.696c.183-.097.386-.158.607-.158v1.295h-.002c.553.123.923.583.923 1.293h-.924v1.156a.726.726 0 0 1-.51.23l-4.684-6.733c.002 0 .007-.001.006-.003Z" fill="#EFD544" />
    <path fill-rule="evenodd" clip-rule="evenodd" d="M9.874 15.896c1.278.806 3.826.69 3.829.69 0-.002.002-.003.004-.004.002.002-.72.445-1.467 1.168l-5.017.803 2.651-2.657Z" fill="#E2C029" />
    <path fill-rule="evenodd" clip-rule="evenodd" d="M4.395 24.969c.58 0 2.332-.232 2.332-1.524v-2.677l1.338 2.192.018 2.22c-2.161 2.49-1.62 5.33-.634 6.474v.86c-.613-.013-1.216-.027-1.794-.048l.151-.646-.8-1.395s.35-4.491-.611-5.456Z" fill="#F6E477" />
    <path fill-rule="evenodd" clip-rule="evenodd" d="M7.45 32.515c.703.013 1.51.02 2.252.02H11.2c-.094-.502-.474-1.885-1.83-1.449 0 0-1.143-.616-1.143-2.312 0-.754.396-1.53 1.066-2.202l-1.21-1.392c-2.161 2.49-1.62 5.33-.634 6.474v.861Z" fill="#E2C029" />
    <path fill-rule="evenodd" clip-rule="evenodd" d="m14.693 15.944 4.685 6.732-.02.001c-.079 0-1.657-1.178-1.657-1.178l-3.999-4.914c.314-.213.65-.43.991-.64Z" fill="#D2AD15" />
    <path fill-rule="evenodd" clip-rule="evenodd" d="M9.16 14.74c0 2.052 4.539 1.847 4.542 1.845 1.748-1.188 4.2-2.465 4.203-2.466-2.16.073-2.954-2.525-4.685-3.425-.185 1.699-2.908 4.045-4.06 4.045Z" fill="#F6E477" />
    <path fill-rule="evenodd" clip-rule="evenodd" d="M17.576 12.572c-.375-.975-.512-2.56-.924-4.135l1.964-1.254.472-.821h2.206l.41.713c-.852.082-1.397.145-1.414.146l-.385.05v3.093l-2.329 2.208Z" fill="#D2AD15" />
    <path fill-rule="evenodd" clip-rule="evenodd" d="M14.915 5.037V3.71l-1.36.601c.013-.07.041-.442-.599-.8.028.401-.553.696-1.224.901.696 1.624 1.724 4.11 1.488 6.284 1.731.898 2.525 3.497 4.685 3.424 0 0 .552-.263.736-.586-2.048 0-.938-5.696-3.726-8.496Z" fill="#E2C029" />
    <path fill-rule="evenodd" clip-rule="evenodd" d="M3.402 20.768a2.33 2.33 0 0 0 1.663.692 2.33 2.33 0 0 0 1.662-.692l1.339 2.192.017 2.22 2.53 2.911.008-7.27c0-.287.048-.567.132-.839.263-.875.882-1.646 1.487-2.232l-5.018.803-1.028 1.015s-1.105 1.119-1.907.312a1.11 1.11 0 0 1 0-1.563l2.999-3.012c.298-.3.497-.66.601-1.041l-4.934 3.8a2.372 2.372 0 0 0 .449 2.704Zm8.838-3.018Z" fill="#EFD544" />
    <path fill-rule="evenodd" clip-rule="evenodd" d="M10.617 24.206v-1.003.192l4.203.982 2.783 5.503c-.835.068-1.584.141-2.234.212l.268-.713-3.392-4.86-1.628-.313Z" fill="#F6E477" />
    <path fill-rule="evenodd" clip-rule="evenodd" d="M16.783 24.836c.313 2.748 2.108 3.62 2.108 3.62s.343-.086.698-.086c.79 0 1.176 1.312 1.176 1.312-.417.019-.853.044-1.29.07a56.63 56.63 0 0 0-1.87.13l-2.785-5.505 1.963.459Z" fill="#D2AD15" />
    <path fill-rule="evenodd" clip-rule="evenodd" d="m10.62 21.68 1.807-1.33 5.04 4.19s-.263.367-.684.296l-6.165-1.441.002-1.715Z" fill="#E2C029" />
    <path fill-rule="evenodd" clip-rule="evenodd" d="m13.702 16.585 1.438 1.767-4.52 3.328v-.86c0-.286.049-.566.133-.838.263-.875.882-1.646 1.486-2.232.724-.7 1.422-1.137 1.463-1.165Z" fill="#B98F16" />
    <path fill-rule="evenodd" clip-rule="evenodd" d="M10.995 5.753c-.272-.01-.49-.183-.528-.4a11.86 11.86 0 0 1 1.087-.126.418.418 0 0 1 .007.084c-.008.254-.262.452-.566.442Zm.737-1.342c-.89.274-1.94.391-1.94.391l-.198.832-1.164.872.129.377.284-.027-.201.376.232.76s.347-.218.795-.218c1.073 0 1.485.547.992 1.66l-1.668-.195.562.654-.385 1.04s2.448-.894 4.05-.239c.236-2.174-.792-4.659-1.488-6.283Z" fill="#EFD544" />
    <path fill-rule="evenodd" clip-rule="evenodd" d="M38.122 23.846c0 4.877-8.656 6.605-8.656 6.605s-8.655-1.728-8.655-6.605V8.104s2.928-.559 8.655-.559c5.727 0 8.656.559 8.656.559v15.742Z" fill="#D2AD15" />
    <path fill-rule="evenodd" clip-rule="evenodd" d="M29.466 30.451s8.656-1.727 8.656-6.605V8.104s-2.928-.558-8.656-.558c-1.349 0-2.543.03-3.58.078 7.816.313 10.939 1.375 10.939 1.375s.007 10.98.007 15.004c0 4.024-7.366 6.448-7.366 6.448Z" fill="#B98F16" />
    <path fill-rule="evenodd" clip-rule="evenodd" d="m31.214 17.076-.663-.082-.205.274-1.547-.99c.155.782.58 2.272 1.669 3.54l2.085 1.516c-.047-2.558-.91-3.968-1.134-4.532l-.205.274Z" fill="#4B4B4B" />
    <path fill-rule="evenodd" clip-rule="evenodd" d="M28.047 18.061c-.812-.581-.546-1.731-.013-2.272l2.313 1.48.204-.275.663.082.205-.274 1.71.295c-.32-.513-.851-1.339-1.659-1.892l.205-.274c-.413-.195-1.357-.35-2.448-.35h-1.664l1.176-3.368c.313-.906-.245-1.631-.85-1.698-.917-.102-1.296.888-1.296.888l1.005 1.028c.023.006-1.296 3.094-1.296 3.094a3.234 3.234 0 0 0-.226 1.196c-.005.865.388 1.747 1.19 2.53.68.663 3.624 2.982 3.624 2.982l.237-.316 1.427.417s-4.281-3.11-4.508-3.273Z" fill="#fff" />
    <path fill-rule="evenodd" clip-rule="evenodd" d="m28.799 16.277-.765-.489c-.533.542-.799 1.692.012 2.273.247.177 1.294.936 2.422 1.756-1.089-1.267-1.513-2.757-1.67-3.54Z" fill="#636363" />
    <path fill-rule="evenodd" clip-rule="evenodd" d="m33.129 17.097-1.71-.295c.224.564 1.087 1.973 1.135 4.532l1.164.847.337-.451.885.614a10.741 10.741 0 0 0-.201-1.154c-.384-1.806-1.018-3.166-1.61-4.093Z" fill="#000" />
    <path fill-rule="evenodd" clip-rule="evenodd" d="M31.63 27.657c-.037-.096-.108-.187-.243-.187h-.497v-2.362l-.407.186v2.168h-.755c-.088 0-.257.125-.315.125h-.337c-.136 0-.207.091-.244.188l-.025.074-.014.094c-.003.03-.003.05-.003.05h.814l.167-.125h.34l-.53.327c-.116.072-.13.187-.113.289l.017.078.035.085a.862.862 0 0 0 .023.046l1.379-.818h.75s0-.02-.003-.05l-.023-.098-.016-.07Z" fill="#4B4B4B" />
    <path fill-rule="evenodd" clip-rule="evenodd" d="m24.48 18.897-.076.103.045.67.128-.172.091.01.526.918.018-.011.066-.054.057-.051c.076-.083.14-.203.063-.338l-.096-.168 1.555.742.636-.151-2.548-1.213c-.057-.097-.134-.245-.134-.245-.046-.07-.214-.097-.33-.04Z" fill="#636363" />
    <path fill-rule="evenodd" clip-rule="evenodd" d="m27.598 11.431-1.005-1.028-4.33 1.028h5.335Z" fill="#000" />
    <path fill-rule="evenodd" clip-rule="evenodd" d="m24.321 19.112-.828.107s-.247.318-.374.488c-.08.11-.052.222.002.31l.05.066.059.067c.021.02.037.032.037.032l.422-.57.341-.048-.398.538c-.08.11-.051.222.002.31l.054.07.055.062.038.033.669-.907-.046-.67-.083.112ZM29.904 20.45l-.406-.327v1.189l-.06.007-1.944-.924-.636.15 2.424 1.156.248.322.399-.057.15-.38-.175-.226v-.91Z" fill="#4B4B4B" />
    <path fill-rule="evenodd" clip-rule="evenodd" d="M28.166 10.4s-.463.208-.577.208c-.112 0-.218-.094-.218-.208 0-.115.106-.209.218-.209.114 0 .577.209.577.209ZM23.42 12.98c-.29-.516.05-.832.29-1.075.172-.176.322-.327.325-.55.005-.292-.16-.346-.567-.405-.242-.035-.492-.072-.634-.256a.461.461 0 0 1-.094-.354c.042-.283.33-.494.363-.517a.177.177 0 0 1 .248.045.183.183 0 0 1-.044.252c-.064.046-.2.173-.214.274-.003.02-.003.044.023.077.053.07.238.096.402.12.352.052.884.13.874.77-.005.369-.23.598-.43.8-.226.23-.41.399-.288.724.08.213.444.325.374.451-.066.12-.485-.102-.627-.355ZM30.89 21.233l-.407-.322v.75h.005l-.202.353.197.347v2.933l.407-.186v-2.74l.202-.354-.202-.354v-.427Z" fill="#000" />
    <path fill-rule="evenodd" clip-rule="evenodd" d="m33.923 21.907-.205.274.205-.274ZM33.848 16.44a6.584 6.584 0 0 0-2.173-1.51l-.205.276c.808.552 1.34 1.378 1.659 1.891.592.927 1.227 2.287 1.61 4.093.084.363.152.747.2 1.154l.855.602c.436-2.482-.392-4.891-1.946-6.506Z" fill="#636363" />
    <path fill-rule="evenodd" clip-rule="evenodd" d="m55.981 18.067-4.934-3.8c.104.38.303.741.601 1.04l2.999 3.013a1.11 1.11 0 0 1 0 1.563c-.802.807-1.907-.312-1.907-.312l-1.028-1.015-5.018-.803c.605.586 1.224 1.357 1.487 2.232.084.271.132.552.132.838l.009 7.27 2.529-2.91.017-2.22 1.338-2.192a2.33 2.33 0 0 0 1.663.692 2.33 2.33 0 0 0 1.663-.692c.728-.73.875-1.823.449-2.704Zm-9.287-.314Z" fill="#E2C029" />
    <path d="m82.175 27.077-1.262-8.114h-1.827l-1.382 4.22a25.2 25.2 0 0 0-.445 1.682h-.024a23.03 23.03 0 0 0-.445-1.707l-1.37-4.195h-1.84l-1.237 8.114h1.574l.47-3.787c.083-.709.155-1.442.216-2.163h.023c.12.66.313 1.442.53 2.14l1.25 3.81h1.514l1.31-4.1c.205-.66.349-1.333.457-1.85h.024c.06.565.144 1.298.253 2.031l.589 3.919h1.622Zm3.316-7.79a.944.944 0 0 0-.961-.937.95.95 0 0 0-.95.938c0 .517.433.925.95.925.529 0 .961-.42.961-.925Zm-.192 7.79V21.09a17.6 17.6 0 0 0-2.572.108v.962c.348.024.757.072 1.045.12v4.796H85.3Zm3.786-7.79a.934.934 0 0 0-.95-.937.952.952 0 0 0-.96.938c0 .517.432.925.96.925.53 0 .95-.42.95-.925Zm-.18 8.235V21.09c-.89-.024-1.815.012-2.584.108v.962c.348.024.757.072 1.046.12v5.397c0 .805-.193 1.094-.818 1.094-.216 0-.493-.06-.721-.144l-.096 1.31c.252.072.577.12.853.12 1.731 0 2.32-.926 2.32-2.536Zm7.232-.445v-4.195c0-1.046-.433-1.9-1.779-1.9-.973 0-1.67.493-2.031 1.19h-.012c.06-.324.084-.793.084-1.081-.805-.024-1.731.012-2.488.108v.962c.348.024.757.072 1.046.12v4.796h1.526v-2.885c0-1.046.613-1.923 1.394-1.923.565 0 .734.372.734.985v3.823h1.526Zm1.858 0c.6 0 1.238.048 2.055.048 2.657 0 4.52-1.418 4.52-4.195 0-2.789-1.551-4.003-4.147-4.003-.89 0-1.803.036-2.428.048v8.102Zm1.106-7.212c.3-.012.793-.036 1.214-.036 2.103 0 3.089 1.105 3.089 3.173 0 2.2-1.334 3.185-3.233 3.185-.325 0-.77-.024-1.07-.072v-6.25Zm11.236 6.13a5.096 5.096 0 0 1-1.767.325c-1.262 0-1.863-.686-1.839-2.152h3.906s.036-.337.036-.71c0-1.345-.697-2.463-2.368-2.463-1.695 0-2.692 1.346-2.692 3.125 0 2.104.985 3.065 2.824 3.065.698 0 1.395-.132 2.044-.36l-.144-.83Zm-3.594-2.584c.12-1.034.709-1.599 1.49-1.599.842 0 1.358.565 1.334 1.599h-2.824Zm10.383 3.666v-4.171c0-1.058-.433-1.911-1.803-1.911-1.022 0-1.755.552-2.104 1.37h-.024c.072-.36.096-.902.096-1.262h-1.045v5.974h1.082v-2.861c0-1.322.709-2.332 1.694-2.332.794 0 1.022.505 1.022 1.346v3.847h1.082Zm8.381 0v-8.114h-1.106v3.438h-4.135v-3.438h-1.106v8.114h1.106v-3.738h4.135v3.738h1.106Zm6.71 0v-5.902a13.055 13.055 0 0 0-2.02-.168c-1.971 0-3.149 1.274-3.149 3.377 0 1.815.793 2.801 2.2 2.801.937 0 1.671-.529 1.995-1.334l.024.012c-.072.348-.096.877-.096 1.214h1.046Zm-1.07-3.101c0 1.057-.565 2.32-1.647 2.32-.901 0-1.31-.734-1.31-2.02 0-1.719.757-2.404 1.887-2.404.361 0 .709.036 1.07.12v1.984Zm7.773 3.1v-5.901a13.066 13.066 0 0 0-2.02-.168c-1.971 0-3.149 1.274-3.149 3.377 0 1.815.793 2.801 2.2 2.801.937 0 1.67-.529 1.995-1.334l.024.012c-.072.348-.096.877-.096 1.214h1.046Zm-1.07-3.1c0 1.057-.565 2.32-1.647 2.32-.902 0-1.31-.734-1.31-2.02 0-1.719.757-2.404 1.887-2.404.361 0 .709.036 1.07.12v1.984Zm7.772-2.801a13.053 13.053 0 0 0-2.019-.168c-1.971 0-3.149 1.274-3.149 3.365 0 1.852.805 2.813 2.211 2.813.89 0 1.623-.517 1.948-1.322l.024.012c-.072.312-.084.637-.084 1.034v.54c0 1.227-.613 1.767-1.864 1.767a5.757 5.757 0 0 1-1.743-.276l-.12.998c.481.12 1.082.204 1.755.204 1.984 0 3.041-.938 3.041-2.789v-6.178Zm-1.069 2.8c0 1.058-.553 2.32-1.647 2.32-.902 0-1.31-.733-1.31-2.019 0-1.719.757-2.404 1.887-2.404.36 0 .709.036 1.07.12v1.984Z" fill="#155429" />
  </g>
  <defs>
    <linearGradient id="b" x1="48.531" y1="27.509" x2="48.53" y2="27.509" gradientUnits="userSpaceOnUse">
      <stop stop-color="#B88E15" />
      <stop offset="1" stop-color="#D1AC14" />
    </linearGradient>
    <linearGradient id="c" x1="10.738" y1="27.506" x2="10.739" y2="27.506" gradientUnits="userSpaceOnUse">
      <stop stop-color="#B88E15" />
      <stop offset="1" stop-color="#D1AC14" />
    </linearGradient>
    <clipPath id="a">
      <path fill="#fff" d="M0 0h147v39.748H0z" />
    </clipPath>
  </defs>
</svg>