<?xml version="1.0" encoding="UTF-8"?>
<svg width="471px" height="266px" viewBox="0 0 471 266" version="1.1" xmlns="http://www.w3.org/2000/svg" xmlns:xlink="http://www.w3.org/1999/xlink">
    <title>Spot-API</title>
    <defs>
        <radialGradient cx="50%" cy="77.7092896%" fx="50%" fy="77.7092896%" r="128.455818%" gradientTransform="translate(0.500000,0.777093),scale(0.564756,1.000000),rotate(-138.715224),translate(-0.500000,-0.777093)" id="radialGradient-1">
            <stop stop-color="#0B71A1" offset="0.0607052365%"></stop>
            <stop stop-color="#074E70" offset="100%"></stop>
        </radialGradient>
        <path d="M4,0 L467,0 C469.209139,-3.17995656e-14 471,1.790861 471,4 L471,266 L471,266 L0,266 L0,4 C-2.705415e-16,1.790861 1.790861,4.05812251e-16 4,0 Z" id="path-2"></path>
        <linearGradient x1="-10.4488137%" y1="50%" x2="101.63285%" y2="50%" id="linearGradient-4">
            <stop stop-color="#F8F9FC" offset="0%"></stop>
            <stop stop-color="#0B71A1" offset="100%"></stop>
        </linearGradient>
    </defs>
    <g id="Page-1" stroke="none" strokeWidth="1" fill="none" fillRule="evenodd">
        <g id="DON-blauw" transform="translate(-225.000000, -606.000000)">
            <g id="Group-6" transform="translate(225.000000, 605.000000)">
                <g id="Spot-API" transform="translate(0.000000, 1.000000)">
                    <mask id="mask-3" fill="white">
                        <use xlink:href="#path-2"></use>
                    </mask>
                    <use id="Mask" fill="url(#radialGradient-1)" xlink:href="#path-2"></use>
                    <g id="Group" mask="url(#mask-3)">
                        <g transform="translate(0.000000, 1.000000)" id="API">
                            <path d="M101.855883,369.290388 L77.7717285,369.290388 L77.7717285,357.248311 L101.855883,357.248311 L101.855883,369.290388 Z M125.940038,333.164156 L77.7717285,333.164156 L77.7717285,345.206234 L125.940038,345.206234 L125.940038,333.164156 Z M216.255619,357.248311 L192.171464,357.248311 L192.171464,369.290388 L216.255619,369.290388 L216.255619,357.248311 Z M240.339774,333.164156 L192.171464,333.164156 L192.171464,345.206234 L240.339774,345.206234 L240.339774,333.164156 Z M330.655354,357.248311 L306.5712,357.248311 L306.5712,369.290388 L330.655354,369.290388 L330.655354,357.248311 Z M354.739509,333.164156 L306.5712,333.164156 L306.5712,345.206234 L354.739509,345.206234 L354.739509,333.164156 Z M125.940038,110.38571 L306.5712,110.38571 L306.5712,98.3436323 L125.940038,98.3436323 L125.940038,110.38571 Z M125.940038,134.469865 L306.5712,134.469865 L306.5712,122.427787 L125.940038,122.427787 L125.940038,134.469865 Z M216.255619,74.2594774 L125.940038,74.2594774 L125.940038,86.3015548 L216.255619,86.3015548 L216.255619,74.2594774 Z M125.940038,44.1542839 L137.982116,44.1542839 L137.982116,32.1122208 L125.940038,32.1122208 L125.940038,44.1542839 Z M150.024193,44.1542839 L162.06627,44.1542839 L162.06627,32.1122208 L150.024193,32.1122208 L150.024193,44.1542839 Z M174.108348,44.1542839 L186.150425,44.1542839 L186.150425,32.1122208 L174.108348,32.1122208 L174.108348,44.1542839 Z M336.676393,284.995832 L336.676393,303.058948 L378.823664,303.058948 L378.823664,399.395582 L282.487045,399.395582 L282.487045,303.058963 L324.634316,303.058963 L324.634316,284.995847 L222.276658,284.995847 L222.276658,303.058963 L264.423929,303.058963 L264.423929,399.395582 L168.087309,399.395582 L168.087309,303.058963 L210.23458,303.058963 L210.23458,284.995847 L107.876922,284.995847 L107.876922,303.058963 L150.024193,303.058963 L150.024193,399.395582 L53.6875737,399.395582 L53.6875737,303.058963 L95.8348447,303.058963 L95.8348447,284.995847 L53.6875737,284.995847 L53.6875737,176.61715 L210.23458,176.61715 L210.23458,158.554034 L95.8348447,158.554034 L95.8348447,14.0491046 L336.676393,14.0491046 L336.676393,158.554034 L222.276658,158.554034 L222.276658,176.61715 L378.823664,176.61715 L378.823664,284.995847 L336.676393,284.995832 Z M107.876922,50.1753226 L324.634316,50.1753226 L324.634316,26.091182 L107.876922,26.091182 L107.876922,50.1753226 Z M107.876922,146.511942 L324.634316,146.511942 L324.634316,62.2174143 L107.876922,62.2174143 L107.876922,146.511942 Z M137.982116,315.101026 L65.7296511,315.101026 L65.7296511,387.35349 L137.982116,387.35349 L137.982116,315.101026 Z M252.381851,315.101026 L180.129387,315.101026 L180.129387,387.35349 L252.381851,387.35349 L252.381851,315.101026 Z M366.781587,315.101026 L294.529122,315.101026 L294.529122,387.35349 L366.781587,387.35349 L366.781587,315.101026 Z M65.7296511,272.953755 L366.781587,272.953755 L366.781587,188.659227 L65.7296511,188.659227 L65.7296511,272.953755 Z M77.7717285,200.70129 L354.739509,200.70129 L354.739509,260.911677 L77.7717285,260.911677 L77.7717285,200.70129 Z M89.813806,248.8696 L342.697432,248.8696 L342.697432,212.743368 L89.813806,212.743368 L89.813806,248.8696 Z M186.150425,236.827523 L198.192503,236.827523 L198.192503,224.785445 L186.150425,224.785445 L186.150425,236.827523 Z M210.23458,236.827523 L222.276658,236.827523 L222.276658,224.785445 L210.23458,224.785445 L210.23458,236.827523 Z M234.318735,236.827523 L246.360812,236.827523 L246.360812,224.785445 L234.318735,224.785445 L234.318735,236.827523 Z" id="Shape" fill="url(#linearGradient-4)" fillRule="nonzero" opacity="0.1"></path>
                            <g id="Group" opacity="0.75" transform="translate(311.763441, 20.021505)" fill="#63D19E">
                                <path d="M2.47221973,0.0486236559 C1.28891753,0.052087312 0.330522097,1.01048274 0.327058441,2.19378495 L0.327058441,88.219043 C0.330522097,89.4023452 1.28891753,90.3607406 2.47221973,90.3642043 L58.3921913,90.3642043 C59.5754935,90.3607406 60.5338889,89.4023452 60.5373526,88.219043 L60.5373526,2.19378495 C60.5338889,1.01048274 59.5754935,0.052087312 58.3921913,0.0486236559 L2.47221973,0.0486236559 Z M7.85335683,9.08018172 C7.85335683,8.25228532 8.81867941,7.57492204 9.99851812,7.57492204 L32.8027768,7.57492204 C33.9826155,7.57492204 34.9479381,8.25228532 34.9479381,9.08018172 C34.9479381,9.90807812 33.9826155,10.5854414 32.8027768,10.5854414 L9.99851812,10.5854414 C8.81867941,10.5854414 7.85335683,9.90809242 7.85335683,9.08020317 L7.85335683,9.08018172 Z M7.85335683,15.1012204 C7.85335683,14.273324 8.81867941,13.5959608 9.99851812,13.5959608 L32.8027768,13.5959608 C33.9826155,13.5959608 34.9479381,14.273324 34.9479381,15.1012204 C34.9479381,15.9291168 33.9826155,16.6064801 32.8027768,16.6064801 L9.99851812,16.6064801 C8.81867941,16.6064801 7.85335683,15.9291311 7.85335683,15.1012204 Z M7.85335683,21.1222591 C7.85335683,20.2943627 8.81867941,19.6169995 9.99851812,19.6169995 L32.8027768,19.6169995 C33.9826155,19.6169995 34.9479381,20.2943627 34.9479381,21.1222591 C34.9479381,21.9501555 33.9826155,22.6275188 32.8027768,22.6275188 L9.99851812,22.6275188 C8.81867941,22.6275188 7.85335683,21.9501698 7.85335683,21.1222806 L7.85335683,21.1222591 Z M22.9058606,80.6927446 C22.902397,81.8760468 21.9440016,82.8344423 20.7606994,82.8379059 L9.99851812,82.8379059 C8.81521591,82.8344423 7.85682048,81.8760468 7.85335683,80.6927446 L7.85335683,63.9094317 C7.85682048,62.7261295 8.81521591,61.7677341 9.99851812,61.7642704 L20.7606994,61.7642704 C21.9440016,61.7677341 22.902397,62.7261295 22.9058606,63.9094317 L22.9058606,80.6927446 Z M53.0110542,81.3326462 C53.0110542,82.1605355 52.0457316,82.8379059 50.8658929,82.8379059 L28.0615699,82.8379059 C26.8817312,82.8379059 25.9164086,82.1605355 25.9164086,81.3326462 C25.9164086,80.504757 26.8817312,79.8273866 28.0615699,79.8273866 L50.8659215,79.8273866 C52.0457316,79.8273866 53.0110542,80.5047713 53.0110542,81.3326677 L53.0110542,81.3326462 Z M53.0110542,75.3116075 C53.0110542,76.1394968 52.0457316,76.8168672 50.8658929,76.8168672 L28.0615699,76.8168672 C26.8817312,76.8168672 25.9164086,76.1394968 25.9164086,75.3116075 C25.9164086,74.4837183 26.8817312,73.8063478 28.0615699,73.8063478 L50.8659215,73.8063478 C52.0457316,73.8063478 53.0110542,74.4837326 53.0110542,75.3116075 L53.0110542,75.3116075 Z M53.0110542,69.2905688 C53.0110542,70.1184581 52.0457316,70.7958285 50.8658929,70.7958285 L28.0615699,70.7958285 C26.8817312,70.7958285 25.9164086,70.1184581 25.9164086,69.2905688 C25.9164086,68.4626796 26.8817312,67.7853091 28.0615699,67.7853091 L50.8659215,67.7853091 C52.0457316,67.7853091 53.0110542,68.4626939 53.0110542,69.2905903 L53.0110542,69.2905688 Z M53.0110542,63.2695301 C53.0110542,64.0974194 52.0457316,64.7747898 50.8658929,64.7747898 L28.0615699,64.7747898 C26.8817312,64.7747898 25.9164086,64.0974194 25.9164086,63.2695301 C25.9164086,62.4416409 26.8817312,61.7642704 28.0615699,61.7642704 L50.8659215,61.7642704 C52.0457316,61.7642704 53.0110542,62.4416552 53.0110542,63.2695516 L53.0110542,63.2695301 Z M53.0110542,57.2484914 C53.0110542,58.0763806 52.0457316,58.7537511 50.8658929,58.7537511 L9.99851812,58.7537511 C8.81867941,58.7537511 7.85335683,58.0763806 7.85335683,57.2484914 C7.85335683,56.4206022 8.81867941,55.7432317 9.99851812,55.7432317 L50.8658929,55.7432317 C52.0457316,55.7432317 53.0110542,56.4206022 53.0110542,57.2485128 L53.0110542,57.2484914 Z M53.0110542,51.2274527 C53.0110542,52.0553419 52.0457316,52.7327124 50.8658929,52.7327124 L9.99851812,52.7327124 C8.81867941,52.7327124 7.85335683,52.0553419 7.85335683,51.2274527 C7.85335683,50.3995634 8.81867941,49.722193 9.99851812,49.722193 L50.8658929,49.722193 C52.0457316,49.722193 53.0110542,50.3995777 53.0110542,51.2274741 L53.0110542,51.2274527 Z M53.0110542,45.206414 C53.0110542,46.0343032 52.0457316,46.7116737 50.8658929,46.7116737 L9.99851812,46.7116737 C8.81867941,46.7116737 7.85335683,46.0343032 7.85335683,45.206414 C7.85335683,44.3785247 8.81867941,43.7011543 9.99851812,43.7011543 L50.8658929,43.7011543 C52.0457316,43.7011543 53.0110542,44.378539 53.0110542,45.206414 L53.0110542,45.206414 Z M53.0110542,39.1853753 C53.0110542,40.0132645 52.0457316,40.6906349 50.8658929,40.6906349 L9.99851812,40.6906349 C8.81867941,40.6906349 7.85335683,40.0132645 7.85335683,39.1853753 C7.85335683,38.357486 8.81867941,37.6801156 9.99851812,37.6801156 L50.8658929,37.6801156 C52.0457316,37.6801156 53.0110542,38.3575003 53.0110542,39.1853967 L53.0110542,39.1853753 Z M53.0110542,33.1643366 C53.0110542,33.9922258 52.0457316,34.6695962 50.8658929,34.6695962 L9.99851812,34.6695962 C8.81867941,34.6695962 7.85335683,33.9922258 7.85335683,33.1643366 C7.85335683,32.3364473 8.81867941,31.6590769 9.99851812,31.6590769 L50.8658929,31.6590769 C52.0457316,31.6590769 53.0110542,32.3364616 53.0110542,33.164358 L53.0110542,33.1643366 Z M53.0110542,27.1432978 C53.0110542,27.9711871 52.0457316,28.6485575 50.8658929,28.6485575 L9.99851812,28.6485575 C8.81867941,28.6485575 7.85335683,27.9711871 7.85335683,27.1432978 C7.85335683,26.3154086 8.81867941,25.6380382 9.99851812,25.6380382 L50.8658929,25.6380382 C52.0457316,25.6380382 53.0110542,26.3154086 53.0110542,27.1433193 L53.0110542,27.1432978 Z M53.0110542,20.4823575 C53.0075905,21.6656597 52.0491951,22.6240552 50.8658929,22.6275188 L40.1036187,22.6275188 C38.9203165,22.6240552 37.9619211,21.6656597 37.9584574,20.4823575 L37.9584574,9.72008333 C37.9619211,8.53678113 38.9203165,7.5783857 40.1036187,7.57492204 L50.8658929,7.57492204 C52.0491951,7.5783857 53.0075905,8.53678113 53.0110542,9.72008333 L53.0110542,20.4823575 Z" id="Shape"></path>
                            </g>
                            <g id="Group" opacity="0.75" transform="translate(392.564516, 20.021505)" fill="#F02B41">
                                <path d="M2.66818022,0.0486236559 C1.48487801,0.052087312 0.526482581,1.01048274 0.523018925,2.19378495 L0.523018925,88.219043 C0.526482581,89.4023452 1.48487801,90.3607406 2.66818022,90.3642043 L58.5881518,90.3642043 C59.771454,90.3607406 60.7298494,89.4023452 60.7333131,88.219043 L60.7333131,2.19378495 C60.7298494,1.01048274 59.771454,0.052087312 58.5881518,0.0486236559 L2.66818022,0.0486236559 Z" id="Path"></path>
                            </g>
                            <polyline id="Path" fill="#A71E2D" fillRule="nonzero" points="395.892376 84.7960806 395.892376 81.7857043 425.99757 81.7857043 425.99757 84.7960806"></polyline>
                            <g id="Group" opacity="0.25" transform="translate(231.677419, 20.021505)" fill="#FFFFFF">
                                <path d="M2.27772511,0.0486236559 C1.0944229,0.052087312 0.136027473,1.01048274 0.132563817,2.19378495 L0.132563817,88.2191789 C0.136027473,89.4024811 1.0944229,90.3608765 2.27772511,90.3643402 L58.1977896,90.3643402 C59.3810918,90.3608765 60.3394873,89.4024811 60.3429509,88.2191789 L60.3429509,2.19378495 C60.3394873,1.01048274 59.3810918,0.052087312 58.1977896,0.0486236559 L2.27772511,0.0486236559 Z" id="Path"></path>
                            </g>
                            <g id="Group" opacity="0.6" transform="translate(228.102151, 25.026882)" fill="#FFFFFF" fillRule="nonzero">
                                <circle id="Oval" cx="20.2746988" cy="20.1310373" r="20.070129"></circle>
                            </g>
                            <g id="Group" opacity="0.6" transform="translate(390.419355, 25.026882)" fill="#FFFFFF" fillRule="nonzero">
                                <circle id="Oval" cx="20.5255682" cy="20.1310373" r="20.070129"></circle>
                            </g>
                            <path d="M248.30553,45.157919 L228.235401,45.157919 C228.235401,53.2755302 233.125331,60.5938294 240.625026,63.7003039 C248.124721,66.8067785 256.757243,65.089661 262.497259,59.3496411" id="Path" fill="#0C6D9A" fillRule="nonzero"></path>
                            <path d="M262.497259,59.3496411 C262.497259,59.3496411 258.949327,55.8017088 255.401394,52.2537622 C251.853462,48.7058156 248.305558,45.1578046 248.305558,45.1578046" id="Path" fill="#FFFFFF" fillRule="nonzero"></path>
                            <path d="M256.189083,26.6649626 C253.717166,25.6205278 251.060377,25.0841168 248.376871,25.0876438 L248.376871,45.1577903 L251.924667,41.6097436 L255.472714,38.0619472 L259.020753,34.5141507 L262.56855,30.9661111 C260.738858,29.1349852 258.572692,27.6745183 256.189083,26.6649626 L256.189083,26.6649626 Z" id="Path" fill="#0C6D9A" fillRule="nonzero" opacity="0.5"></path>
                            <path d="M410.944923,30.8076695 C414.958949,30.8076695 418.220345,34.5708187 418.220345,39.2371237 C418.220345,43.9034287 414.958949,47.7167532 410.944923,47.7167532 C406.930897,47.7167532 403.669501,43.9536398 403.669501,39.287299 C403.669501,34.6209583 406.930897,30.8076695 410.944923,30.8076695 Z M410.944923,62.5185504 C405.487836,62.5109853 400.28336,60.2181043 396.594781,56.1963827 C397.046157,53.2185813 398.971442,50.6704099 401.712664,49.4227142 L403.970553,48.3690324 C407.865458,52.1154571 414.024389,52.1154571 417.919293,48.3690324 L420.177182,49.4227142 C422.918404,50.6704099 424.843689,53.2185813 425.295065,56.1963827 C421.620134,60.2371073 416.406822,62.5338812 410.944923,62.5185504 Z" id="Shape" fill="#A71E2D" fillRule="nonzero"></path>
                            <ellipse id="Oval" fill="#FFBC2C" fillRule="nonzero" transform="translate(173.857409, 270.745917) rotate(-89.357210) translate(-173.857409, -270.745917) " cx="173.857409" cy="270.745917" rx="50.3563313" ry="135.479806"></ellipse>
                            <path d="M145.041219,227.174468 C143.18672,226.159843 141.511864,225.178038 139.877852,224.379195 C138.415909,223.628012 136.865935,223.062213 135.26386,222.694914 C134.642529,222.558951 134.006596,222.501474 133.370956,222.52383 C132.918968,222.551146 132.477903,222.673952 132.076837,222.884153 C131.833752,223.027245 131.656586,223.260081 131.583493,223.532521 C131.551958,223.732719 131.561222,223.937226 131.610729,224.133752 C131.650568,224.329362 131.671324,224.528377 131.672703,224.727998 C131.676714,224.956686 131.662928,225.222043 131.648613,225.517417 C131.537677,227.131133 131.71026,228.751809 132.158539,230.305975 C132.434319,231.271229 132.790894,232.211546 133.224484,233.116958 C134.272055,235.25207 135.597836,237.23901 137.167233,239.025934 C139.100239,241.199095 141.204304,243.21384 143.45922,245.05082 C145.905519,247.041658 148.619963,249.068456 151.556489,251.148677 C152.292665,251.666461 153.043686,252.179705 153.795222,252.737648 C154.55619,253.274281 155.331994,253.792767 156.108671,254.374098 C156.897225,254.905848 157.686123,255.49591 158.49038,256.082476 C159.294643,256.673933 160.11165,257.262243 160.927776,257.956696 C159.950169,258.36136 158.973255,258.659537 157.983943,258.961197 C157.001459,259.217822 156.00812,259.452439 155.012179,259.642736 C154.012913,259.839304 153.019246,259.944045 152.007237,260.083009 C151.000821,260.181465 149.990914,260.245712 148.974544,260.283767 C144.826903,260.38746 140.6885,259.842984 136.708827,258.670005 C132.437665,257.406181 128.436409,255.364984 124.90607,252.648959 C121.003294,249.643803 117.865218,245.759609 115.74724,241.312497 C114.629167,238.92503 113.850476,236.39293 113.433791,233.789767 C113.013565,231.059685 113.037675,228.279607 113.505189,225.557224 C114.011519,222.638676 115.104244,219.853061 116.717346,217.368672 C117.603375,216.028936 118.653824,214.805531 119.844133,213.72706 C121.128889,212.581465 122.584988,211.643955 124.159597,210.948547 C125.780085,210.22677 127.521082,209.813872 129.293111,209.731075 C130.964195,209.663237 132.633964,209.894393 134.223772,210.413658 C135.612632,210.886607 136.921655,211.567635 138.106113,212.433471 C139.131322,213.201338 140.057603,214.093081 140.863854,215.088387 C142.275931,216.845315 143.348735,218.849673 144.02748,220.999107 C144.684636,222.992279 145.026665,225.075808 145.041219,227.174468 L145.041219,227.174468 Z" id="Path" fill="#FFBC2C" fillRule="nonzero"></path>
                            <path d="M205.574525,270.745941 C121.212482,167.417268 229.706695,271.491742 229.620453,250.52565 C229.545236,232.239695 281.653099,236.496789 241.603595,227.671288 C220.569788,223.036181 232.679274,222.684674 206.924203,222.684674" id="Path" fill="#C69026" fillRule="nonzero"></path>
                            <path d="M211.641248,266.503469 C211.5524,266.745827 211.400544,266.960115 211.201326,267.124258 C211.020666,267.250443 210.792407,267.287575 210.581067,267.225159 C210.329345,267.144071 210.111911,266.981247 209.96326,266.762519 C209.773324,266.491941 209.620111,266.197369 209.507628,265.886507 C209.405676,265.628136 209.322751,265.384782 209.244889,265.143866 C208.984635,264.250613 208.781544,263.341689 208.63685,262.422615 C208.364927,260.744633 208.180619,259.053621 208.084678,257.356459 C207.916267,254.247413 207.904845,251.13185 208.050456,248.021653 C208.286309,242.099764 208.919832,236.593364 209.157259,231.846708 C209.278897,229.796708 209.288629,227.741599 209.186411,225.690539 C209.12915,224.852932 209.069093,224.131943 208.979368,223.476246 C208.904652,222.80644 208.753113,222.147455 208.52774,221.512294 C208.20136,220.687585 207.728576,219.928673 207.132198,219.272166 C206.312671,218.373732 205.392227,217.572847 204.389123,216.885395 C203.166317,216.03755 201.899023,215.255739 200.592674,214.543315 C199.192598,213.767854 197.68445,213.001824 196.070338,212.077982 C197.441596,210.894683 198.974452,209.912792 200.622699,209.161907 C202.292529,208.375806 204.061427,207.820236 205.880854,207.51044 C207.870767,207.176296 209.901892,207.169337 211.894048,207.489839 C214.160044,207.853541 216.332536,208.658786 218.288159,209.859849 C220.383461,211.147678 222.210743,212.827503 223.669911,214.807306 C225.054323,216.687364 226.142988,218.76814 226.898129,220.977433 C228.178272,224.802196 228.699982,228.839957 228.434028,232.864487 C228.227255,236.379073 227.581674,239.853993 226.512321,243.208326 C225.51779,246.364666 224.200046,249.409895 222.580048,252.29558 C220.995016,255.128206 219.147607,257.805806 217.062128,260.293149 C216.023584,261.538208 214.913298,262.737882 213.781712,263.897399 L212.115408,265.593556 C211.834341,265.843897 211.616822,266.166507 211.392488,266.226558 C211.335577,266.237033 211.23572,266.193393 211.11893,266.196525 C211.008254,266.21049 210.98573,266.300208 211.051,266.346315 C211.227351,266.457134 211.433139,266.511926 211.641248,266.503469 Z" id="Path" fill="#FFBC2C" fillRule="nonzero"></path>
                            <path d="M201.963153,190.369207 C201.963153,190.369207 207.325913,228.165705 209.748622,251.191101 C212.171339,274.217605 203.377915,296.972897 199.724005,298.153687 C196.070366,299.334448 121.540169,256.053087 133.53328,255.204168 C163.345301,253.090705 129.365332,211.848943 122.433457,175.626793 C118.35123,154.294787 201.963153,190.369207 201.963153,190.369207 Z" id="Path" fill="#F8F9FC" fillRule="nonzero"></path>
                            <path d="M207.678156,233.329794 L202.25596,190.368864 L140.545505,208.306044 C140.545505,208.306044 149.701897,227.871732 207.678156,233.329794 Z" id="Path" fill="#E0E4EA" fillRule="nonzero"></path>
                            <path d="M183.022687,95.221207 C181.498836,94.7872194 180.121972,94.3270466 178.747903,93.9915147 C178.405742,93.9063232 178.06532,93.8277674 177.739741,93.7355898 L176.736292,93.5299404 C176.086179,93.3766615 175.42542,93.2886812 174.791539,93.1825387 C172.387137,92.8372142 169.952081,92.757012 167.530168,92.9433746 C162.860294,93.4336002 158.278037,94.5523723 153.907679,96.2693471 C149.323369,97.9693517 144.657364,100.130916 139.732646,102.318702 C137.272725,103.421658 134.748392,104.545208 132.115993,105.628965 C129.388056,106.794638 126.59519,107.802087 123.751294,108.646298 C124.303267,107.215338 124.965678,105.829467 125.732537,104.501218 C126.098437,103.83714 126.492639,103.201343 126.889959,102.562056 C127.295845,101.931844 127.726164,101.325728 128.147409,100.703195 C129.886009,98.2747666 131.849311,96.0153633 134.011343,93.9548754 C138.445753,89.694964 143.696147,86.3762028 149.446587,84.1982957 C152.479996,83.0646222 155.653174,82.3476867 158.879326,82.0670994 C162.220789,81.7671739 165.588964,82.0594729 168.828806,82.9305411 C172.050429,83.8163523 175.041051,85.391743 177.59362,87.5476433 C178.808875,88.5945256 179.893684,89.7838981 180.824633,91.0900911 C181.747126,92.3574233 182.487038,93.7480461 183.022687,95.221207 L183.022687,95.221207 Z" id="Path" fill="#074E70" fillRule="nonzero"></path>
                            <path d="M205.533266,157.589054 C205.622998,162.913895 210.677606,167.988403 216.570686,168.255855 C222.47861,167.945457 227.155441,163.081139 226.863027,157.589054 C226.702247,152.137484 222.410873,142.503093 215.793658,142.512511 C209.2159,142.949301 205.368646,152.373488 205.533266,157.589054 Z" id="Path" fill="#E0E4EA" fillRule="nonzero"></path>
                            <path d="M215.579285,144.220895 C214.232358,143.530693 212.9953,142.644451 211.908521,141.591121 C210.972133,140.697386 210.139084,139.701311 209.425039,138.621624 C208.762657,137.613294 208.205569,136.539611 207.762539,135.417468 C207.279589,134.316232 207.066062,133.115748 207.139656,131.915521 C207.299914,129.416322 208.641512,126.579153 208.367961,124.204252 C208.247175,123.01845 207.886405,121.869617 207.307601,120.827647 C206.676339,119.727124 205.9095,118.710147 205.025049,117.800538 C204.114377,116.868444 203.258018,115.884789 202.460208,114.854438 C202.092771,114.359039 201.757932,113.840275 201.45781,113.301427 L200.617937,111.701637 C199.494201,109.56974 198.348299,107.444129 197.907332,105.117065 C197.465109,102.710225 197.389891,100.250297 197.684235,97.8209351 C197.82656,96.506882 198.072367,95.2061104 198.419368,93.9307352 C198.797214,92.4988899 199.330018,91.1124995 200.008339,89.7961298 C200.236502,89.3611637 200.774028,89.1934493 201.209057,89.4214917 C201.220577,89.427777 201.23472,89.4354639 201.245718,89.4420924 C202.517679,90.2004825 203.703169,91.0952812 204.78118,92.1106302 C205.75021,93.0094561 206.646809,93.9833401 207.462631,95.0232158 C208.997318,96.9293399 210.234576,99.0568285 211.132344,101.333358 C211.988979,103.541708 212.140685,105.951525 212.314386,108.355057 L212.447757,110.156993 C212.478136,110.773113 212.468343,111.390559 212.41844,112.005407 C212.286484,113.30187 212.080028,114.589666 211.800097,115.862407 C211.53046,117.102055 211.417502,118.370648 211.463872,119.638434 C211.523816,120.828867 211.825242,121.994673 212.349824,123.064972 C213.373874,125.225492 216.013044,126.923745 217.471117,128.959975 C218.168226,129.939606 218.621844,131.071261 218.794382,132.261164 C219.01194,133.447838 219.107116,134.65371 219.078415,135.859822 C219.043425,137.15378 218.863242,138.439717 218.541252,139.693461 C218.175903,141.162177 217.59477,142.568595 216.816815,143.866822 C216.558352,144.28766 216.021227,144.441338 215.579285,144.220895 L215.579285,144.220895 Z" id="Path" fill="#074E70" fillRule="nonzero"></path>
                            <path d="M109.554059,164.362508 C109.642011,169.686305 114.699443,174.762908 120.591479,175.029309 C126.499925,174.720663 131.17642,169.857739 130.88382,164.362508 C130.723383,158.907435 126.431316,149.278642 119.814623,149.285975 C113.235292,149.722412 109.388739,159.144511 109.554059,164.362508 Z" id="Path" fill="#F8F9FC" fillRule="nonzero"></path>
                            <ellipse id="Oval" fill="#F8F9FC" fillRule="nonzero" transform="translate(168.092946, 158.797511) rotate(-4.761040) translate(-168.092946, -158.797511) " cx="168.092946" cy="158.797511" rx="47.9199286" ry="62.9742558"></ellipse>
                            <path d="M199.724155,113.344402 C198.813892,112.581861 197.989935,111.919529 197.188296,111.287571 C196.377224,110.664345 195.611895,110.08267 194.857735,109.544628 C193.349594,108.468558 191.919486,107.56287 190.560083,106.76088 C188.011552,105.290486 185.346093,104.032784 182.590809,103.000563 C179.885439,101.942283 176.921148,101.05162 173.58455,100.001384 C172.751834,99.736035 171.886476,99.5080401 171.009419,99.1927586 C170.124183,98.9459149 169.21585,98.6250488 168.283448,98.3143079 C167.347207,98.0168455 166.388277,97.6851392 165.393916,97.2972369 C164.336675,96.9361766 163.304394,96.5057936 162.30379,96.0088888 C163.086975,95.1804734 163.943101,94.4241971 164.861816,93.7492045 C165.759187,93.1181992 166.692972,92.5406378 167.658313,92.0195252 C168.628941,91.5492272 169.627506,91.1033625 170.647888,90.7283812 C171.681444,90.38017 172.734754,90.0935995 173.802262,89.8701808 C178.292435,88.9620197 182.948425,89.3521172 187.224879,90.9947816 C191.74188,92.6870391 195.554999,95.855174 198.046181,99.9856746 C199.231471,101.996027 200.022511,104.213973 200.376913,106.520665 C200.538641,107.657649 200.579313,108.808631 200.497715,109.954182 C200.431138,111.119545 200.169661,112.265501 199.724155,113.344402 Z" id="Path" fill="#074E70" fillRule="nonzero"></path>
                            <path d="M192.7035,181.494124 C192.93646,183.099116 192.465963,184.72661 191.412527,185.959713 C190.40497,187.208488 189.174908,188.259919 187.784538,189.060844 C185.044888,190.651489 181.97933,191.598163 178.81983,191.829232 C177.225674,191.960087 175.621392,191.890059 174.044701,191.620794 C172.415452,191.350477 170.853851,190.767641 169.445904,189.904386 C167.999964,189.019109 166.864205,187.707138 166.19517,186.149303 C165.603341,184.670502 165.478691,183.045901 165.837993,181.494124 C166.128846,182.89642 166.719811,184.219137 167.57029,185.371403 C168.380273,186.391954 169.439867,187.18626 170.646622,187.677523 C173.179336,188.601934 175.892192,188.925249 178.57122,188.621966 C181.341921,188.416624 184.067246,187.804158 186.659393,186.804299 C187.949927,186.317045 189.171093,185.662884 190.291745,184.858502 C191.463227,184.052425 192.316291,182.862407 192.7035,181.494124 L192.7035,181.494124 Z" id="Path" fill="#E0E4EA" fillRule="nonzero"></path>
                            <path d="M196.89187,140.896339 C193.045451,141.520487 189.168773,141.941212 185.27801,142.156757 C181.406661,142.392782 177.535372,142.508699 173.664142,142.504509 C169.792798,142.507302 165.921511,142.392894 162.050282,142.161283 C158.159213,141.946986 154.28239,141.524739 150.436422,140.896353 C154.28236,140.267669 158.159192,139.845295 162.050282,139.631044 C165.921454,139.395372 169.792741,139.280963 173.664142,139.287818 C177.535486,139.289563 181.406775,139.40548 185.27801,139.63557 C189.168794,139.85106 193.04548,140.271902 196.89187,140.896339 Z" id="Path" fill="#E0E4EA" fillRule="nonzero"></path>
                            <path d="M181.446988,173.392858 C180.79094,169.496022 180.344031,165.628168 179.903229,161.766949 L178.668124,150.22064 C178.266607,146.381066 177.824411,142.557552 177.269093,138.754989 C177.015435,136.844801 176.684443,134.958361 176.330227,133.060393 C176.131564,132.121885 175.912636,131.182662 175.724977,130.222874 C175.452291,129.302521 175.182058,128.366459 174.941321,127.39513 C175.500129,128.20096 176.029261,129.042406 176.556127,129.899212 C176.999539,130.782904 177.408743,131.688599 177.839942,132.59425 C178.589369,134.433951 179.225654,136.317738 179.745238,138.235073 C180.76744,142.051527 181.476813,145.944961 181.866309,149.876692 C182.284754,153.784402 182.470188,157.713559 182.421627,161.643309 C182.403563,165.579245 182.077689,169.507741 181.446988,173.392858 L181.446988,173.392858 Z" id="Path" fill="#E0E4EA" fillRule="nonzero"></path>
                            <path d="M121.212439,167.417197 C121.494549,167.499599 121.751868,167.605041 121.982309,167.657762 C122.028596,167.670404 122.077362,167.670884 122.123889,167.659156 C122.150954,167.664047 122.121973,167.618656 122.111497,167.605392 C122.052644,167.567466 121.984857,167.545673 121.914929,167.542195 C121.825765,167.536516 121.736595,167.553197 121.655515,167.590726 C121.580781,167.629651 121.513476,167.681416 121.456673,167.743654 C121.390652,167.812352 121.345334,167.898269 121.325918,167.991549 C121.314611,168.00519 121.305483,168.0205 121.29886,168.036934 C121.289429,168.087559 121.274069,168.066966 121.258703,168.061725 C121.234262,168.060681 121.194813,168.018428 121.159725,167.988403 C120.837599,167.661865 120.533228,167.318276 120.247924,166.959119 C119.664332,166.222763 119.159557,165.427245 118.741878,164.585612 C118.316593,163.732868 117.992153,162.833459 117.775125,161.905591 C117.525608,160.889342 117.462439,159.83627 117.588682,158.797481 C118.518335,159.287781 119.345843,159.951044 120.026772,160.751658 C120.662975,161.48234 121.200916,162.293065 121.62692,163.16322 C122.063567,164.043122 122.376343,164.979219 122.556347,165.944872 C122.654804,166.481082 122.69519,167.026341 122.676805,167.571205 L122.657949,167.844584 L122.636304,168.046043 C122.629936,168.091473 122.620841,168.136479 122.609068,168.180817 C122.580374,168.301862 122.524963,168.414955 122.446893,168.511808 C122.311269,168.664204 122.117048,168.75147 121.913041,168.751673 C121.814323,168.740912 121.718412,168.712155 121.630059,168.666825 C121.568719,168.625174 121.514291,168.574163 121.468757,168.515648 C121.41542,168.44343 121.374475,168.362839 121.347598,168.277177 C121.254488,168.000162 121.208793,167.709419 121.212439,167.417197 L121.212439,167.417197 Z" id="Path" fill="#E0E4EA" fillRule="nonzero"></path>
                            <path d="M119.50479,149.711243 C119.233102,149.609167 118.968454,149.489254 118.712575,149.352286 C118.448726,149.223153 118.191705,149.080513 117.942534,148.924934 C117.475732,148.613298 117.030439,148.270592 116.609673,147.899139 C116.201549,147.535561 115.818968,147.144286 115.464651,146.728096 C115.107373,146.328461 114.777824,145.904877 114.478306,145.460305 C113.311361,143.766861 112.45413,141.879804 111.946465,139.886869 C111.692725,138.933075 111.514919,137.960685 111.414715,136.978817 C111.306859,136.011946 111.267888,135.03863 111.298097,134.066231 C111.317694,133.102448 111.430529,132.142824 111.635023,131.200782 C111.871263,130.259766 112.215724,129.349288 112.661518,128.487553 C113.673227,126.751222 114.91498,125.159601 116.353055,123.755914 C117.707897,122.447446 118.948124,121.025286 120.060123,119.505041 C121.029523,118.044524 121.833267,116.480598 122.456497,114.842175 C123.106087,113.186168 123.589857,111.366756 124.152654,109.479615 C124.675522,107.551375 125.420092,105.690227 126.371466,103.933415 C126.867371,103.075735 127.425036,102.255282 128.040044,101.478557 C128.684222,100.741508 129.349171,100.013533 130.018483,99.277185 C130.713809,98.5778624 131.430958,97.8924619 132.157359,97.2046446 C132.887429,96.5224118 133.67441,95.9232682 134.464838,95.3126123 C135.253411,94.7105442 136.090835,94.1753082 136.968398,93.7124722 C137.397152,93.4649277 137.844589,93.254044 138.282939,93.0253484 C138.732293,92.8193557 139.188454,92.6430377 139.652474,92.4778889 C143.331942,91.1357591 147.272374,90.6645382 151.164561,91.1012031 C152.12698,91.2041708 153.08714,91.3494411 154.0342,91.5418263 C154.985279,91.7806543 155.926404,92.052625 156.855488,92.3707024 C157.804287,92.6870918 158.723888,93.0850942 159.603976,93.5602444 C160.529036,94.0429959 161.417491,94.592861 162.26221,95.2054258 C162.502654,95.3863728 162.653758,95.6619111 162.677073,95.9619309 C162.700388,96.2619507 162.593666,96.557525 162.384062,96.7734457 L162.345449,96.8122016 C161.57244,97.595686 160.816535,98.2307896 160.079136,98.8564617 L157.917214,100.57357 C157.215746,101.123125 156.526384,101.627295 155.846947,102.097943 C155.174797,102.587448 154.526815,103.093012 153.875137,103.522116 C153.552347,103.74941 153.229386,103.96309 152.909042,104.169089 C152.597779,104.399172 152.28721,104.617743 151.97822,104.830722 C151.365641,105.267855 150.731939,105.618711 150.140654,106.030038 C149.548325,106.435402 148.959142,106.81772 148.362272,107.160231 C147.767676,107.507633 147.213581,107.900076 146.61619,108.199297 C146.01513,108.495372 145.440956,108.815187 144.844437,109.092764 C144.250363,109.375925 143.610554,109.581217 143.015079,109.860889 C142.412453,110.127604 141.73825,110.301162 141.131627,110.581878 L139.241347,111.368158 L137.38772,112.285364 C136.754708,112.62648 136.100592,112.92689 135.429352,113.184766 C134.081297,113.776573 132.53021,114.280043 131.038128,114.973116 C129.547102,115.611829 128.19355,116.532651 127.051911,117.684943 C126.505185,118.244559 126.032963,118.872392 125.646945,119.552885 C125.241491,120.221372 124.938065,120.946622 124.746692,121.704675 C124.373137,123.319215 124.377202,124.998182 124.758569,126.610895 C124.899799,127.442566 125.12866,128.278772 125.310591,129.075878 C125.515832,129.835338 125.671704,130.607286 125.777228,131.386882 C125.98225,132.777419 125.909563,134.194806 125.563369,135.557075 C125.425807,136.227081 125.248095,136.900947 125.086614,137.570609 C125.000722,137.905791 124.893357,138.246907 124.796646,138.583841 C124.70918,138.919372 124.606012,139.258394 124.494107,139.601255 C124.063086,140.964676 123.534655,142.364058 122.949304,143.846529 C122.344934,145.358682 121.674921,146.900166 120.933332,148.971319 L120.90365,149.054065 C120.806184,149.32634 120.604527,149.54873 120.34306,149.672294 C120.081593,149.795857 119.781744,149.810467 119.509503,149.712909 L119.50479,149.711243 Z" id="Path" fill="#074E70" fillRule="nonzero"></path>
                            <path d="M141.469097,92.0568867 C140.545776,92.8033671 139.737501,93.4848991 138.96327,94.1500278 C138.195666,94.8259753 137.477474,95.465262 136.804522,96.1017599 C135.458555,97.3750991 134.294683,98.6040977 133.246186,99.7842153 C131.313273,102.002474 129.566564,104.376339 128.023812,106.881682 C126.465045,109.33305 125.020972,112.070712 123.348733,115.142862 C122.928182,115.909235 122.538013,116.714372 122.060028,117.514617 C121.647513,118.335813 121.158002,119.165383 120.673739,120.020795 C120.202039,120.882492 119.691934,121.759548 119.120206,122.660702 C118.56247,123.628737 117.941624,124.559013 117.261695,125.4455 C116.599337,124.517629 116.021735,123.532092 115.535863,122.500787 C115.089183,121.498803 114.702002,120.47134 114.376339,119.423753 C114.101565,118.380855 113.856109,117.315253 113.684167,116.241971 C113.54103,115.160709 113.462274,114.071896 113.448314,112.98129 C113.420646,108.400284 114.698848,103.906228 117.133214,100.025474 C119.662473,95.9181704 123.504663,92.7853613 128.037069,91.1347891 C130.237871,90.358292 132.56653,90.0084857 134.898339,90.1041035 C136.045248,90.1638444 137.182541,90.3454951 138.290997,90.6459855 C139.421743,90.9354435 140.495987,91.4123485 141.469097,92.0568867 L141.469097,92.0568867 Z" id="Path" fill="#074E70" fillRule="nonzero"></path>
                            <path d="M133.53343,255.203632 C130.860559,255.526164 123.428033,256.474755 124.769731,259.856937 C125.877214,262.648758 135.461966,260.227493 135.461966,260.227493 C135.461966,260.227493 138.552221,254.59801 133.53343,255.203632 Z" id="Path" fill="#C69026" fillRule="nonzero"></path>
                            <path d="M141.762433,228.206405 C141.762433,228.206405 151.763511,254.11946 133.533416,255.203632 C131.119573,255.347186 132.120863,257.367971 135.461916,260.227493 C136.327488,260.968288 171.793933,244.229273 148.520363,237.238729 C146.222645,236.548573 141.762433,228.206405 141.762433,228.206405 Z" id="Path" fill="#E0E4EA" fillRule="nonzero"></path>
                        </g>
                    </g>
                </g>
            </g>
        </g>
    </g>
</svg>