<svg width="240" height="48" viewBox="0 0 240 48" fill="none" xmlns="http://www.w3.org/2000/svg">
<path fill-rule="evenodd" clip-rule="evenodd" d="M126.45 20.1C123.675 23.025 119.25 25.725 113.25 25.875C106.125 26.1 102.375 25.65 93.6001 21.825C95.3251 19.425 96.0001 17.025 96.0751 14.325C96.2251 10.65 94.5751 7.5 91.2751 5.475C87.7501 3.3 85.5751 2.25 85.5751 2.25C87.3001 3.225 88.4251 5.7 88.8751 8.925C89.4751 13.275 88.3501 18.6 83.3251 21.9L89.9251 33.525C84.9751 33 81.6001 35.625 81.6001 35.625L87.9751 41.025C87.9751 41.025 93.3751 37.575 101.925 39.3L91.5751 24.975C99.3751 29.25 111.6 31.875 111.6 31.875C111.6 31.875 107.1 31.95 103.425 30.9C102.3 30.6 101.325 30.9 102.825 31.725C103.2 31.95 107.85 34.275 112.275 34.8C120.225 35.625 123.225 32.55 123.9 31.5C124.63 30.3532 123.693 30.4382 121.669 30.6219C120.781 30.7025 119.683 30.8021 118.425 30.825C114.3 30.825 110.175 29.55 108.375 28.575C115.275 28.5 127.95 27.225 128.4 23.1C128.475 22.05 127.725 20.625 126.45 20.1ZM25.6503 5.47497C23.3253 10.5 26.4753 12.3 31.7253 12.3C33.6898 12.3 35.6542 11.6393 37.9343 10.8725C44.969 8.50678 55.0088 5.1304 77.3253 17.025C74.8503 17.7 71.7003 18.45 71.7003 18.45C69.3003 16.875 66.6753 18.3 64.5753 19.725C64.118 20.0209 63.5303 20.4761 62.8427 21.0087C59.6965 23.4457 54.4568 27.5042 50.0253 25.35C48.9003 24.75 46.6503 23.55 44.8503 23.7C43.8426 23.753 43.0974 24.1061 42.1108 24.5736C41.7023 24.7672 41.2524 24.9804 40.7253 25.2C38.9253 26.025 38.8503 24.675 40.8753 23.25C46.3503 19.5 58.3503 13.65 70.2003 15.45C54.3003 10.5 49.2003 11.325 32.7003 18.225C32.1003 18.525 31.4253 18.75 30.7503 18.975L30.7503 18.975C31.5003 20.1 33.9003 21 37.2753 20.025C37.373 19.9924 37.4875 19.9519 37.6155 19.9066C38.6668 19.5345 40.6306 18.8395 41.7003 19.575C41.7003 19.575 36.8253 22.725 32.6253 23.175C25.0503 24 15.1503 20.85 12.1503 17.55C11.1003 16.35 11.1003 15.3 12.3003 15.6L12.3454 15.61C13.1603 15.7915 17.6897 16.8 20.8503 16.8C23.0253 16.8 24.6753 16.65 26.0253 16.35C11.7753 11.025 22.2003 5.69997 25.5003 4.72497C26.2503 4.49997 25.8753 5.24997 25.6503 5.47497ZM157.051 12.15H150.451V14.475H154.351V14.775C154.351 15.45 154.201 15.975 153.901 16.425C153.601 16.875 153.226 17.175 152.776 17.4C152.326 17.625 151.801 17.7 151.351 17.7C150.151 17.7 149.176 17.25 148.501 16.425C147.826 15.6 147.451 14.4 147.451 12.9C147.451 11.925 147.676 11.025 147.976 10.35C148.276 9.67499 148.801 9.14999 149.401 8.77499C150.001 8.39999 150.676 8.24999 151.426 8.24999C152.101 8.24999 152.701 8.32499 153.301 8.62499C153.901 8.92499 154.501 9.29999 155.101 9.82499L156.826 8.02499C156.076 7.27499 155.251 6.74999 154.351 6.37499C153.451 5.99999 152.401 5.84999 151.276 5.84999C149.926 5.84999 148.801 6.14999 147.751 6.74999C146.701 7.34999 145.876 8.24999 145.351 9.29999C144.826 10.425 144.526 11.625 144.526 12.975C144.526 14.325 144.826 15.6 145.276 16.65C145.726 17.775 146.476 18.6 147.376 19.2C148.351 19.8 149.476 20.1 150.751 20.1C151.501 20.1 152.251 19.95 152.926 19.65C153.601 19.35 154.201 18.9 154.651 18.225V19.8H157.051V12.15ZM161.325 15.675H168.45V14.475C168.45 13.5 168.225 12.6 167.85 11.85C167.475 11.1 166.95 10.5 166.2 10.125C165.45 9.75002 164.625 9.52502 163.65 9.52502C162.675 9.52502 161.775 9.75002 161.025 10.2C160.275 10.65 159.675 11.25 159.3 12.075C158.925 12.9 158.7 13.8 158.7 14.85C158.7 15.825 158.925 16.725 159.375 17.55C159.825 18.375 160.425 18.975 161.175 19.425C161.925 19.875 162.825 20.1 163.875 20.1C165.45 20.1 166.875 19.575 168 18.525L166.725 16.8C166.275 17.175 165.825 17.475 165.375 17.625C164.925 17.775 164.475 17.85 163.95 17.85C163.275 17.85 162.675 17.625 162.225 17.25C161.775 16.875 161.475 16.35 161.325 15.675ZM161.4 13.725C161.55 13.05 161.85 12.525 162.225 12.15C162.6 11.775 163.125 11.55 163.65 11.55C164.25 11.55 164.775 11.775 165.15 12.15C165.525 12.525 165.75 13.05 165.825 13.725H161.4ZM183.975 10.425C184.575 11.025 184.875 11.85 184.875 12.825V19.725H182.175V13.65C182.175 13.125 182.025 12.675 181.725 12.375C181.425 12.075 181.05 11.85 180.525 11.85C180 11.85 179.625 12 179.325 12.375C179.025 12.75 178.875 13.2 178.875 13.725V19.725H176.175V13.65C176.175 13.125 176.025 12.675 175.8 12.375C175.5 12.075 175.125 11.85 174.6 11.85C174.075 11.85 173.625 12.075 173.325 12.45C173.025 12.825 172.875 13.35 172.875 13.95V19.8H170.175V9.82502H172.65V11.25C172.95 10.725 173.325 10.275 173.85 9.97502C174.375 9.67502 174.975 9.52502 175.65 9.52502C176.325 9.52502 176.925 9.67502 177.375 9.97502C177.9 10.275 178.275 10.65 178.5 11.175C178.8 10.65 179.25 10.275 179.775 9.97502C180.3 9.67502 180.9 9.52502 181.5 9.52502C182.55 9.52502 183.375 9.82502 183.975 10.425ZM189.151 15.675H196.276V14.475C196.276 13.5 196.051 12.6 195.676 11.85C195.301 11.1 194.776 10.5 194.026 10.125C193.276 9.75002 192.451 9.52502 191.476 9.52502C190.501 9.52502 189.601 9.75002 188.851 10.2C188.101 10.65 187.501 11.25 187.126 12.075C186.751 12.9 186.526 13.8 186.526 14.85C186.526 15.825 186.751 16.725 187.201 17.55C187.651 18.375 188.251 18.975 189.001 19.425C189.751 19.875 190.651 20.1 191.701 20.1C193.276 20.1 194.701 19.575 195.826 18.525L194.551 16.8C194.101 17.175 193.651 17.475 193.201 17.625C192.751 17.775 192.301 17.85 191.776 17.85C191.101 17.85 190.501 17.625 190.051 17.25C189.601 16.875 189.301 16.35 189.151 15.675ZM189.151 13.725C189.301 13.05 189.601 12.525 189.976 12.15C190.351 11.775 190.876 11.55 191.401 11.55C192.001 11.55 192.526 11.775 192.901 12.15C193.276 12.525 193.501 13.05 193.576 13.725H189.151ZM207.075 15.675H199.95C200.1 16.35 200.4 16.875 200.85 17.25C201.3 17.625 201.9 17.85 202.575 17.85C203.1 17.85 203.55 17.775 204 17.625C204.45 17.475 204.9 17.175 205.35 16.8L206.625 18.525C205.5 19.575 204.075 20.1 202.5 20.1C201.45 20.1 200.55 19.875 199.8 19.425C199.05 18.975 198.45 18.375 198 17.55C197.55 16.725 197.325 15.825 197.325 14.85C197.325 13.8 197.55 12.9 197.925 12.075C198.3 11.25 198.9 10.65 199.65 10.2C200.4 9.75002 201.3 9.52502 202.275 9.52502C203.25 9.52502 204.075 9.75002 204.825 10.125C205.575 10.5 206.1 11.1 206.475 11.85C206.85 12.6 207.075 13.5 207.075 14.475V15.675ZM200.775 12.15C200.4 12.525 200.1 13.05 199.95 13.725H204.375C204.3 13.05 204.075 12.525 203.7 12.15C203.325 11.775 202.8 11.55 202.2 11.55C201.675 11.55 201.225 11.775 200.775 12.15ZM217.651 13.05C217.651 12 217.351 11.175 216.751 10.5C216.151 9.82498 215.326 9.52498 214.201 9.44998C213.526 9.44998 212.851 9.67498 212.326 9.97498C211.801 10.275 211.351 10.725 211.126 11.25V9.82498H208.651V19.875H211.351V14.175C211.351 13.425 211.501 12.9 211.876 12.525C212.251 12.15 212.701 11.925 213.226 11.925C213.751 11.925 214.201 12.075 214.501 12.375C214.801 12.675 214.951 13.125 214.951 13.8V19.8H217.651V13.05ZM220.501 12H218.776V9.89998H220.501V7.57498L223.201 6.07498V9.82498H225.226V12H223.201V16.8C223.201 17.1 223.276 17.4 223.501 17.55C223.651 17.7 224.026 17.775 224.476 17.775C224.851 17.775 225.151 17.775 225.451 17.7V19.8C224.926 19.95 224.326 20.025 223.576 20.025C222.451 20.025 221.701 19.8 221.251 19.35C220.801 18.9 220.576 18.225 220.576 17.325V12H220.501ZM228.675 15.675H235.8V14.475C235.8 13.5 235.575 12.6 235.2 11.85C234.825 11.1 234.3 10.5 233.55 10.125C232.8 9.75002 231.975 9.52502 231 9.52502C230.025 9.52502 229.125 9.75002 228.375 10.2C227.625 10.65 227.025 11.25 226.65 12.075C226.275 12.9 226.05 13.8 226.05 14.85C226.05 15.825 226.275 16.725 226.725 17.55C227.175 18.375 227.775 18.975 228.525 19.425C229.275 19.875 230.175 20.1 231.225 20.1C232.8 20.1 234.225 19.575 235.35 18.525L234.075 16.8C233.625 17.175 233.175 17.475 232.725 17.625C232.275 17.775 231.825 17.85 231.3 17.85C230.625 17.85 230.025 17.625 229.575 17.25C229.125 16.875 228.825 16.35 228.675 15.675ZM228.75 13.725C228.9 13.05 229.2 12.525 229.575 12.15C229.95 11.775 230.475 11.55 231 11.55C231.6 11.55 232.125 11.775 232.5 12.15C232.875 12.525 233.1 13.05 233.175 13.725H228.75ZM156.675 38.775H153.6L150.375 33.75H148.2V38.775H145.5V25.05H151.95C152.775 25.05 153.525 25.2 154.125 25.575C154.8 25.95 155.325 26.475 155.7 27.15C156.075 27.825 156.225 28.575 156.225 29.4C156.225 30.45 155.925 31.275 155.4 32.025C154.875 32.775 154.125 33.225 153.225 33.525L156.675 38.775ZM148.2 27.375V31.425H151.425C152.025 31.425 152.55 31.275 152.925 30.9C153.3 30.525 153.525 30.075 153.525 29.4C153.525 28.725 153.3 28.275 152.925 27.9C152.55 27.525 152.025 27.375 151.425 27.375H148.2ZM157.875 36.525C158.325 37.35 158.925 37.95 159.675 38.4C160.425 38.85 161.325 39.075 162.3 39.075C163.275 39.075 164.175 38.85 164.925 38.4C165.675 37.95 166.275 37.35 166.725 36.525C167.175 35.7 167.4 34.8 167.4 33.75C167.4 32.7 167.175 31.8 166.725 30.975C166.275 30.225 165.675 29.625 164.925 29.175C164.175 28.725 163.275 28.5 162.3 28.5C161.325 28.5 160.425 28.725 159.675 29.175C158.925 29.55 158.325 30.15 157.875 30.975C157.425 31.8 157.2 32.7 157.2 33.75C157.2 34.8 157.425 35.7 157.875 36.525ZM164.625 33.75C164.625 34.725 164.4 35.475 163.95 36C163.575 36.525 162.975 36.825 162.3 36.825C161.625 36.825 161.1 36.525 160.65 36C160.2 35.4 159.975 34.725 159.975 33.75C159.975 32.775 160.2 32.025 160.65 31.5C161.025 30.975 161.625 30.675 162.3 30.675C162.975 30.675 163.5 30.975 163.95 31.5C164.4 32.1 164.625 32.775 164.625 33.75ZM169.725 30.975H168V28.875H169.725V26.55L172.425 25.05V28.8H174.45V30.9H172.425V35.7C172.425 36 172.5 36.3 172.725 36.45C172.875 36.6 173.25 36.675 173.7 36.675C174.075 36.675 174.375 36.675 174.675 36.6V38.7C174.15 38.85 173.55 38.925 172.8 38.925C171.675 38.925 170.925 38.7 170.475 38.25C170.025 37.8 169.8 37.125 169.8 36.225V30.975H169.725ZM175.425 30.975H177.15H177.225V36.225C177.225 37.125 177.45 37.8 177.9 38.25C178.35 38.7 179.1 38.925 180.225 38.925C180.975 38.925 181.575 38.85 182.1 38.7V36.6C181.8 36.675 181.5 36.675 181.125 36.675C180.675 36.675 180.3 36.6 180.15 36.45C179.925 36.3 179.85 36 179.85 35.7V30.9H181.875V28.8H179.85V25.05L177.15 26.55V28.875H175.425V30.975ZM192.45 34.65H185.325C185.475 35.325 185.775 35.85 186.225 36.225C186.675 36.6 187.275 36.825 187.95 36.825C188.475 36.825 188.925 36.75 189.375 36.6C189.825 36.45 190.275 36.15 190.725 35.775L192 37.5C190.875 38.55 189.45 39.075 187.875 39.075C186.825 39.075 185.925 38.85 185.175 38.4C184.425 37.95 183.825 37.35 183.375 36.525C182.925 35.7 182.7 34.8 182.7 33.825C182.7 32.775 182.925 31.875 183.3 31.05C183.675 30.225 184.275 29.625 185.025 29.175C185.775 28.725 186.675 28.5 187.65 28.5C188.625 28.5 189.45 28.725 190.2 29.1C190.95 29.475 191.475 30.075 191.85 30.825C192.225 31.575 192.45 32.475 192.45 33.45V34.65ZM186.15 31.125C185.775 31.5 185.475 32.025 185.325 32.7H189.75C189.675 32.025 189.45 31.5 189.075 31.125C188.7 30.75 188.175 30.525 187.575 30.525C187.05 30.6 186.6 30.75 186.15 31.125ZM200.475 31.35V28.8C200.175 28.725 199.875 28.725 199.425 28.725C198.75 28.725 198.15 28.95 197.625 29.325C197.1 29.7 196.8 30.15 196.575 30.825V28.875H194.1V38.775H196.8V34.8C196.8 33.675 197.025 32.775 197.55 32.175C198 31.575 198.675 31.275 199.5 31.275C199.875 31.275 200.175 31.275 200.475 31.35ZM208.2 24.6H210.9V38.775H208.425V37.35C207.825 38.475 206.775 39.075 205.35 39.075C204.525 39.075 203.775 38.85 203.1 38.4C202.425 37.95 201.9 37.35 201.525 36.525C201.15 35.7 201 34.8 201 33.75C201 32.7 201.15 31.8 201.525 30.975C201.9 30.15 202.425 29.55 203.1 29.175C203.775 28.8 204.525 28.5 205.35 28.5C206.625 28.5 207.525 28.95 208.2 29.925V24.6ZM207.6 36C208.05 35.475 208.275 34.725 208.275 33.75C208.275 32.775 208.05 32.1 207.6 31.575C207.15 31.05 206.625 30.75 205.95 30.75C205.275 30.75 204.675 31.05 204.3 31.575C203.85 32.1 203.7 32.85 203.7 33.825C203.7 34.725 203.925 35.475 204.3 36.075C204.75 36.6 205.275 36.9 205.95 36.9C206.625 36.825 207.225 36.6 207.6 36ZM222.825 36.675H221.55V31.8C221.55 29.625 220.2 28.5 217.5 28.5C216.525 28.5 215.7 28.65 214.875 28.95C214.05 29.175 213.375 29.55 212.85 30L214.125 31.725C214.5 31.425 215.025 31.2 215.55 30.975C216.075 30.75 216.675 30.675 217.2 30.675C217.8 30.675 218.325 30.825 218.55 31.05C218.775 31.35 218.925 31.725 218.925 32.175V32.4L216.675 32.85C215.475 33.075 214.5 33.45 213.75 33.975C213.075 34.5 212.7 35.25 212.7 36.225C212.7 37.125 213 37.875 213.675 38.4C214.35 38.925 215.175 39.15 216.15 39.15C216.9 39.15 217.575 38.925 218.1 38.625C218.625 38.325 219.075 37.875 219.3 37.35V38.775H222.825V36.675ZM218.85 35.175C218.85 35.775 218.7 36.225 218.25 36.525C217.8 36.9 217.35 37.05 216.825 36.975C216.375 36.975 216 36.9 215.7 36.675C215.4 36.525 215.25 36.225 215.25 35.925C215.25 35.55 215.4 35.25 215.7 35.1C216.075 34.95 216.525 34.8 217.2 34.65L218.85 34.275V35.175ZM238.05 29.4C238.65 30 238.95 30.825 238.95 31.8V38.7H236.25V32.625C236.25 32.1 236.1 31.65 235.8 31.35C235.5 31.05 235.125 30.825 234.6 30.825C234.075 30.825 233.7 30.975 233.4 31.35C233.1 31.725 232.95 32.175 232.95 32.7V38.7H230.25V32.625C230.25 32.1 230.1 31.65 229.875 31.35C229.575 31.05 229.2 30.825 228.675 30.825C228.15 30.825 227.7 31.05 227.4 31.425C227.1 31.8 226.95 32.325 226.95 32.925V38.775H224.25V28.875H226.725V30.3C227.025 29.775 227.4 29.325 227.925 29.025C228.45 28.725 229.05 28.575 229.725 28.575C230.4 28.575 231 28.725 231.45 29.025C231.975 29.325 232.35 29.7 232.575 30.225C232.875 29.7 233.325 29.325 233.85 29.025C234.375 28.725 234.975 28.575 235.575 28.575C236.7 28.5 237.45 28.8 238.05 29.4ZM71.7004 25.5L76.0504 24.45L78.5254 29.475V42.975C78.5254 42.975 75.6004 45.825 70.9504 44.85L64.5754 39.45C68.4754 40.425 71.7004 37.95 71.7004 37.95V25.5ZM81.3003 14.475C81.7503 13.425 81.9003 12.075 81.7503 10.8C81.6753 10.275 81.5253 9.74999 81.3753 9.22499C80.5736 7.25725 78.4264 7.69734 77.9615 7.79261L77.9253 7.79999L71.7003 9.29999C71.7003 9.29999 67.5753 6.29999 64.5753 5.09999C63.0753 4.49999 62.2503 4.27499 60.7503 4.12499C58.2003 3.89999 56.1753 6.29999 58.5753 6.52499C63.6003 6.97499 71.9253 11.325 80.3253 15.9C80.5212 15.7694 80.6603 15.5819 80.8416 15.3375C80.8684 15.3012 80.8962 15.2637 80.9253 15.225C80.9784 15.1187 81.0316 15.0219 81.0814 14.9311L81.0814 14.9309C81.1722 14.7655 81.2519 14.6202 81.3003 14.475ZM2.02537 10.8C0.600372 9.375 2.47537 7.425 4.87537 8.925C6.30037 9.75 7.05037 10.875 7.87537 12.825C8.33306 13.9438 8.06663 13.7523 7.47355 13.3259C7.19195 13.1235 6.83671 12.8682 6.45037 12.675C5.08109 12.0079 4.28707 11.8339 3.70668 11.7067C3.04726 11.5622 2.66362 11.4781 2.02537 10.8Z" fill="white"/>
</svg>
