<svg width="73" height="97" xmlns="http://www.w3.org/2000/svg"><g fill-rule="nonzero" fill="none"><path d="M5.392 82.053v3.914c0 1.411-.99 2.272-2.39 2.272a3.449 3.449 0 0 1-1.976-.624l.426-.793c.443.316.97.495 1.513.514.903 0 1.41-.545 1.41-1.267v-.254c-.35.391-.857.608-1.382.592a2.128 2.128 0 0 1-2.17-2.226 2.164 2.164 0 0 1 2.21-2.233c.529-.01 1.034.22 1.374.624v-.519h.985Zm-.977 2.136a1.27 1.27 0 1 0-2.538-.1 1.27 1.27 0 0 0 2.538.1Zm6.169.41H7.279a1.24 1.24 0 0 0 1.33.999 2.673 2.673 0 0 0 1.43-.449l.418.745c-.553.39-1.213.6-1.89.601-1.632 0-2.352-1.129-2.352-2.258a2.173 2.173 0 0 1 2.258-2.274c1.225 0 2.153.81 2.153 2.184a4.29 4.29 0 0 1-.042.452Zm-3.305-.791h2.32a1.096 1.096 0 0 0-1.129-.985 1.191 1.191 0 0 0-1.19.985h-.001Zm11.114-.025v2.616h-1.036v-2.425c0-.719-.375-1.08-.903-1.08-.584 0-1.002.431-1.002 1.111v2.394h-1.038v-2.416c0-.689-.37-1.089-.92-1.089s-1.01.414-1.01 1.128v2.385H11.43v-4.346h1.024v.618c.27-.47.777-.756 1.32-.742a1.411 1.411 0 0 1 1.296.776 1.832 1.832 0 0 1 1.56-.776c1.008-.003 1.762.66 1.762 1.846h.001Zm5.151.816H20.23c.12.625.694 1.057 1.327.999a2.674 2.674 0 0 0 1.433-.449l.415.745a3.25 3.25 0 0 1-1.888.601c-1.631 0-2.35-1.129-2.35-2.258a2.172 2.172 0 0 1 2.257-2.274c1.225 0 2.154.81 2.154 2.184a4.44 4.44 0 0 1-.034.452Zm-3.314-.791h2.32a1.096 1.096 0 0 0-1.129-.985 1.191 1.191 0 0 0-1.19.985h-.001Zm8.298.791h-3.313c.12.624.693 1.056 1.326.999a2.683 2.683 0 0 0 1.434-.449l.415.745a3.25 3.25 0 0 1-1.888.601c-1.632 0-2.351-1.129-2.351-2.258a2.172 2.172 0 0 1 2.257-2.274c1.225 0 2.154.81 2.154 2.184a4.44 4.44 0 0 1-.034.452Zm-3.313-.791h2.32a1.095 1.095 0 0 0-1.129-.985 1.191 1.191 0 0 0-1.191.985Zm4.151-1.755h1.024v.609a1.51 1.51 0 0 1 1.369-.719c.878 0 1.693.564 1.693 1.806v2.65h-1.05v-2.362c0-.742-.392-1.143-.95-1.143-.624 0-1.056.48-1.056 1.16v2.345h-1.041l.01-4.346h.001Zm8.12 4.089a2.309 2.309 0 0 1-1.256.361c-.985 0-1.487-.592-1.487-1.693v-1.877h-.734v-.88h.736v-1.535h1.033v1.535h1.457v.88h-1.457v1.832c0 .514.184.785.633.785.26-.006.515-.084.736-.223l.339.815Zm4.631-1.543h-3.31c.12.624.693 1.056 1.326.999a2.683 2.683 0 0 0 1.434-.449l.415.745a3.25 3.25 0 0 1-1.889.601c-1.63 0-2.35-1.129-2.35-2.258a2.17 2.17 0 0 1 .629-1.633A2.184 2.184 0 0 1 40 81.963c1.225 0 2.154.81 2.154 2.184a3.786 3.786 0 0 1-.037.452Zm-3.31-.791h2.32a1.095 1.095 0 0 0-1.129-.985 1.191 1.191 0 0 0-1.191.985ZM1.003 90.084h1.095v2.394h2.594v-2.394h1.095v5.913H4.692v-2.464H2.098v2.464H1.003v-5.913Zm10.264 1.57v4.343h-.994v-.536a1.829 1.829 0 0 1-1.41.64c-1.256 0-2.151-1.007-2.151-2.297 0-1.29.912-2.258 2.15-2.258a1.836 1.836 0 0 1 1.412.655v-.547h.993Zm-.965 2.167a1.282 1.282 0 0 0-2.2-.838 1.28 1.28 0 1 0 2.2.838Zm6.355-2.167v4.343h-.993v-.536c-.354.41-.87.644-1.411.64-1.256 0-2.153-1.007-2.153-2.297 0-1.29.911-2.258 2.153-2.258a1.836 1.836 0 0 1 1.411.655v-.547h.993Zm-.968 2.167a1.279 1.279 0 0 0-.822-1.139 1.283 1.283 0 0 0-1.37.307 1.279 1.279 0 0 0 .21 1.947 1.277 1.277 0 0 0 1.982-1.115Zm2.033-2.167h.999v.598c.23-.452.701-.729 1.208-.711.177 0 .354.03.522.087l-.09 1.002a1.622 1.622 0 0 0-.503-.09c-.601 0-1.098.384-1.098 1.338v2.119h-1.038v-4.343Zm3.304 4.343v-6.081h1.042v6.081h-1.042Zm6.249-1.8h-3.313a1.24 1.24 0 0 0 1.326 1.002 2.703 2.703 0 0 0 1.434-.449l.415.745a3.265 3.265 0 0 1-1.888.598c-1.632 0-2.351-1.129-2.351-2.258a2.172 2.172 0 0 1 2.257-2.271c1.225 0 2.154.807 2.154 2.184-.004.15-.015.3-.034.449Zm-3.313-.793h2.32a1.095 1.095 0 0 0-1.13-.985 1.185 1.185 0 0 0-1.19.985Zm11.114-.023v2.616h-1.05v-2.424c0-.72-.376-1.081-.903-1.081-.584 0-1.002.432-1.002 1.129v2.39h-1.039v-2.416c0-.688-.37-1.089-.92-1.089s-1.007.418-1.007 1.129v2.385h-1.042v-4.366h1.025v.621a1.48 1.48 0 0 1 1.32-.745 1.403 1.403 0 0 1 1.296.776 1.823 1.823 0 0 1 1.56-.776c1 .002 1.762.666 1.762 1.851Zm7.964 0v2.616h-1.05v-2.424c0-.72-.376-1.081-.903-1.081-.585 0-1 .432-1 1.129v2.39h-1.04v-2.416c0-.688-.37-1.089-.92-1.089-.551 0-1.009.418-1.009 1.129v2.385h-1.04v-4.366h1.035v.621a1.48 1.48 0 0 1 1.32-.745 1.408 1.408 0 0 1 1.295.776 1.825 1.825 0 0 1 1.562-.776c.99.002 1.75.666 1.75 1.851Zm5.153.816H44.88a1.24 1.24 0 0 0 1.329 1.002 2.692 2.692 0 0 0 1.43-.449l.418.745a3.281 3.281 0 0 1-1.888.598c-1.634 0-2.353-1.129-2.353-2.258a2.172 2.172 0 0 1 2.257-2.271c1.225 0 2.154.807 2.154 2.184-.003.15-.014.3-.034.449Zm-3.313-.793h2.32a1.095 1.095 0 0 0-1.13-.985 1.185 1.185 0 0 0-1.19.985Zm4.151-1.75h1v.598a1.3 1.3 0 0 1 1.21-.711c.177 0 .352.03.52.087l-.088 1.002a1.64 1.64 0 0 0-.505-.09c-.599 0-1.095.384-1.095 1.338v2.119H49.03v-4.343h.001Zm10.267 1.727v2.616h-1.05v-2.424c0-.72-.375-1.081-.903-1.081-.584 0-1.001.432-1.001 1.129v2.39h-1.04v-2.416c0-.688-.369-1.089-.92-1.089-.55 0-1.01.418-1.01 1.129v2.385h-1.038v-4.366h1.024v.621c.27-.473.776-.759 1.32-.745a1.408 1.408 0 0 1 1.295.776 1.81 1.81 0 0 1 1.562-.776c1 .002 1.761.666 1.761 1.851Zm5.151.816h-3.314a1.24 1.24 0 0 0 1.327 1.002 2.702 2.702 0 0 0 1.434-.449l.415.745c-.553.39-1.213.6-1.889.598-1.63 0-2.35-1.129-2.35-2.258a2.172 2.172 0 0 1 2.257-2.271c1.225 0 2.154.807 2.154 2.184-.004.15-.015.3-.034.449Zm-3.314-.793h2.32a1.095 1.095 0 0 0-1.129-.985 1.185 1.185 0 0 0-1.19.985h-.001Zm8.298.793H66.12a1.24 1.24 0 0 0 1.326 1.002 2.703 2.703 0 0 0 1.434-.449l.415.745a3.266 3.266 0 0 1-1.888.598c-1.631 0-2.351-1.129-2.351-2.258a2.172 2.172 0 0 1 2.257-2.271c1.225 0 2.154.807 2.154 2.184-.004.15-.015.3-.034.449Zm-3.313-.793h2.32a1.095 1.095 0 0 0-1.13-.985 1.185 1.185 0 0 0-1.19.985Zm4.151-1.75h.99v.598c.23-.452.702-.729 1.209-.711.177 0 .354.03.522.087l-.088 1.002a1.64 1.64 0 0 0-.505-.09c-.601 0-1.098.384-1.098 1.338v2.119h-1.038l.008-4.343Z" fill="#9C2F85"/><path fill="#FFF" d="M73 24H49v24h24z"/><path fill="#BECF25" d="M73 48H49v24h24z"/><path d="M57.314 29.616h-4.578L57.314 36l-4.578 6.381h4.578L61.892 36l-4.578-6.384Zm9.152 0h-4.574L66.466 36l-4.574 6.381h4.574L71.044 36l-4.578-6.384Z" fill="#F09023"/><path fill="#EE8609" d="M25 0H1v24h24z"/><path d="M21.653 14.627c-.874-1.877-2.41-5.238-2.87-6.324l3.226-3.934-.627-.517-2 1.888-15.483 8.887H2.527v1.166h20.108V14.63l-.982-.003Zm-6.014-2.489c.223.147 1.01.64 4.014 2.49h-6.054l2.04-2.49Zm-3.542 2.49h-1.975l4.493-3.069-2.518 3.068v.001Zm7.948-.991a446.139 446.139 0 0 1-3.737-2.315L18.03 9.22c.4.872 1.318 2.904 2.015 4.417Zm-2.54-5.614-.525.64-8.72 5.964H6l11.504-6.604h.001Z" fill="#FFF"/><path fill="#9C2F85" d="M25 24H1v24h24z"/><path fill="#23ABB7" d="M49 24H25v24h24z"/><path d="m63.885 63.231-2.887-2.844-2.885 2.844v4.533h5.772v-4.533Zm0-9.073-2.887-2.844-2.885 2.844v4.533h5.772v-4.533Zm-5.773 4.515-2.884-2.844-2.884 2.844v4.533h5.768v-4.533Zm11.541 0L66.77 55.83l-2.884 2.844v4.533h5.768v-4.533l-.001-.001ZM21.644 40.84H4.356l4.368-9.324h8.552l4.368 9.324Zm19.086-2.376v-2.396l3.574-.757a.472.472 0 0 0 .327-.485c-.045-.449-.418-.412-.418-.412h-3.482v-2.696h-3.054v-4.416h-1.352v4.416h-3.048v2.701H29.8s-.372-.036-.417.412a.468.468 0 0 0 .327.486l3.573.756v2.396h-4.287v4.327h1.191a1.846 1.846 0 0 1 3.689 0h1.086a2.221 2.221 0 1 1 4.4 0h1.151a1.846 1.846 0 0 1 3.69 0h.812v-4.332H40.73Z" fill="#FFF"/><path d="m9.297 22.981-1.334 3.418-1.677-1.087-.866.124-.44.799 2.568 2.306 1.524-.613 1.693-3.05s1.273-.43 1.865-.67l.359-.784-2.06-1.569-1.632 1.126Z" fill="#23ABB7"/><path d="m18.87 23.018 1.519-3.686-1.753-4.95 1.411-.045.98-2.495-2.394.943-.55 1.51 1.693 5.046-1.29 2.915-1.292-.014s-1.279-1.013-1.792-1.908v-2.61h1.76l-.564-1.324c-.197-.127.915.11.915.11l-.53-2.066.315-1.569-.471-2.258s-.663-.485-.75-.587c-.1-.22-.619-1.024-.619-1.024s-.338.307-.59.508a7.142 7.142 0 0 1-.527-.282s-.39.564-.52.736l-.846.107-1.835 1.26.68.705c.133-.105.949-.712 1.225.017-.231.104-2.684.81-2.684.81l.088-1.033-.929.77.81 1.047s2.182-.976 2.777-1.298c0 .658-.883.793-.883.793l.082 1.129 1.388-.502-.398.903-1.78 1.128-3.489-2.833-1.648-.423-.638 1.447.847.695 1.129-.218c.787.912 2.258 2.6 2.303 2.577-.062.031-2.715 2.103-2.873 2.224l-.697-.79-1.092.034-.381 1.535 1.532.564 1.496-.053 2.71-1.603.93 2.286 1.942 1.882-.494 2.142.867 1.146 2.59-.031c-.017.028-.053 2.1-.053 2.1l-2.04.451-.667.847.339.937s3.2-.824 3.327-1.05c.584-1.039 1.572-4.259 1.572-4.259l-.564-.725s-1.338-.037-1.335 0c0-.02.251-1.267.24-1.29l1.501-.378Z" fill="#23ABB7"/><path d="M61 39.237s1.394-1.225 1.394-2.72c0-1.496-1.394-2.45-1.394-2.45s-1.394.951-1.394 2.45c0 1.498 1.394 2.72 1.394 2.72Zm-2.243 1.857c1.439.889 1.893 1.022 1.893 1.022v-1.454a2.408 2.408 0 0 0-1.241-1.896 157.866 157.866 0 0 1-1.976-1.152v1.24s-.119 1.351 1.324 2.24Zm0 3.457c1.439.89 1.893 1.022 1.893 1.022v-1.454a2.41 2.41 0 0 0-1.253-1.896c-1.467-.847-1.975-1.152-1.975-1.152v1.25s-.108 1.341 1.335 2.23Zm0 3.458c1.439.889 1.893 1.024 1.893 1.024v-1.456a2.404 2.404 0 0 0-1.253-1.894c-1.467-.847-1.975-1.154-1.975-1.154v1.239s-.108 1.352 1.335 2.24v.001Zm4.484-6.915c1.442-.889 1.34-2.24 1.34-2.24v-1.24s-.513.305-1.975 1.152a2.41 2.41 0 0 0-1.253 1.896c-.014.164 0 1.454 0 1.454s.449-.133 1.888-1.022Zm1.344-.023s-.514.305-1.976 1.152a2.411 2.411 0 0 0-1.253 1.896c-.014.164 0 1.454 0 1.454s.454-.133 1.894-1.022c1.439-.889 1.34-2.24 1.34-2.24l-.005-1.24Zm0 3.458s-.514.305-1.976 1.154a2.404 2.404 0 0 0-1.253 1.894c-.014.163 0 1.456 0 1.456s.454-.135 1.894-1.024c1.439-.89 1.34-2.241 1.34-2.241l-.005-1.24v.001Z" fill="#CA257F"/><path d="M64.584 47.986s-.513.305-1.975 1.154c-1.016.587-1.606 2.03-1.606 2.03-.093-.088-.584-1.443-1.6-2.03a128.4 128.4 0 0 1-1.976-1.154v1.239s-.101 1.352 1.34 2.24c.534.342 1.087.651 1.657.926v2.4h1.174v-2.4a16.183 16.183 0 0 0 1.654-.925c1.443-.89 1.34-2.241 1.34-2.241l-.008-1.24v.001Z" fill="#CA257F"/><path fill="#9ACDA4" d="M25 48H1v24h24z"/><path d="M8.058 53.136c-1.874 0-3.57.813-3.821 1.513H4.22v9.547l1.495 1.03v.98H10.4v-.98l1.499-1.03V54.65h-.023c-.33-.7-1.944-1.513-3.818-1.513v-.001Zm0 1.499 1.16.765-1.16.764L6.9 55.4l1.157-.765h.001Zm-1.143 3.406 1.157-.765 1.16.765-1.16.765-1.157-.765Zm2.317 2.642-1.16.765-1.157-.765 1.157-.765 1.16.765Zm-3.164-4.727 1.16.764-1.16.765-1.168-.77 1.168-.76v.001Zm0 2.641 1.16.765-1.16.765-1.157-.765 1.157-.765Zm-1.157 3.407 1.157-.774 1.16.765-1.16.773-1.157-.764Zm3.158 2.085-1.157-.765 1.157-.764 1.16.764-1.16.765Zm2.001-1.32-1.157-.765 1.157-.765 1.16.765-1.16.764v.001Zm0-2.642-1.157-.765 1.157-.765 1.16.765-1.16.765Zm0-2.642-1.18-.77 1.158-.765 1.16.765-1.138.77Zm11.687-2.836c-.33-.7-1.944-1.513-3.818-1.513s-3.573.813-3.822 1.513h-.02v9.547l1.5 1.03v.98h4.684v-.98l1.499-1.03V54.65h-.023v-.001Zm-3.818-.014 1.16.765-1.16.764-1.157-.764 1.157-.765Zm-1.146 3.406 1.157-.765 1.16.765-1.16.765-1.157-.765Zm2.317 2.642-1.16.765-1.157-.765 1.157-.765 1.16.765Zm-3.164-4.727 1.16.764-1.16.765-1.157-.765 1.157-.764Zm0 2.641 1.16.765-1.16.765-1.157-.765 1.157-.765Zm-1.157 3.407 1.157-.774 1.16.765-1.16.773-1.157-.764Zm3.158 2.085-1.157-.765 1.157-.764 1.16.764-1.16.765Zm2.001-1.32-1.157-.765 1.157-.765 1.16.765-1.16.764v.001Zm0-2.642-1.157-.765 1.157-.765 1.16.765-1.16.765Zm0-2.642-1.157-.765 1.157-.764 1.16.764-1.16.765Z" fill="#FFF"/><path d="M18.004 60.734c0-4.465-4.366-9.384-4.55-9.596L13 50.633l-.44.511c-.186.206-4.552 5.125-4.552 9.596 0 3.07 1.78 5.277 4.397 5.573v2.21h1.219v-2.212c2.605-.3 4.38-2.507 4.38-5.577Zm-5.613-1.617v2.413l-3.076-1.91a10.1 10.1 0 0 1 .595-2.044l2.48 1.54.001.001Zm1.219 2.413v-2.413l2.48-1.541c.27.658.47 1.343.596 2.043l-3.076 1.91v.001Zm0-3.847V53.29a22.168 22.168 0 0 1 1.975 3.166l-1.975 1.228v-.001Zm-1.22 0-1.975-1.225c.569-1.11 1.23-2.17 1.976-3.169v4.394h-.001Zm0 5.28v2.114c-1.85-.282-3.078-1.84-3.169-4.083l3.17 1.97-.001-.001Zm1.22 0 3.17-1.975c-.091 2.244-1.319 3.804-3.17 4.084v-2.109Z" fill="#CA257F"/><path fill="#77B868" d="M73 0H49v24h24z"/><path d="M57.176 12.593h-.446V6.847h1.397v-1.38h-4.174v1.38h1.397v5.746h-.443a1.974 1.974 0 0 0-1.975 2.238c.098.97.502 3.83.502 3.83h.612v-3.83a.863.863 0 0 1 .864-.86h.443l.387 4.69h.607l.386-4.69h.446a.863.863 0 0 1 .86.86v3.83h.608s.443-2.86.539-3.83a1.975 1.975 0 0 0-2.01-2.238Zm9.432.197V6.847h1.411v-1.38h-4.177v1.38h1.397v5.943h-1.975v3.302c0 1.767 2.627 2.85 2.627 2.85s2.628-1.083 2.628-2.85V12.79h-1.911Zm.847 3.105c0 1.05-1.558 1.693-1.558 1.693s-1.555-.64-1.555-1.693v-1.956h3.104l.009 1.956Z" fill="#9C2F85"/><path d="M63.446 7.202h-1.318l.596-2.125-.906-.545a.918.918 0 1 0-1.64 0l-.906.537.596 2.125H58.56l-.601.592 1.166 4.056h.756v7.668h2.232v-7.668h.757L64.047 7.8l-.602-.598h.001Z" fill="#FFF"/><path d="M35.595 32.063a5.296 5.296 0 0 0-3.13.945 3.768 3.768 0 0 1-4.327 0 5.288 5.288 0 0 0-3.127-.948h-.033a5.28 5.28 0 0 0-3.105.948 3.77 3.77 0 0 1-4.329 0 5.28 5.28 0 0 0-3.127-.948h-.282v1.818h.282a3.575 3.575 0 0 1 2.173.68 5.258 5.258 0 0 0 3.13.95h.023a5.28 5.28 0 0 0 3.127-.947 3.768 3.768 0 0 1 4.326 0c.917.638 2.013.97 3.13.948h.022a5.255 5.255 0 0 0 3.096-.948 3.58 3.58 0 0 1 2.173-.68h.283v-1.818h-.305Zm0 4.423a5.277 5.277 0 0 0-3.13.95 3.78 3.78 0 0 1-4.327 0 5.266 5.266 0 0 0-3.127-.95h-.033a5.26 5.26 0 0 0-3.105.95 3.785 3.785 0 0 1-4.329 0 5.26 5.26 0 0 0-3.127-.95h-.282v1.817h.282a3.559 3.559 0 0 1 2.173.683c.916.64 2.012.974 3.13.951h.023a5.26 5.26 0 0 0 3.127-.951 3.778 3.778 0 0 1 4.326 0c.916.64 2.012.974 3.13.951h.022a5.275 5.275 0 0 0 3.096-.951c.63-.46 1.394-.7 2.173-.683h.283v-1.817h-.305Z" fill="#FAC105"/></g></svg>