<svg xmlns="http://www.w3.org/2000/svg" width="1445.213" height="453.587" fill="#ed1c24" xmlns:v="https://vecta.io/nano">
<path d="M0 426.92l39.996-39.997L0 346.922l26.667-26.667 40 40 40-40 26.667 26.667-40 40.001 40 39.997-26.667 26.667-40-39.997-40 39.997L0 426.92m.004-320.251l39.999-40.001L.004 26.665 26.667.001l40.003 40 40-40 26.667 26.664-40.004 40.003 40.004 40.001-26.667 26.665-40-40.001-39.996 40.001-26.67-26.665"/>
<path d="M.004 266.932l39.999-39.999-39.999-40 26.668-26.668 39.998 40.001 40-40.001 26.667 26.668-39.999 40.001 39.999 39.999L106.67 293.6l-40-39.999L26.672 293.6.004 266.932m386.87-92.251c-19.628 10.497-41.993 15.975-66.872 15.975-49.756 0-85.361-33.779-85.361-84.22 0-51.808 35.605-85.586 85.361-85.586 24.649 0 46.788 5.248 63.677 20.312l-21.225 21.453c-10.271-10.041-26.019-15.747-42.225-15.747-33.321 0-55.46 25.563-55.46 57.744 0 34.463 22.139 60.025 55.46 60.025 14.609 0 27.845-2.739 37.888-8.444v-38.117h-33.095V92.057h61.852v82.624m109.558-53.865c-.229-15.977-10.729-26.017-27.848-26.017-16.203 0-26.247 10.269-28.299 26.017zm-56.147 20.543c1.824 16.203 14.148 26.017 29.441 26.017 13.693 0 22.595-6.391 29.449-14.836l19.631 14.836c-12.783 15.749-28.996 21.912-46.341 21.912-33.095 0-59.569-23.052-59.569-57.517s26.475-57.515 59.569-57.515c30.593 0 51.363 21.453 51.363 59.571v7.532h-83.542m107.962-64.365h26.02v17.117h.459c4.792-10.271 15.292-19.856 33.549-19.856 16.888 0 28.531 6.619 34.235 20.313 7.989-13.921 19.625-20.313 36.063-20.313 29.216 0 39.484 20.769 39.484 47.017v65.275h-27.391v-62.08c0-13.695-4.104-25.564-20.309-25.564-17.12 0-23.511 14.153-23.511 28.303v59.341h-27.388v-65.275c0-13.467-5.477-22.369-18.713-22.369-18.035 0-25.108 13.239-25.108 27.845v59.799h-27.389V76.994m277.766 43.822c-.229-15.977-10.727-26.017-27.847-26.017-16.203 0-26.248 10.269-28.3 26.017zm-56.147 20.543c1.825 16.203 14.152 26.017 29.443 26.017 13.693 0 22.595-6.391 29.443-14.836l19.628 14.836c-12.781 15.749-28.987 21.912-46.333 21.912-33.091 0-59.571-23.052-59.571-57.517s26.48-57.515 59.571-57.515c30.584 0 51.355 21.453 51.355 59.571v7.532H769.87m187.15-20.543c-.227-15.977-10.727-26.017-27.847-26.017-16.204 0-26.245 10.269-28.297 26.017zm-56.144 20.543c1.825 16.203 14.149 26.017 29.44 26.017 13.693 0 22.597-6.391 29.443-14.836l19.628 14.836c-12.781 15.749-28.984 21.912-46.331 21.912-33.096 0-59.573-23.052-59.573-57.517s26.477-57.515 59.573-57.515c30.58 0 51.355 21.453 51.355 59.571v7.532h-83.534m109.095-64.365h26.021v17.575h.453c5.021-10.955 15.292-20.313 33.552-20.313 29.443 0 39.943 20.769 39.943 43.137v69.154h-27.391v-55.463c0-12.095-.912-32.181-20.085-32.181-18.029 0-25.105 13.239-25.105 27.845v59.799h-27.388V76.994m118.227 23.28v-23.28h22.597V45.269h27.385v31.725h30.129v23.28h-30.129v47.929c0 10.956 3.195 17.803 15.291 17.803 4.792 0 11.415-.913 14.839-3.423v23.052c-5.708 2.739-15.293 3.652-21.684 3.652-28.985 0-35.831-13.009-35.831-38.8v-50.213h-22.597"/>
<path d="M1307.818 120.816c-.229-15.977-10.727-26.017-27.847-26.017-16.205 0-26.247 10.269-28.299 26.017zm-56.145 20.543c1.825 16.203 14.151 26.017 29.44 26.017 13.695 0 22.596-6.391 29.445-14.836l19.628 14.836c-12.784 15.749-28.985 21.912-46.333 21.912-33.097 0-59.571-23.052-59.571-57.517s26.473-57.515 59.571-57.515c30.583 0 51.357 21.453 51.357 59.571v7.532h-83.537m-919.575 223.88l-24.877-65.733-25.336 65.733zm-36.517-99.967h24.877l69.612 161.59h-32.867l-15.063-36.974h-70.069l-14.607 36.974h-32.181l70.297-161.59"/>
<path d="M404.448 317.31h26.017v17.117h.457c4.793-10.272 15.291-19.86 33.549-19.86 16.892 0 28.531 6.622 34.241 20.316 7.991-13.922 19.633-20.316 36.068-20.316 29.211 0 39.484 20.773 39.484 47.018v65.277h-27.391V364.78c0-13.695-4.107-25.561-20.312-25.561-17.117 0-23.509 14.152-23.509 28.3v59.344h-27.397v-65.277c0-13.463-5.476-22.367-18.715-22.367-18.031 0-25.107 13.24-25.107 27.847v59.797h-27.387V317.31m258.15 30.353c-5.252-7.3-12.099-11.181-21.453-11.181-7.307 0-15.979 3.422-15.979 11.64 0 19.626 59.115 3.649 59.115 46.332 0 26.016-24.877 35.145-47.245 35.145-16.891 0-31.497-4.335-42.684-16.892l18.263-17.113c7.073 7.761 14.377 13.464 26.019 13.464 7.987 0 18.26-3.879 18.26-12.552 0-22.596-59.117-4.791-59.117-46.557 0-24.423 21.912-35.381 44.049-35.381 14.609 0 30.131 4.568 39.032 16.664l-18.259 16.432m30.121-7.075V317.31h22.599v-31.724h27.385v31.724h30.128v23.279h-30.128v47.933c0 10.953 3.196 17.8 15.295 17.8 4.792 0 11.412-.915 14.833-3.425v23.049c-5.705 2.74-15.292 3.652-21.683 3.652-28.987 0-35.831-13.008-35.831-38.797v-50.213h-22.599m179.623 20.539c-.229-15.975-10.727-26.016-27.844-26.016-16.208 0-26.249 10.269-28.304 26.016zm-56.148 20.545c1.825 16.204 14.151 26.017 29.443 26.017 13.695 0 22.596-6.391 29.445-14.834l19.627 14.834c-12.784 15.75-28.984 21.909-46.333 21.909-33.093 0-59.571-23.047-59.571-57.516s26.477-57.516 59.571-57.516c30.587 0 51.355 21.456 51.355 59.57v7.535h-83.536m109.098-64.361h27.391v17.346h.455c5.933-12.555 18.029-20.088 32.409-20.088 3.424 0 6.617.688 9.815 1.6v26.476c-4.564-1.144-8.897-2.054-13.236-2.054-25.789 0-29.443 21.684-29.443 27.616v58.659h-27.391V317.31m138.994 87.642c20.085 0 32.184-15.748 32.184-32.869 0-17.113-12.099-32.864-32.184-32.864s-32.183 15.751-32.183 32.864c0 17.121 12.096 32.869 32.183 32.869zm32.637 5.476h-.453c-7.992 13.239-22.367 19.171-37.661 19.171-33.781 0-54.093-25.104-54.093-57.516 0-32.406 21.683-57.516 52.953-57.516 20.541 0 31.495 9.588 37.2 16.664h.685v-76.913h27.391v172.545h-26.021v-16.435m123.933-32.637h-5.707c-15.065 0-41.08 1.141-41.08 16.885 0 10.047 10.271 14.382 19.172 14.382 18.711 0 27.615-9.813 27.615-25.107zm1.596 34.005h-.68c-7.763 12.327-20.544 17.803-35.153 17.803-20.311 0-39.94-11.179-39.94-32.865 0-35.607 41.539-38.116 68.929-38.116h6.844v-2.962c0-13.468-10.5-20.544-25.107-20.544-11.409 0-21.907 4.566-29.211 11.412l-14.379-14.381c12.097-12.324 29.212-17.575 46.557-17.575 46.792 0 46.792 33.78 46.792 49.304v62.992h-24.653v-15.067m52.954-94.487h26.017v17.117h.456c4.795-10.272 15.295-19.86 33.545-19.86 16.893 0 28.533 6.622 34.24 20.316 7.987-13.922 19.627-20.316 36.067-20.316 29.213 0 39.48 20.773 39.48 47.018v65.277h-27.387V364.78c0-13.695-4.107-25.561-20.32-25.561-17.107 0-23.507 14.152-23.507 28.3v59.344h-27.387v-65.277c0-13.463-5.48-22.367-18.713-22.367-18.029 0-25.107 13.24-25.107 27.847v59.797h-27.385V317.31"/>
</svg>