<svg xmlns="http://www.w3.org/2000/svg" width="197" height="104" viewBox="0 0 197 104">
    <g fill="none" fill-rule="evenodd">
        <path fill="#FFF" d="M0 0h197v104H0z"/>
        <path fill="#CA464C" d="M126.712 63.198c1.753 0 2.48-.578 2.48-2.331 0-1.754-.727-2.052-2.48-2.052h-1.306v4.383h1.306zm.731 2.686h-2.037v4.16h-3.208v-13.99h5.11c3.19 0 5.242 1.026 5.242 4.663 0 2.239-1.1 3.357-2.257 4.086l-.033.014 3.343 5.227h-3.533l-2.627-4.16zm15.69-9.83v8.3l-5.261-8.3h-2.91v13.99h3.208v-8.3l5.242 8.3h2.928v-13.99h-3.208zm-26.565 6.621c0-2.386-.652-3.99-3.058-3.99-2.407 0-3.06 1.604-3.06 3.99v.598c0 2.406.653 4.141 3.06 4.141 2.406 0 3.058-1.735 3.058-4.14v-.599zm3.359 0v.598c0 4.29-2.127 6.92-6.417 6.92-4.309 0-6.417-2.63-6.417-6.92v-.598c0-4.289 2.108-6.77 6.417-6.77 4.29 0 6.417 2.481 6.417 6.77zm-17.696 0c0-2.386-.653-3.99-3.059-3.99s-3.059 1.604-3.059 3.99v.598c0 2.406.653 4.141 3.059 4.141s3.059-1.735 3.059-4.14v-.599zm3.357 0v.598c0 4.29-2.126 6.92-6.416 6.92-4.308 0-6.416-2.63-6.416-6.92v-.598c0-4.289 2.108-6.77 6.416-6.77 4.29 0 6.416 2.481 6.416 6.77zm-18.312-6.62h3.208v13.989h-3.208v-5.839h-4.962v5.839h-3.208v-13.99h3.208v5.39h4.962v-5.39z"/>
        <path fill="#B2B2B2" d="M78.517 46.203v-1.457c0-4.445 3.436-6.424 7.451-6.424 1.457 0 2.988.224 4.37.728v2.783h-.15c-1.381-.523-3.137-.73-4.37-.73-2.334 0-3.94 1.309-3.94 3.643v1.457c0 2.11 1.382 3.641 3.493 3.641h.728c.336 0 1.027-.075 1.326-.13V47.51H85.37v-2.764h4.967v7.078c-.728.28-2.484.803-4.239.803h-.728c-4.146 0-6.854-2.26-6.854-6.424zM93.1 48.687V38.47h9.057v2.764h-5.845v2.782h5.247v2.764h-5.247v1.326c0 1.158.298 1.607 1.456 1.607h4.67v2.764H96.61c-2.334 0-3.51-1.457-3.51-3.791zm11.97-10.216h3.211l3.716 5.322 3.867-5.322h3.212v14.007h-3.212v-8.965l-3.493 4.595h-.878l-3.212-4.595v8.965h-3.212V38.47zm16.917 10.216V38.47h9.058v2.764H125.2v2.782h5.248v2.764H125.2v1.326c0 1.158.299 1.607 1.457 1.607h4.669v2.764h-5.827c-2.334 0-3.51-1.457-3.51-3.791zm11.97 0V38.47h9.057v2.764h-5.845v2.782h5.248v2.764h-5.248v1.326c0 1.158.299 1.607 1.457 1.607h4.669v2.764h-5.827c-2.335 0-3.511-1.457-3.511-3.791zm11.97-10.216h2.913l5.266 8.31v-8.31h3.212v14.007h-2.932l-5.247-8.311v8.31h-3.212V38.472zm16.936 2.764h-3.79v-2.764h10.794v2.764h-3.791v11.242h-3.213V41.235zm8.74 7.452V38.47h9.057v2.764h-5.846v2.782h5.248v2.764h-5.248v1.326c0 1.158.299 1.607 1.457 1.607h4.669v2.764h-5.827c-2.334 0-3.51-1.457-3.51-3.791z"/>
        <path fill="#266EA1" d="M55.587 55.158l-.08.051-4.683-8.873-2.963 6a5.162 5.162 0 0 1-.28-1.607h-.129l2.75-5.57-1.044-1.979.017-.027-.025.012a1.804 1.804 0 0 1 1.62-2.59 1.804 1.804 0 0 1 1.58 2.668l-.937 1.9 4.964 9.407a5.234 5.234 0 0 1-.79.608M50.77 41.655a.724.724 0 0 0-.65 1.038l.671 1.271.61-1.234a.723.723 0 0 0-.631-1.076"/>
        <path fill="#CA464C" d="M36.498 52.865h-.069a7.727 7.727 0 0 1-2.873-6.019v-6.191h-.001a2.852 2.852 0 1 0-5.698-.168 5.272 5.272 0 0 1 2.205 4.291c0 .703-.137 1.374-.386 1.987l-.001-.001A6.196 6.196 0 0 1 30.7 34.46a6.196 6.196 0 0 1 5.797 4.011v14.394zm7.907 6.267l-1.079-.921a10.208 10.208 0 0 1-.26-.264l5.262-4.526c.57.948 1.432 1.7 2.461 2.131v5.63c-.054 0-.107.004-.161.004-2.332 0-4.484-.764-6.223-2.054z"/>
        <path fill="#F6AB62" d="M43.326 58.211l1.079.92v2.076a.928.928 0 0 1 .392.757.92.92 0 0 1-.062.325l1.31 2.876h-.592l-1.03-2.26.343 2.26h-.545l-.345-2.272-.01.001h-.01l-.345 2.271h-.546l.344-2.26-1.03 2.26h-.593l1.31-2.876a.922.922 0 0 1-.061-.325c0-.313.155-.588.391-.757v-2.996zm13.902.627l1.078-.959v3.328a.926.926 0 0 1 .33 1.083l1.31 2.875h-.592l-1.03-2.26.344 2.26h-.546l-.345-2.271h-.02l-.344 2.271h-.546l.343-2.26-1.03 2.26h-.592l1.31-2.875a.93.93 0 0 1-.062-.326c0-.313.156-.588.392-.757v-2.37zm-6.439-3.285l1.079.319v5.238l-1.079.072v-5.63zm-2.932-3.149l.47 1.018-5.262 4.525-.703-.818 5.495-4.725zm7.73 2.754l.855-.67 2.535 2.535-.67.856-2.72-2.72z"/>
        <path fill="#CA464C" d="M65.117 53.808v-4.514c-.018.031-.036.063-.06.091-.509.607-2.083.124-3.516-1.079-1.433-1.202-2.182-2.669-1.673-3.276l.577-.71a1804.088 1804.088 0 0 0-5.217-5.849H40.064c.705-1.263 1.926-2.301 3.556-3.378 2.415-1.595 3.532-3.637 3.532-6.377 0-1.709-.737-3.275-1.753-4.492l-1.76 4.964a1.382 1.382 0 0 1-.898 2.43l-1.685-.013c.254-.391.413-1.136.413-1.743 0-1.19-.512-2.136-1.357-2.136-.855 0-1.35.905-1.35 2.158v1.733H35.95V17.225H21.312a.312.312 0 0 1-.042-.62l14.68-2.015v-3.422c0-.393.465-.6.757-.339l2.556 2.707c.291.308.707.47 1.13.435l.151-.011a3.811 3.811 0 0 1 1.413-2.072c.254-.189.538-.354.846-.479.308-.124.641-.236.994-.293-.22.46-.332.948-.363 1.425-.03.464.02.917.122 1.362l.031.002c.14-.31.318-.604.539-.873.23-.281.506-.542.82-.746a4.205 4.205 0 0 1 2.304-.693c-.57.83-.74 1.789-.675 2.713l.031.007c.187-.285.409-.547.669-.78.274-.247.584-.447.928-.604a3.82 3.82 0 0 1 1.124-.328c.2-.027.407-.042.619-.044a4.32 4.32 0 0 1 .642.052c-.695.733-1.014 1.65-1.097 2.57l.032.013c.23-.253.49-.477.784-.667a3.833 3.833 0 0 1 1.01-.447c.37-.11.756-.152 1.162-.146.41 0 .823.078 1.244.206-.804.617-1.264 1.473-1.489 2.366l.028.017a3.815 3.815 0 0 1 1.95-.82 4.288 4.288 0 0 1 1.17.038c.399.07.797.21 1.196.397-.893.487-1.483 1.262-1.843 2.108l.024.02a3.81 3.81 0 0 1 .95-.387 3.7 3.7 0 0 1 1.104-.116 4.208 4.208 0 0 1 2.266.8c-.95.336-1.653 1.008-2.147 1.792l.021.024a3.78 3.78 0 0 1 2.105-.176c.186.038.373.088.56.153.184.066.361.15.54.245.18.095.355.204.529.327.166.127.328.268.486.42-.994.185-1.793.738-2.4 1.432l.018.029c.334-.07.68-.098 1.026-.078.36.026.722.103 1.081.233.711.264 1.383.758 1.91 1.466-1.016.026-1.893.447-2.6 1.036l.014.03c.163-.008.327-.008.49.005.179.014.356.042.533.083.353.08.703.213 1.038.398.324.189.634.43.922.721.274.294.522.64.73 1.029-1.006-.135-1.943.143-2.73.613l.008.03a3.846 3.846 0 0 1 1.953.808c.29.238.57.523.798.857.22.334.427.712.558 1.13a3.862 3.862 0 0 0-1.461-.149c-.461.04-.905.156-1.33.323 0 .011.002.022.003.032a3.914 3.914 0 0 1 1.398.718 4.034 4.034 0 0 1 1.002 1.248l.947-.135a2.398 2.398 0 0 1 2.691 1.913l2.71 10.114c.18.674.214 1.38.098 2.07l-.553 3.358v-.002a3.41 3.41 0 0 1-2.764 2.758l-1.757.33-.39.062zm-6.81 4.071l-2.72-2.72-.08.05a5.21 5.21 0 0 1-3.64.663v5.238a10.397 10.397 0 0 0 5.361-2.272l1.079-.959zm-10.855-7.15H40.172c0 2.412.818 4.632 2.19 6.4l5.495-4.725a.75.75 0 0 0-.012-.035l.016-.033a5.16 5.16 0 0 1-.28-1.607h-.129zm13.632 0h-3.046a5.21 5.21 0 0 1-1.596 3.759l2.535 2.535a10.408 10.408 0 0 0 2.107-6.293zm12.03 27.266l.001-.001-3.055-3.171-8.035-4.548 6.038-8.293a4.424 4.424 0 0 0-1.086-6.162c-.704-.465-1.31-.655-1.892-.744-.157 4.44-1.334 7.943-3.53 10.398-2.426 2.713-6.042 4.088-10.747 4.088-4.722 0-8.343-1.375-10.764-4.087-2.289-2.564-3.47-6.278-3.534-11.026-.313.12-.628.258-.89.408a4.425 4.425 0 0 0-1.619 6.044l4.602 8.078-7.406 4.938-3.86 3.823.077.013a.84.84 0 0 0-.18.5c0 .927 1.775 1.678 3.963 1.678s3.961-.75 3.961-1.677V76.03l7.705-3.594a2.646 2.646 0 0 0 1.5-2.007c1.72.497 3.63.75 5.726.75 1.71 0 3.294-.17 4.754-.502a2.776 2.776 0 0 0 1.493 2.532l9.132 3.894v1.507c0 .927 1.774 1.678 3.962 1.678s3.961-.751 3.961-1.678c0-.218-.098-.425-.277-.616zm-34.669-56.32a1.258 1.258 0 1 0 0-2.517 1.258 1.258 0 0 0 0 2.516zM56.693 33.14l7.355 9.93c.493.671.793 1.466.866 2.295l.298 3.415a.931.931 0 0 1-.048.412l.945-.274c.586-.169.924-.78.757-1.366l-1.75-6.155v-2.927h-2.988l-4.473-6.046c-.852-1.151-2.295-1.388-3.542-.713L48.9 34.53l5.078-2.134a2.28 2.28 0 0 1 2.715.745z"/>
        <path fill="#F5AB63" d="M61.698 33.672l2.436-.332a4.029 4.029 0 0 0-1.002-1.248 3.88 3.88 0 0 0-1.399-.718l-.002-.031a4.727 4.727 0 0 1 1.33-.323 3.857 3.857 0 0 1 1.46.147 4.564 4.564 0 0 0-.557-1.13 4.144 4.144 0 0 0-.798-.856 3.83 3.83 0 0 0-1.953-.807l-.008-.03c.787-.47 1.724-.75 2.73-.614a4.88 4.88 0 0 0-.73-1.029 4.455 4.455 0 0 0-.923-.721 3.986 3.986 0 0 0-1.037-.399 3.81 3.81 0 0 0-.532-.082 4.023 4.023 0 0 0-.491-.005l-.013-.03c.706-.589 1.583-1.01 2.599-1.036-.527-.708-1.2-1.202-1.91-1.465a3.98 3.98 0 0 0-1.081-.234 3.92 3.92 0 0 0-1.026.078.958.958 0 0 0-.018-.03c.607-.693 1.406-1.246 2.4-1.43a5.33 5.33 0 0 0-.486-.421 5.055 5.055 0 0 0-.528-.327 4.115 4.115 0 0 0-.542-.245 4.356 4.356 0 0 0-.559-.153 3.78 3.78 0 0 0-2.105.176l-.021-.024c.494-.784 1.197-1.456 2.147-1.791a4.213 4.213 0 0 0-2.266-.801 3.686 3.686 0 0 0-1.103.116 3.808 3.808 0 0 0-.95.386 1.928 1.928 0 0 0-.025-.02c.36-.844.95-1.62 1.843-2.107a4.798 4.798 0 0 0-1.196-.397 4.28 4.28 0 0 0-1.17-.039c-.741.095-1.399.375-1.95.82l-.028-.016c.225-.893.686-1.749 1.49-2.367a4.291 4.291 0 0 0-1.245-.205 3.834 3.834 0 0 0-1.161.146 3.834 3.834 0 0 0-1.011.448 3.934 3.934 0 0 0-.784.665l-.031-.012c.082-.92.401-1.837 1.096-2.57a4.292 4.292 0 0 0-.642-.053 5.02 5.02 0 0 0-.62.045c-.398.049-.779.17-1.123.328a3.593 3.593 0 0 0-.928.605c-.26.232-.483.494-.669.779l-.031-.007c-.065-.925.105-1.882.675-2.713-.88.01-1.675.27-2.304.693a3.63 3.63 0 0 0-.82.746c-.22.269-.4.562-.538.873l-.032-.002a4.682 4.682 0 0 1-.122-1.362c.03-.477.143-.965.363-1.425a4.575 4.575 0 0 0-.994.293 3.85 3.85 0 0 0-.846.479 3.802 3.802 0 0 0-1.413 2.072l-.15.011"/>
        <path fill="#CA464C" d="M62.025 34.402v-1.168c0-10.7-8.674-19.372-19.372-19.372-.567 0-1.41.041-2.109.098 0 0-.88.06-.909.08"/>
        <path fill="#F5AB63" d="M30.061 44.777c0-1.768-.87-3.332-2.205-4.29l-3.342-.002c-.002.057-.009.112-.009.169a6.195 6.195 0 0 0 5.17 6.109c.249-.613.386-1.283.386-1.986z"/>
    </g>
</svg>
